/* XPM */
static char * bedrock64_xpm[] = {
"64 64 5 1",
" 	c #636363",
".	c #333333",
"+	c #575757",
"@	c #979797",
"#	c #222222",
"    ................++++@@@@    ++++@@@@++++........++++....++++",
"    ................++++@@@@    ++++@@@@++++........++++....++++",
"    ................++++@@@@    ++++@@@@++++........++++....++++",
"    ................++++@@@@    ++++@@@@++++........++++....++++",
"....        @@@@    @@@@    @@@@....@@@@@@@@    ####....++++....",
"....        @@@@    @@@@    @@@@....@@@@@@@@    ####....++++....",
"....        @@@@    @@@@    @@@@....@@@@@@@@    ####....++++....",
"....        @@@@    @@@@    @@@@....@@@@@@@@    ####....++++....",
"....####........####............@@@@....++++++++++++@@@@++++    ",
"....####........####............@@@@....++++++++++++@@@@++++    ",
"....####........####............@@@@....++++++++++++@@@@++++    ",
"....####........####............@@@@....++++++++++++@@@@++++    ",
"++++@@@@        ++++####++++@@@@++++++++....................++++",
"++++@@@@        ++++####++++@@@@++++++++....................++++",
"++++@@@@        ++++####++++@@@@++++++++....................++++",
"++++@@@@        ++++####++++@@@@++++++++....................++++",
"####....@@@@................++++........    @@@@@@@@        ....",
"####....@@@@................++++........    @@@@@@@@        ....",
"####....@@@@................++++........    @@@@@@@@        ....",
"####....@@@@................++++........    @@@@@@@@        ....",
"....++++++++++++....++++++++........####++++++++........####....",
"....++++++++++++....++++++++........####++++++++........####....",
"....++++++++++++....++++++++........####++++++++........####....",
"....++++++++++++....++++++++........####++++++++........####....",
"@@@@@@@@    ++++    @@@@@@@@    ++++    @@@@@@@@    @@@@....####",
"@@@@@@@@    ++++    @@@@@@@@    ++++    @@@@@@@@    @@@@....####",
"@@@@@@@@    ++++    @@@@@@@@    ++++    @@@@@@@@    @@@@....####",
"@@@@@@@@    ++++    @@@@@@@@    ++++    @@@@@@@@    @@@@....####",
"++++++++++++....++++++++++++........####........++++....    ++++",
"++++++++++++....++++++++++++........####........++++....    ++++",
"++++++++++++....++++++++++++........####........++++....    ++++",
"++++++++++++....++++++++++++........####........++++....    ++++",
"    @@@@@@@@++++........++++++++    @@@@@@@@    @@@@@@@@@@@@@@@@",
"    @@@@@@@@++++........++++++++    @@@@@@@@    @@@@@@@@@@@@@@@@",
"    @@@@@@@@++++........++++++++    @@@@@@@@    @@@@@@@@@@@@@@@@",
"    @@@@@@@@++++........++++++++    @@@@@@@@    @@@@@@@@@@@@@@@@",
"++++........####....++++....++++....    ++++............@@@@    ",
"++++........####....++++....++++....    ++++............@@@@    ",
"++++........####....++++....++++....    ++++............@@@@    ",
"++++........####....++++....++++....    ++++............@@@@    ",
"        @@@@....    @@@@@@@@....####....@@@@@@@@@@@@    ........",
"        @@@@....    @@@@@@@@....####....@@@@@@@@@@@@    ........",
"        @@@@....    @@@@@@@@....####....@@@@@@@@@@@@    ........",
"        @@@@....    @@@@@@@@....####....@@@@@@@@@@@@    ........",
"####++++++++++++........++++    @@@@@@@@++++        @@@@@@@@####",
"####++++++++++++........++++    @@@@@@@@++++        @@@@@@@@####",
"####++++++++++++........++++    @@@@@@@@++++        @@@@@@@@####",
"####++++++++++++........++++    @@@@@@@@++++        @@@@@@@@####",
"++++............    ++++........    @@@@....................++++",
"++++............    ++++........    @@@@....................++++",
"++++............    ++++........    @@@@....................++++",
"++++............    ++++........    @@@@....................++++",
"    @@@@    @@@@++++####++++............####....++++    @@@@@@@@",
"    @@@@    @@@@++++####++++............####....++++    @@@@@@@@",
"    @@@@    @@@@++++####++++............####....++++    @@@@@@@@",
"    @@@@    @@@@++++####++++............####....++++    @@@@@@@@",
"        ++++........++++........++++    @@@@@@@@++++........++++",
"        ++++........++++........++++    @@@@@@@@++++........++++",
"        ++++........++++........++++    @@@@@@@@++++........++++",
"        ++++........++++........++++    @@@@@@@@++++........++++",
"....####........####@@@@@@@@    ....++++    ####........++++    ",
"....####........####@@@@@@@@    ....++++    ####........++++    ",
"....####........####@@@@@@@@    ....++++    ####........++++    ",
"....####........####@@@@@@@@    ....++++    ####........++++    "};
