/* XPM */
static char *_ada16d44cac467de87e3036a143031cBhXZwJFWx2vf0K3v[] = {
/* columns rows colors chars-per-pixel */
"64 64 168 2 ",
"   c None",
".  c #2E1204",
"X  c #361506",
"o  c #3C1707",
"O  c #3C1708",
"+  c #3E1808",
"@  c #401708",
"#  c #421B0B",
"$  c #491E0E",
"%  c #5C1E0D",
"&  c #4D200F",
"*  c #57200F",
"=  c #4B2110",
"-  c #562313",
";  c #5C2412",
":  c #5C2817",
">  c #5D2D1B",
",  c #5F301E",
"<  c #64200F",
"1  c #652311",
"2  c #6C2511",
"3  c #652917",
"4  c #6D2814",
"5  c #632D1B",
"6  c #6E2C19",
"7  c #722E1B",
"8  c #62301F",
"9  c #6E301B",
"0  c #76311D",
"q  c #78321E",
"w  c #5F3120",
"e  c #623321",
"r  c #693623",
"t  c #7C3621",
"y  c #78402A",
"u  c #7E4732",
"i  c #7A4B36",
"p  c #7D543E",
"a  c #AE2119",
"s  c #B1221A",
"d  c #B3291E",
"f  c #BA281E",
"g  c #813723",
"h  c #843A25",
"j  c #873D28",
"k  c #883E29",
"l  c #B7372C",
"z  c #BC3529",
"x  c #B7382D",
"c  c #BF3D2F",
"v  c #BA3427",
"b  c #8C422D",
"n  c #AE4639",
"m  c #B74F3C",
"M  c #BC4B3C",
"N  c #BB4535",
"B  c #C24334",
"V  c #C04A3D",
"C  c #8A5E45",
"Z  c #B85240",
"A  c #92775C",
"S  c #A57C62",
"D  c #C04C40",
"F  c #CB5542",
"G  c #CE5B4B",
"H  c #C76758",
"J  c #C87460",
"K  c #D77A61",
"L  c #A98065",
"P  c #A58068",
"I  c #AF886E",
"U  c #B58F76",
"Y  c #B69076",
"T  c #B49479",
"R  c #B39B7D",
"E  c #C9846D",
"W  c #D68D75",
"Q  c #BB9782",
"!  c #BBA487",
"~  c #D79C84",
"^  c #D39F89",
"/  c #C7A48C",
"(  c #C9A58C",
")  c #DDA28E",
"_  c #CCAD93",
"`  c #D2AA92",
"'  c #C8B595",
"]  c #CFB499",
"[  c #CBB89B",
"{  c #D3B69B",
"}  c #E1AF91",
"|  c #E7BA9D",
" . c #D3BCA1",
".. c #EDBBA3",
"X. c #ECBCA8",
"o. c #D6C5A5",
"O. c #D6C5A8",
"+. c #DAC7AC",
"@. c #DACAAC",
"#. c #DACAA7",
"$. c #DBCCB2",
"%. c #DDD2B4",
"&. c #DFD2BA",
"*. c #E4C4AA",
"=. c #E0D2AD",
"-. c #E9C8B2",
";. c #F1CCB5",
":. c #E2D4B2",
">. c #E6D9B6",
",. c #E3D5BA",
"<. c #E6D9BC",
"1. c #EADCBB",
"2. c #EDD3B5",
"3. c #EDE1BE",
"4. c #E6D9C1",
"5. c #E9DDC3",
"6. c #F5DCC2",
"7. c #EDE2C3",
"8. c #EEE3CC",
"9. c #F1E6C6",
"0. c #F4EAC5",
"q. c #F3E6CA",
"w. c #F3EACB",
"e. c #F9EDCF",
"r. c #EEE4D1",
"t. c #F0E6D1",
"y. c #F8E7D3",
"u. c #F4EBD3",
"i. c #F9EED2",
"p. c #F4ECDB",
"a. c #FBF1D5",
"s. c #FBF8D7",
"d. c #FCF3DC",
"f. c #FEFADD",
"g. c #FDF6E5",
"h. c #FDF7E7",
"j. c #FCF6E7",
"k. c #FCF5E5",
"l. c #FDF5E3",
"z. c #FFF9E0",
"x. c #FFFAE1",
"c. c #FFFAE2",
"v. c #FFF9E2",
"b. c #FFFBE5",
"n. c #FEF8E6",
"m. c #FFFBE5",
"M. c #FDF7E8",
"N. c #FDF7E9",
"B. c #FEF7E9",
"V. c #FDF7E9",
"C. c #FDF8EA",
"Z. c #FDF8EB",
"A. c #FEF8EB",
"S. c #FEF8E9",
"D. c #FDF8EC",
"F. c #FDF8ED",
"G. c #FEF8EC",
"H. c #FFF9EC",
"J. c #FEF9ED",
"K. c #FFF9ED",
"L. c #FEF8ED",
"P. c #FFFAED",
"I. c #FFFAEE",
"U. c #FFFAEF",
"Y. c #FFFBEF",
"T. c #FFF9EE",
"R. c #FFF9ED",
"E. c #FFFAF0",
/* pixels */
"                X $ $ = $ $ $ $ $ $ = = = = $ $ $ $ $ $ $ $ $ $ $ $ $ $ $ $ $ $ # # O + # # + + # # # # # $ # o                 ",
"              - h h h b b k j j h h j b k h j k k b b b b j h h h h h h h k b b b b b b b k b b j j h j g t g t $               ",
"            X q q 9 P Y U Y Y Y Y Y Y U Y Y Y U U U U U U U Y Y Y Y Y Y Y Y U U U U U U Y Y y Q Y Y Y U S I L t 6 .             ",
"            O 7 u u.m.f.f.f.f.f.c.c.c.n.n.n.c.c.c.c.f.c.c.n.n.n.n.n.c.f.f.c.c.c.c.c.f.s.s.f.1.s.s.s.s.c.k.1.w.C 7 O             ",
"            O 1  .c.l.l.d.d.l.M.H.H.H.H.H.H.H.H.H.M.M.h.M.H.E.H.E.E.H.M.M.M.h.h.h.h.h.d.d.l.d.e.i.e.e.e.l.4.w.p 7 o             ",
"            O 1 $.*.X.n.l.l.H.H.H.H.H.H.H.H.H.H.S.H.H.M.M.S.H.H.H.H.H.H.H.H.H.H.S.M.H.h.h.S.S.l.d.a.a.a.a.l.1.p 4 O             ",
"            O 2 %.s f.h.h.h.h.S.H.H.H.H.H.H.H.H.S.H.S.S.h.M.H.H.H.H.H.H.H.H.H.H.H.H.S.S.S.S.S.S.l.d.a.a.a.t.1.> q o             ",
"            O 2 %.x i.n.h.h.h.S.H.H.H.H.H.H.H.H.H.S.S.S.M.h.S.H.H.H.H.H.H.H.H.H.H.H.S.S.S.S.S.S.M.d.d.d.d.r.9.e 0 #             ",
"            O 2 $.2.;.S.h.h.M.S.H.H.H.H.H.H.H.H.H.H.H.S.S.M.M.H.H.H.E.H.H.H.H.H.H.S.S.S.S.S.S.S.h.l.d.d.d.r.7.e q o             ",
"            O % $.y.6.n.h.M.M.S.H.H.H.H.H.H.H.H.H.H.H.H.S.M.M.H.H.E.E.E.H.H.H.H.H.S.S.S.S.S.S.S.h.l.d.d.d.8.3.e 7 X             ",
"            O 2 %.M 9.S.M.M.M.S.H.H.H.H.H.H.H.H.H.H.H.H.M.M.M.S.H.E.H.H.E.H.H.H.H.H.H.H.H.H.H.S.h.d.d.d.d.d.1.e q $             ",
"            O 2 %.a x.h.h.h.M.S.H.H.H.H.H.H.H.H.H.H.H.H.S.M.M.S.H.H.H.H.H.H.H.H.H.H.H.H.H.H.H.H.h.l.l.l.d.Y.:.e 7 $             ",
"            O 2 $.~ X.S.h.M.S.H.H.H.H.H.H.H.H.H.H.H.H.H.S.M.M.S.H.H.H.H.H.H.H.H.H.H.H.H.H.H.H.H.M.h.h.h.h.t.[ - q +             ",
"            O % $.S.y.h.h.S.H.H.H.H.H.H.H.H.H.H.H.H.H.H.H.M.M.M.H.H.H.H.E.H.H.H.H.H.H.H.H.H.H.H.h.h.h.h.n.t.+.: 7 X             ",
"            O < %.H ;.S.h.M.H.H.H.H.H.H.H.H.H.H.H.H.H.H.H.S.M.M.H.H.E.E.E.E.H.H.H.H.H.H.H.H.H.h.h.h.h.h.h.u.>.e 7 X             ",
"            O 2 %.f m.l.h.h.S.S.S.H.H.H.H.H.H.H.H.H.H.H.H.H.M.M.H.H.H.E.E.E.H.H.H.H.H.H.H.H.S.h.h.h.h.h.l.8.9.8 7 &             ",
"            O 2 $.J X.l.d.d.l.H.S.H.H.H.H.H.H.H.H.H.H.H.H.H.M.M.S.H.H.E.H.H.H.H.H.H.H.H.H.H.H.H.h.h.h.h.h.8.#.w 7 #             ",
"            O 2 +.Y.s.d.d.d.h.S.S.H.H.H.H.H.H.H.H.H.H.H.H.H.H.M.S.H.H.H.H.H.H.H.H.H.H.H.H.H.H.S.S.h.h.h.S.9.1.e q $             ",
"            O 2 $.) ..l.d.d.h.M.S.H.H.H.H.H.H.H.H.H.H.H.H.H.H.M.S.S.H.H.H.H.H.H.H.H.H.H.H.H.S.S.S.M.l.d.n.5.7.e q +             ",
"            O 2 %.a x.d.d.d.l.M.M.S.H.H.H.H.H.H.H.H.H.H.H.H.H.M.M.H.H.H.H.H.H.H.H.H.H.H.H.S.S.M.h.h.d.d.S.,.9.> 7 +             ",
"            O 2 $.M 6.l.d.l.h.h.S.H.H.H.H.H.H.H.H.H.H.H.H.H.H.M.M.H.H.H.H.H.H.H.H.H.H.H.H.M.h.h.h.h.d.d.h.7.1.> 7 &             ",
"            O 2 +.q.6.d.d.l.h.M.H.H.H.H.H.H.H.H.H.H.H.H.H.H.H.M.M.H.H.H.H.H.H.H.H.H.H.H.H.H.H.H.S.d.d.d.l.q.7.5 7 #             ",
"            O 2 +.-.X.l.d.h.M.S.S.H.H.H.H.H.H.H.H.H.H.H.H.H.H.S.M.H.H.H.H.H.H.H.H.H.H.H.H.H.H.H.h.l.d.d.l.8.0.> 7 o             ",
"            O 2 %.x e.d.d.h.S.S.H.H.H.H.H.H.H.H.H.H.H.H.H.H.H.S.M.H.H.H.H.H.H.H.H.H.H.H.H.H.H.H.h.h.d.d.d.r.>.> q +             ",
"            O 2 %.l e.d.d.l.S.S.H.H.H.H.H.H.H.H.H.H.H.H.H.H.H.H.M.H.H.H.H.H.H.H.H.H.H.H.H.S.S.S.h.h.d.d.d.r.3.e q o             ",
"            O 2 $.*...l.d.h.M.S.S.S.H.H.H.H.H.H.H.H.H.H.H.H.H.H.S.H.H.H.H.H.H.H.H.H.H.H.H.S.S.M.h.h.d.d.d.r.0.w 0 O             ",
"            O 2 +.e.6.d.d.h.h.M.S.S.S.H.H.H.H.H.H.H.H.H.H.H.H.H.S.H.H.H.H.H.H.H.H.H.H.H.S.H.M.h.h.l.d.d.l.4.7.> 6 +             ",
"            O 2 %.M 6.l.d.h.h.M.S.S.S.S.H.H.H.H.H.H.H.H.H.H.H.H.H.H.H.H.H.H.H.H.H.H.H.H.H.M.l.h.h.h.h.l.l.r.9., 3 X             ",
"            O 2 %.s x.d.d.l.h.S.S.S.M.S.H.H.H.H.H.H.H.H.H.H.H.H.H.H.H.H.H.H.H.H.H.H.H.H.M.l.h.h.h.h.h.h.n.8.3.8 6 $             ",
"            O 2 $.~ ..l.d.l.h.S.S.S.M.S.H.H.H.H.H.H.H.H.H.H.H.H.H.H.H.H.H.H.H.H.H.H.H.M.h.h.h.h.h.h.h.h.S.4.' ; q $             ",
"            O 2 +.P.a.d.d.l.M.S.S.S.M.S.H.H.H.H.H.H.H.H.H.H.H.H.H.H.H.H.H.H.H.H.H.H.S.S.h.h.h.h.h.h.h.h.S.&.3.8 7 X             ",
"            O 2 O.d f.d.d.d.M.S.S.M.H.H.H.H.H.H.H.H.H.H.H.H.H.H.H.H.H.H.H.H.H.H.H.H.H.H.M.h.h.h.h.h.h.l.S.,.1.8 7 o             ",
"            O 4 ( G a.d.d.l.S.H.H.H.H.H.H.H.H.H.H.H.H.H.H.H.H.H.H.H.H.H.H.H.H.H.H.H.H.H.H.H.H.M.h.h.l.l.h.5.:.> q +             ",
"            O 2  .z f.d.d.l.h.M.H.H.H.H.H.H.H.H.H.H.H.H.H.H.H.H.H.H.H.H.H.H.H.H.H.H.H.H.H.H.H.H.h.h.l.l.l.5.9.e q +             ",
"            O 2 +.q.a.d.d.l.h.M.M.H.H.H.H.H.H.H.S.H.H.H.H.H.H.H.H.H.H.H.H.H.H.H.H.H.H.H.H.H.H.S.h.h.l.a.d.8.1.> q +             ",
"            O 2 +.V f.d.d.l.l.h.M.H.H.H.H.H.S.S.S.S.H.H.H.H.H.H.H.H.H.H.H.H.H.H.H.H.H.H.H.H.H.H.h.h.l.d.d.5.3.> q o             ",
"            O 4 ( F s.d.d.l.l.l.l.H.S.S.S.S.S.S.S.S.H.H.H.H.H.H.H.H.H.H.H.H.H.H.H.H.H.H.H.H.H.H.h.h.h.l.l.7.>.> 0 o             ",
"            O 2 { c s.d.d.l.l.l.l.S.S.S.S.S.S.S.S.S.S.E.H.H.H.H.H.H.H.H.H.H.E.E.H.H.H.H.H.H.M.M.h.l.l.l.l.8.:.> q +             ",
"            O 2 @.} d.d.d.l.l.l.S.S.S.S.S.S.S.S.S.S.S.S.S.H.H.H.H.H.H.H.H.E.E.E.E.H.H.M.M.k.l.l.l.l.l.l.l.8.=.r q +             ",
"            O 2 +.6.a.d.d.l.h.n.S.S.S.S.S.l.S.S.S.S.S.S.S.H.H.H.H.H.H.E.E.E.E.E.E.H.M.M.M.M.k.l.l.l.l.l.l.r.:.e q +             ",
"            O 2  .z f.d.h.S.S.S.S.S.S.S.S.S.S.S.S.S.S.H.H.H.H.H.H.E.E.E.E.H.H.E.E.H.M.M.M.M.h.l.l.l.l.l.l.8.#.8 q +             ",
"            O 4 ( G a.l.l.h.n.n.S.S.S.S.S.S.S.S.S.S.S.H.H.H.H.H.H.E.E.E.H.H.H.E.E.H.M.M.M.M.h.h.h.l.l.l.d.8.3.> q +             ",
"            O 2 o.d f.l.l.l.l.l.l.S.S.S.S.S.S.S.S.S.H.H.H.H.H.E.H.H.H.E.H.E.E.E.H.H.h.h.h.h.d.a.a.a.a.a.a.t.3.e 7 o             ",
"            O 2 +.x.a.l.l.l.l.l.l.l.S.S.S.S.S.S.S.H.H.H.H.H.H.H.H.H.H.E.E.E.E.H.H.H.M.h.h.d.a.a.a.a.a.a.a.8.:.e q O             ",
"            O 2 +.M f.l.l.l.l.l.l.l.S.S.S.S.S.S.S.H.H.H.H.H.H.H.H.H.H.H.H.E.E.H.H.H.H.M.l.l.d.a.a.a.a.a.h.5.:.e q #             ",
"            O 4 ( F a.l.l.l.l.l.l.l.S.S.S.H.H.H.H.H.H.H.H.E.H.H.H.H.E.H.E.E.E.H.H.H.H.M.M.h.l.l.l.l.l.a.l.<.1.w q =             ",
"            O 2  .v f.d.l.l.l.l.l.l.d.S.H.H.H.H.H.H.H.H.H.E.E.E.E.E.E.E.E.E.H.H.H.H.M.M.M.M.M.h.l.l.l.a.d.<.3.e q #             ",
"            O 2 +.| s.d.d.l.l.l.l.S.S.H.H.H.H.H.H.H.H.H.H.H.E.E.E.E.E.E.E.H.M.D.D.D.M.M.M.M.M.l.l.l.l.a.l.<.1.8 q +             ",
"            O 2 %.H f.d.d.d.l.l.l.l.n.H.H.H.H.H.H.H.H.H.H.H.H.E.E.E.E.E.E.H.M.M.M.M.M.M.M.M.D.l.l.l.l.a.h.,.o.1 7 o             ",
"            O 4 / F a.d.d.d.d.l.l.l.l.H.H.H.H.H.H.H.H.H.H.H.H.E.E.E.E.E.E.H.D.M.M.M.M.M.M.M.D.h.l.l.l.i.h.,.+.: q o             ",
"            O 2 _ B s.d.d.d.d.d.l.l.l.S.H.H.H.H.H.H.H.H.H.H.H.H.E.E.E.E.E.H.D.M.M.M.M.M.M.D.M.h.l.l.l.a.n.1.:.; 6 O             ",
"            O 2 $.W f.d.d.d.d.d.h.h.M.H.H.H.H.H.H.H.H.H.H.H.H.H.E.E.E.E.E.E.H.D.M.M.M.M.M.M.h.h.h.l.l.a.l.1.>.> q #             ",
"            o 2 @.X.a.d.d.d.l.h.M.M.S.H.H.H.H.H.H.H.H.H.H.H.H.H.H.E.E.E.E.E.E.E.H.M.M.h.h.h.h.h.l.l.a.i.l.1.7.r 7 X             ",
"            O 4 ] B f.h.h.h.h.h.h.M.H.H.H.H.H.H.H.H.H.H.H.H.H.H.H.H.E.E.E.E.E.E.H.h.h.l.l.d.d.d.a.a.a.i.l.7.@.; q $             ",
"            O % / G s.l.h.h.h.h.h.M.h.S.H.H.H.H.H.H.H.H.H.H.H.H.H.H.H.H.H.E.E.E.M.d.d.d.d.d.d.a.a.a.a.i.a.q.' 5 q #             ",
"            O < +.N m.l.h.h.h.h.h.h.M.M.S.H.H.H.H.H.H.H.H.H.H.H.H.H.H.H.H.E.E.E.M.d.d.d.d.d.a.a.a.a.a.i.l.,.o.5 q #             ",
"            O 2 +.s.e.h.h.h.h.h.h.h.h.h.h.H.H.H.H.H.H.H.H.H.H.H.H.H.H.H.H.H.E.E.H.l.d.d.a.a.a.a.a.a.a.i.w.+.1.; q X             ",
"            O 2 @.K E P.h.h.h.h.h.M.M.M.M.H.H.H.H.H.H.H.H.H.H.H.H.H.H.H.H.H.H.H.H.H.d.a.a.a.a.a.a.a.:.,.p.:.R * q o             ",
"            O 2 { D m Y.h.h.h.h.S.M.M.h.h.H.H.H.H.H.H.H.H.H.H.H.E.E.E.E.H.H.H.E.E.H.a.a.a.a.a.a.i.a.<.H.5.[ 1.5 q o             ",
"            O 4 ` ^ Z x.a.d.a.l.l.d.d.d.a.l.l.l.l.l.l.l.d.l.d.l.h.h.h.l.l.l.l.d.a.i.i.a.a.i.a.a.a.a.1.o.R +.o.i 7 o             ",
"            + 0 u A n w.9.9.9.9.9.9.9.9.9.9.9.9.9.9.9.,.1.9.9.9.9.9.9.9.9.9.9.9.9.9.9.9.9.9.9.9.9.9.! T ! 1.#.i 7 O             ",
"            . 1 6 ; ; ; ; ; ; ; ; ; ; ; ; ; ; ; ; ; ; ; ; ; ; ; ; ; ; ; ; ; ; ; ; ; ; ; ; ; ; ; ; ; ; - - $ > 6 q X             ",
"              @ 3 7 q q q q 7 q 7 q 7 7 6 q q q q 7 7 q q q 7 q q q q 6 0 7 6 7 6 7 7 q q 7 q q 6 q 6 6 7 6 q q *               ",
"                X # # # # # # # # # # # # # # # # # # # # # # # # # # # + # # # # # # # # # # # # # # # # # # O                 "
};
