/* XPM */
static char *_256703b92814668c296f622fb861090wtgibA78q0lhoVHF[] = {
/* columns rows colors chars-per-pixel */
"64 64 11 1 ",
"  c None",
". c #11727A",
"X c white",
"o c #D5FFF6",
"O c #4AEDD9",
"+ c #A1FBE8",
"@ c #20C5B5",
"# c #145E53",
"$ c #1AAAA7",
"% c #1C919A",
"& c #2CE0D8",
/* pixels */
"                                                                ",
"                                                                ",
"                                                                ",
"                                                                ",
"                                                                ",
"                                                                ",
"                                                                ",
"                                                                ",
"                        ................                        ",
"                        ................                        ",
"                        ................                        ",
"                        ................                        ",
"                    ....XXXXXXXXXXXXoooo....                    ",
"                    ....XXXXXXXXXXXXoooo....                    ",
"                    ....XXXXXXXXXXXXoooo....                    ",
"                    ....XXXXXXXXXXXXoooo....                    ",
"                ....XXXXOOOOOOOO++++oooo@@@@####                ",
"                ....XXXXOOOOOOOO++++oooo@@@@####                ",
"                ....XXXXOOOOOOOO++++oooo@@@@####                ",
"                ....XXXXOOOOOOOO++++oooo@@@@####                ",
"            ....XXXXOOOO++++++++oooo++++OOOO@@@@####            ",
"            ....XXXXOOOO++++++++oooo++++OOOO@@@@####            ",
"            ....XXXXOOOO++++++++oooo++++OOOO@@@@####            ",
"            ....XXXXOOOO++++++++oooo++++OOOO@@@@####            ",
"            ....XXXXOOOOXXXXooooXXXXooooOOOOOOOO####            ",
"            ....XXXXOOOOXXXXooooXXXXooooOOOOOOOO####            ",
"            ....XXXXOOOOXXXXooooXXXXooooOOOOOOOO####            ",
"            ....XXXXOOOOXXXXooooXXXXooooOOOOOOOO####            ",
"        ....XXXXOOOOXXXXOOOOOOOO++++++++$$$$@@@@$$$$####        ",
"        ....XXXXOOOOXXXXOOOOOOOO++++++++$$$$@@@@$$$$####        ",
"        ....XXXXOOOOXXXXOOOOOOOO++++++++$$$$@@@@$$$$####        ",
"        ....XXXXOOOOXXXXOOOOOOOO++++++++$$$$@@@@$$$$####        ",
"        ....XXXXOOOOooooOOOO++++++++++++%%%%@@@@$$$$####        ",
"        ....XXXXOOOOooooOOOO++++++++++++%%%%@@@@$$$$####        ",
"        ....XXXXOOOOooooOOOO++++++++++++%%%%@@@@$$$$####        ",
"        ....XXXXOOOOooooOOOO++++++++++++%%%%@@@@$$$$####        ",
"        ....XXXXXXXX@@@@++++++++++++OOOO%%%%$$$$$$$$####        ",
"        ....XXXXXXXX@@@@++++++++++++OOOO%%%%$$$$$$$$####        ",
"        ....XXXXXXXX@@@@++++++++++++OOOO%%%%$$$$$$$$####        ",
"        ....XXXXXXXX@@@@++++++++++++OOOO%%%%$$$$$$$$####        ",
"        ....ooooOOOOOOOO$$$$$$$$$$$$$$$$@@@@@@@@%%%%####        ",
"        ....ooooOOOOOOOO$$$$$$$$$$$$$$$$@@@@@@@@%%%%####        ",
"        ....ooooOOOOOOOO$$$$$$$$$$$$$$$$@@@@@@@@%%%%####        ",
"        ....ooooOOOOOOOO$$$$$$$$$$$$$$$$@@@@@@@@%%%%####        ",
"            ####OOOO$$$$@@@@@@@@@@@@@@@@$$$$@@@@####            ",
"            ####OOOO$$$$@@@@@@@@@@@@@@@@$$$$@@@@####            ",
"            ####OOOO$$$$@@@@@@@@@@@@@@@@$$$$@@@@####            ",
"            ####OOOO$$$$@@@@@@@@@@@@@@@@$$$$@@@@####            ",
"            ####&&&&$$$$@@@@@@@@@@@@@@@@$$$$++++####            ",
"            ####&&&&$$$$@@@@@@@@@@@@@@@@$$$$++++####            ",
"            ####&&&&$$$$@@@@@@@@@@@@@@@@$$$$++++####            ",
"            ####&&&&$$$$@@@@@@@@@@@@@@@@$$$$++++####            ",
"                ####%%%%OOOOOOOO++++++++@@@@####                ",
"                ####%%%%OOOOOOOO++++++++@@@@####                ",
"                ####%%%%OOOOOOOO++++++++@@@@####                ",
"                ####%%%%OOOOOOOO++++++++@@@@####                ",
"                    ########################                    ",
"                    ########################                    ",
"                    ########################                    ",
"                    ########################                    ",
"                                                                ",
"                                                                ",
"                                                                ",
"                                                                "
};
