/* XPM */
static char *d6412f3d8e05421fcd5020e972003496MWgJcKR410bcHUHA[] = {
/* columns rows colors chars-per-pixel */
"64 64 6 1 ",
"  c #B9855C",
". c #966C4A",
"X c #79553A",
"o c #593D29",
"O c gray53",
"+ c #6C6C6C",
/* pixels */
" .....XX..X...X..XX.....  ..X.XXXX.XXX..XXoXXXXoXX.XX.. ..X.... ",
"  ..X..XXX.....XXX.X..   . ..XX...XX...XX.XoXooooXX.   ....XX.  ",
".. ..XXXX. .XXoXoXX.  ... .X...X.X..XXXX. .XoooXXo   ...X.XX. . ",
" XX...X.  ...oooXX.    ...XXXX..XX...X.  ..XXXooX.. . XXXX.XX...",
"..XXX.  ..XXX.XooXX. .  .O..XXXXXoo.    ....X.XX. .....XXXXoooX.",
"...X...  ..oXXXX..XX....OOOO.XoXooXX.  . ....X..  ..XXX.XXoooXXX",
".XX. ...XXXoooXXX..XXX..+++OOOooXXXoX.. ..X.XXX. . ..XXXooXXXooX",
"X.    ...XoooXXoXXXXX.X.X+O+OooXX..XXX..XX.XXX.X...XX.ooo..XXXoo",
". .  .XXooXXooXoX.. .XXXX+oXoXX...  XXXXXXoXXooXX.XXooX.XX...XX.",
"..  ...XXooXXooX..   ..XoXooXX..  .. .X.ooXXooX.XXoooXXX..  ....",
". ...X..XXXXXoX.  ......XoXXX.  ...   .XXoooXX  ..Xo..X    . .X.",
"...XX..XXXXXXX...  ..XXX.XXX.    ...  ...XoXX.. .XoX.X..  ...XX.",
"..XX.XOO+.X.XXX..X..XXXoXXX.. . .XX... .XXX.  .. .X.X.   ..XX.XX",
"X...+OO+ ..XXXXXX.XXoooXXXX. ... .XX.X..X.   ......XX  .. XX...X",
".. .O+++. ...XX..XXoooXX.X.X.....X..XX.XXXX..XX..XXX..  ....XX.X",
".X ..O+X.    .XX..oX......XXX......XXXXXXoXX..XXX.X.X......XoXX.",
"XX. ..XXX.. .  .XXX.X..XXX.X...XX.....XooXoXXO.XXXoo.XXXX.XXXo..",
"XX..XX.XX...  .XXXXX..  XXXoXX..XX...XXXooXXOO++XXXooXX..XXoooX.",
"X.XX.XX..XX......X.   ....XXo.XX...XXXooXXX+O+O+XooXXX..XooooXXX",
"XXX.XX..XX....X.XXX. ....XooooXXX.XXXooXoX.+O++XooXXX.XX.XoXXXXX",
"XXXXXoXX...XXX.Xoo......XXXoXXooXXXXoXXoXXXX+oooX..X.XXXXoXXX..X",
".XXXoooXX...Xoooo.XX..X.X..XXXXoooXXXX.XXX.XoooX.XXoX.X.XXXXXX. ",
" ..oooXXXXX..XoXXX..XX.X..XX.XX.XXXX..X.XXX.XXXooXoXX...XXXX.  .",
"  ..XooX.XXXX.XX...X.XXXXX..XX. XX...XXX.X...XooooooXX. .XX...  ",
" ..Xo....X.XXXXXXOOXXXX..XX...  .  .XX..   .XoXXXooX..  .X.X. . ",
" .X.XX..XoX..XXXOO+OX..XXXXX...  .XXoXX..     XXooXXX. ...XX  ..",
". .XXXXXoXXXXXX..+OO+.X.XooXX  .....oooX...  .  XXXX. . X.XX .X.",
"X...XoX.XX.X.X..X+O+...XooXX..  ... XoXXX.  ...  .X.  ..XXX...XX",
".XXooXoX.XX...  ..++.  .XXoXoX...  .XXoo.X.. ....XX..  ..X.X...X",
"..XXooXXXX..      +.  ..XXooX...  ...XXooXX.....XXXX.X.XXXX..XX.",
".  XXXooX    ..  ..XX. ..oXoXX.XX..X..XX...XXX.X..XXX.XXX.....XX",
"..  Xoo. .  ..  ..XX.X..XXXXXoXX..XX.XX.. ..X.XXX..XXooX.X..oo.X",
".  . ..X..   ...XX...XXX..XooX.XX...X..  ....XXX.XXoooXXXXooX.X.",
". ....XX.X. .X.XX..X..X..XooXXo.XX.... .  .....XoXXXoXXXoXXooX..",
".. .XXX.XX....X..XXo..XXX.XXooXXX.X.X   .....XooXXooXXooooXXXXXX",
"X....XXXXXXX.XXX.XoX.XXoXXoooX.X..XX...  .XXoooXXoo..XXooXXX..XX",
".X..XXX.ooXXX.X.Xoo.XXXXoooX..X..X..XXX..XooXXXXo... .XXXo..  ..",
"X..XXX. .oooXXXXXXooXXoXXooo.XXXXoX..X..XXXoo.XX..    .XX..  ...",
"..oXX.  .XXoooXXXXXXooooXX..XXXooXXooXXXXoo..XX.  ....  XXX..   ",
"XoXXX . XooooXooX.XooXX.XXX..XooXXXXooX.XX..XX.  ....  .XXXX.. .",
"ooXX. .. XoXXoo..X.  ..XX...  XXoXooXXXX..XXoX.. ..  ..XXOX..X.X",
"Xoo... ...Xo.XXX..  ..X...   ..XXooX.X. ...XooX.. ..  XXOOO+X.XX",
"XXX.X. .XX..XX..   .  ..  ...  .ooXXX...   .XoXX......X.+O+O++X.",
".XXXXX..X..XX.  .    .. .  .  ..XoX...  ..  XoX..X...X..X+O++X. ",
" ..XXX.XXXX..  ...... .....XX..X.OOX. .  ..XXXooXXX..XX.XX++.XX.",
"  ..XoXXoXXX... ....   ..X..XX..OOOO....  ..XXXooX..XXXX.XXXX..X",
" .XXoXXoXooXXXX.... ..  X.XX..XOO+O.......XX..XXXooX..XXXXooXX..",
"..XXXXXXooXXX.XX....... .XXXX..++O+X...X...XX..XooXoX..XXXXoooX.",
".X.XooooXX.X......X..... ..XXXXX++X.XXX.....XXXXXXXXXXX.XX...Xoo",
"XXXXXoXXXXX..XX..XXX.X....XXX.X..+XXXX...X.XXXXX..XX..XX....Xoo.",
"X.XXXX.  ..oo.XX..XXX.......XX..XXXX...XXXX...X..XXXX..... .  .X",
"XX.X.. .  XXooX..XX......  ...XXoXX..XX...XX...XXXoXXX..  ...  .",
".X.XX.. ...XXXooXXXX.XX....   ..XooXX...  ...XoXoo..X.   ..  .X.",
"X.XX..   .X.XoXooX.XoX..XX.. ....XooXXo..  .XXXoo..X. . .....XXX",
".XXXXX..XXXoo.XXXoX..ooX..XX...X..XXooXXX.. .ooXXXX......XX...X.",
"...XX..XXXooXX..XX..X.ooX.X...XoXX.XXooX....ooXoXXXX.X..XX.....X",
"..XXXoXXooXXX..XXXooXXXXXX.XXooXX.  XXooX.ooXXXX..XXXX.X...XX...",
".X.XXXoooooXXXXXXooXooXXXXXooo..   . ooX.XXooX...X..X.XX....XXX.",
"XXX..ooXXoXX.XX..XXXXoooXXXXo..  .......XXoX...XX..XooX.X..X.XXX",
"XX..XXXoXX... ..XXXXoooXoOOXXoX.  .. ..XXooXX...XXXXXooXX.XXXXoo",
"X.XXXXXXX. .   ....XXoXXOOOO++XX..  .XXooXXXXooXXX...XXoXX.XooXX",
".XXX..X.     ..  ...XXoOOO+++X.XX..  ..XooXXooXX....XXX.XXXooX.X",
" ..XXX.  .. ..X..X.X..XXO+O+XXX..XXX..X.XXooXXX..XXXX.....oXooX.",
". ..XXX... ..XXX..XXX..XX+.XXX..XXX..XXX.XXooXXX..XX.XX..X..XX.."
};
