/* XPM */
static char * nether_portal64_xpm[] = {
"64 64 126 2",
"  	c #4B02BB",
". 	c #6B11CE",
"+ 	c #7316D1",
"@ 	c #650ECB",
"# 	c #610BC9",
"$ 	c #4701B7",
"% 	c #4801B8",
"& 	c #640DCA",
"* 	c #5104BF",
"= 	c #3E00AD",
"- 	c #620CC9",
"; 	c #8224D8",
"> 	c #3800A4",
", 	c #3C00AB",
"' 	c #5505C1",
") 	c #9D43E2",
"! 	c #8729DA",
"~ 	c #660ECB",
"{ 	c #8A2CDB",
"] 	c #7518D2",
"^ 	c #3A00A7",
"/ 	c #3B00A9",
"( 	c #5004BF",
"_ 	c #4200B2",
": 	c #5004BE",
"< 	c #4A02B9",
"[ 	c #4100B2",
"} 	c #4E03BC",
"| 	c #5405C1",
"1 	c #7A1DD5",
"2 	c #9C42E2",
"3 	c #6910CD",
"4 	c #4000B0",
"5 	c #3900A5",
"6 	c #771AD3",
"7 	c #781BD4",
"8 	c #5506C2",
"9 	c #650DCB",
"0 	c #6E13CF",
"a 	c #3700A1",
"b 	c #4F03BE",
"c 	c #6F14D0",
"d 	c #4D03BC",
"e 	c #6C12CE",
"f 	c #3D00AD",
"g 	c #5706C3",
"h 	c #670FCC",
"i 	c #7216D1",
"j 	c #4802B8",
"k 	c #5806C3",
"l 	c #9E44E2",
"m 	c #3E00AE",
"n 	c #5D09C6",
"o 	c #3B00AA",
"p 	c #4E03BD",
"q 	c #3800A3",
"r 	c #3800A2",
"s 	c #8526D9",
"t 	c #3900A6",
"u 	c #4100B1",
"v 	c #7D1FD6",
"w 	c #4501B5",
"x 	c #3D00AC",
"y 	c #620BC9",
"z 	c #973AE0",
"A 	c #630CCA",
"B 	c #4902B9",
"C 	c #37009F",
"D 	c #7317D1",
"E 	c #7C1ED6",
"F 	c #3A00A8",
"G 	c #5204C0",
"H 	c #882ADA",
"I 	c #5B08C5",
"J 	c #5E0AC7",
"K 	c #4601B6",
"L 	c #5E09C7",
"M 	c #3F00AF",
"N 	c #610BC8",
"O 	c #6F14CF",
"P 	c #5807C3",
"Q 	c #7115D1",
"R 	c #4401B5",
"S 	c #5B08C6",
"T 	c #9A3EE1",
"U 	c #5A08C5",
"V 	c #4401B4",
"W 	c #8325D8",
"X 	c #7C1FD6",
"Y 	c #5305C0",
"Z 	c #7418D2",
"` 	c #7115D0",
" .	c #5D09C7",
"..	c #4601B7",
"+.	c #37009E",
"@.	c #8527D9",
"#.	c #4C02BB",
"$.	c #983CE0",
"%.	c #8728DA",
"&.	c #4200B3",
"*.	c #5807C4",
"=.	c #3C00AC",
"-.	c #973BE0",
";.	c #9134DE",
">.	c #7F21D7",
",.	c #5606C2",
"'.	c #8325D9",
").	c #8B2DDB",
"!.	c #7015D0",
"~.	c #8627D9",
"{.	c #4A02BA",
"].	c #8628D9",
"^.	c #9133DE",
"/.	c #37009D",
"(.	c #4300B3",
"_.	c #791CD4",
":.	c #892BDB",
"<.	c #3F00B0",
"[.	c #A64FE5",
"}.	c #7B1ED5",
"|.	c #4000B1",
"1.	c #8426D9",
"2.	c #6C11CE",
"3.	c #5003BE",
"4.	c #7B1DD5",
"5.	c #7317D2",
"        . . . . + + + + @ @ @ @ # # # # $ $ $ $ % % % % & & & & * * * * = = = = - - - - ; ; ; ; * * * * > > > > , , , , ' ' ' ' ",
"        . . . . + + + + @ @ @ @ # # # # $ $ $ $ % % % % & & & & * * * * = = = = - - - - ; ; ; ; * * * * > > > > , , , , ' ' ' ' ",
"        . . . . + + + + @ @ @ @ # # # # $ $ $ $ % % % % & & & & * * * * = = = = - - - - ; ; ; ; * * * * > > > > , , , , ' ' ' ' ",
"        . . . . + + + + @ @ @ @ # # # # $ $ $ $ % % % % & & & & * * * * = = = = - - - - ; ; ; ; * * * * > > > > , , , , ' ' ' ' ",
") ) ) ) ! ! ! ! ~ ~ ~ ~ { { { { ] ] ] ] ^ ^ ^ ^ / / / / ( ( ( ( _ _ _ _ > > > > : : : : < < < < [ [ [ [ % % % % } } } } | | | | ",
") ) ) ) ! ! ! ! ~ ~ ~ ~ { { { { ] ] ] ] ^ ^ ^ ^ / / / / ( ( ( ( _ _ _ _ > > > > : : : : < < < < [ [ [ [ % % % % } } } } | | | | ",
") ) ) ) ! ! ! ! ~ ~ ~ ~ { { { { ] ] ] ] ^ ^ ^ ^ / / / / ( ( ( ( _ _ _ _ > > > > : : : : < < < < [ [ [ [ % % % % } } } } | | | | ",
") ) ) ) ! ! ! ! ~ ~ ~ ~ { { { { ] ] ] ] ^ ^ ^ ^ / / / / ( ( ( ( _ _ _ _ > > > > : : : : < < < < [ [ [ [ % % % % } } } } | | | | ",
"1 1 1 1 . . . . 2 2 2 2 3 3 3 3 4 4 4 4 5 5 5 5 | | | | 6 6 6 6 7 7 7 7 8 8 8 8 9 9 9 9 0 0 0 0 _ _ _ _ a a a a b b b b c c c c ",
"1 1 1 1 . . . . 2 2 2 2 3 3 3 3 4 4 4 4 5 5 5 5 | | | | 6 6 6 6 7 7 7 7 8 8 8 8 9 9 9 9 0 0 0 0 _ _ _ _ a a a a b b b b c c c c ",
"1 1 1 1 . . . . 2 2 2 2 3 3 3 3 4 4 4 4 5 5 5 5 | | | | 6 6 6 6 7 7 7 7 8 8 8 8 9 9 9 9 0 0 0 0 _ _ _ _ a a a a b b b b c c c c ",
"1 1 1 1 . . . . 2 2 2 2 3 3 3 3 4 4 4 4 5 5 5 5 | | | | 6 6 6 6 7 7 7 7 8 8 8 8 9 9 9 9 0 0 0 0 _ _ _ _ a a a a b b b b c c c c ",
"d d d d @ @ @ @ e e e e f f f f 5 5 5 5 g g g g { { { { h h h h i i i i j j j j k k k k l l l l 9 9 9 9 m m m m > > > > n n n n ",
"d d d d @ @ @ @ e e e e f f f f 5 5 5 5 g g g g { { { { h h h h i i i i j j j j k k k k l l l l 9 9 9 9 m m m m > > > > n n n n ",
"d d d d @ @ @ @ e e e e f f f f 5 5 5 5 g g g g { { { { h h h h i i i i j j j j k k k k l l l l 9 9 9 9 m m m m > > > > n n n n ",
"d d d d @ @ @ @ e e e e f f f f 5 5 5 5 g g g g { { { { h h h h i i i i j j j j k k k k l l l l 9 9 9 9 m m m m > > > > n n n n ",
"o o o o p p p p q q q q r r r r @ @ @ @ s s s s & & & & t t t t _ _ _ _ u u u u t t t t g g g g v v v v ~ ~ ~ ~ m m m m 5 5 5 5 ",
"o o o o p p p p q q q q r r r r @ @ @ @ s s s s & & & & t t t t _ _ _ _ u u u u t t t t g g g g v v v v ~ ~ ~ ~ m m m m 5 5 5 5 ",
"o o o o p p p p q q q q r r r r @ @ @ @ s s s s & & & & t t t t _ _ _ _ u u u u t t t t g g g g v v v v ~ ~ ~ ~ m m m m 5 5 5 5 ",
"o o o o p p p p q q q q r r r r @ @ @ @ s s s s & & & & t t t t _ _ _ _ u u u u t t t t g g g g v v v v ~ ~ ~ ~ m m m m 5 5 5 5 ",
"4 4 4 4 w w w w x x x x y y y y z z z z A A A A ^ ^ ^ ^ > > > > t t t t B B B B ^ ^ ^ ^ C C C C * * * * ! ! ! ! D D D D t t t t ",
"4 4 4 4 w w w w x x x x y y y y z z z z A A A A ^ ^ ^ ^ > > > > t t t t B B B B ^ ^ ^ ^ C C C C * * * * ! ! ! ! D D D D t t t t ",
"4 4 4 4 w w w w x x x x y y y y z z z z A A A A ^ ^ ^ ^ > > > > t t t t B B B B ^ ^ ^ ^ C C C C * * * * ! ! ! ! D D D D t t t t ",
"4 4 4 4 w w w w x x x x y y y y z z z z A A A A ^ ^ ^ ^ > > > > t t t t B B B B ^ ^ ^ ^ C C C C * * * * ! ! ! ! D D D D t t t t ",
"E E E E 9 9 9 9 : : : : { { { { + + + + F F F F F F F F B B B B < < < < G G G G n n n n 4 4 4 4 t t t t | | | | H H H H I I I I ",
"E E E E 9 9 9 9 : : : : { { { { + + + + F F F F F F F F B B B B < < < < G G G G n n n n 4 4 4 4 t t t t | | | | H H H H I I I I ",
"E E E E 9 9 9 9 : : : : { { { { + + + + F F F F F F F F B B B B < < < < G G G G n n n n 4 4 4 4 t t t t | | | | H H H H I I I I ",
"E E E E 9 9 9 9 : : : : { { { { + + + + F F F F F F F F B B B B < < < < G G G G n n n n 4 4 4 4 t t t t | | | | H H H H I I I I ",
"J J J J K K K K u u u u L L L L p p p p M M M M $ $ $ $ m m m m 0 0 0 0 N N N N O O O O . . . . o o o o F F F F         P P P P ",
"J J J J K K K K u u u u L L L L p p p p M M M M $ $ $ $ m m m m 0 0 0 0 N N N N O O O O . . . . o o o o F F F F         P P P P ",
"J J J J K K K K u u u u L L L L p p p p M M M M $ $ $ $ m m m m 0 0 0 0 N N N N O O O O . . . . o o o o F F F F         P P P P ",
"J J J J K K K K u u u u L L L L p p p p M M M M $ $ $ $ m m m m 0 0 0 0 N N N N O O O O . . . . o o o o F F F F         P P P P ",
"Q Q Q Q b b b b R R R R S S S S d d d d B B B B R R R R q q q q Q Q Q Q { { { { T T T T | | | | m m m m F F F F 3 3 3 3 - - - - ",
"Q Q Q Q b b b b R R R R S S S S d d d d B B B B R R R R q q q q Q Q Q Q { { { { T T T T | | | | m m m m F F F F 3 3 3 3 - - - - ",
"Q Q Q Q b b b b R R R R S S S S d d d d B B B B R R R R q q q q Q Q Q Q { { { { T T T T | | | | m m m m F F F F 3 3 3 3 - - - - ",
"Q Q Q Q b b b b R R R R S S S S d d d d B B B B R R R R q q q q Q Q Q Q { { { { T T T T | | | | m m m m F F F F 3 3 3 3 - - - - ",
"U U U U V V V V : : : : W W W W X X X X 4 4 4 4 , , , ,         Y Y Y Y Z Z Z Z 0 0 0 0 ` ` ` `  . . . .$ $ $ $ 8 8 8 8 * * * * ",
"U U U U V V V V : : : : W W W W X X X X 4 4 4 4 , , , ,         Y Y Y Y Z Z Z Z 0 0 0 0 ` ` ` `  . . . .$ $ $ $ 8 8 8 8 * * * * ",
"U U U U V V V V : : : : W W W W X X X X 4 4 4 4 , , , ,         Y Y Y Y Z Z Z Z 0 0 0 0 ` ` ` `  . . . .$ $ $ $ 8 8 8 8 * * * * ",
"U U U U V V V V : : : : W W W W X X X X 4 4 4 4 , , , ,         Y Y Y Y Z Z Z Z 0 0 0 0 ` ` ` `  . . . .$ $ $ $ 8 8 8 8 * * * * ",
"........4 4 4 4 +.+.+.+.d d d d @.@.@.@.H H H H d d d d #.#.#.#.0 0 0 0 - - - - $.$.$.$.%.%.%.%._ _ _ _ t t t t $ $ $ $ &.&.&.&.",
"........4 4 4 4 +.+.+.+.d d d d @.@.@.@.H H H H d d d d #.#.#.#.0 0 0 0 - - - - $.$.$.$.%.%.%.%._ _ _ _ t t t t $ $ $ $ &.&.&.&.",
"........4 4 4 4 +.+.+.+.d d d d @.@.@.@.H H H H d d d d #.#.#.#.0 0 0 0 - - - - $.$.$.$.%.%.%.%._ _ _ _ t t t t $ $ $ $ &.&.&.&.",
"........4 4 4 4 +.+.+.+.d d d d @.@.@.@.H H H H d d d d #.#.#.#.0 0 0 0 - - - - $.$.$.$.%.%.%.%._ _ _ _ t t t t $ $ $ $ &.&.&.&.",
"*.*.*.*.` ` ` ` _ _ _ _ =.=.=.=.*.*.*.*.-.-.-.-.;.;.;.;.| | | | & & & & ;.;.;.;.>.>.>.>.K K K K > > > > d d d d H H H H ,.,.,.,.",
"*.*.*.*.` ` ` ` _ _ _ _ =.=.=.=.*.*.*.*.-.-.-.-.;.;.;.;.| | | | & & & & ;.;.;.;.>.>.>.>.K K K K > > > > d d d d H H H H ,.,.,.,.",
"*.*.*.*.` ` ` ` _ _ _ _ =.=.=.=.*.*.*.*.-.-.-.-.;.;.;.;.| | | | & & & & ;.;.;.;.>.>.>.>.K K K K > > > > d d d d H H H H ,.,.,.,.",
"*.*.*.*.` ` ` ` _ _ _ _ =.=.=.=.*.*.*.*.-.-.-.-.;.;.;.;.| | | | & & & & ;.;.;.;.>.>.>.>.K K K K > > > > d d d d H H H H ,.,.,.,.",
"| | | | { { { { '.'.'.'.w w w w x x x x < < < < ).).).).i i i i !.!.!.!.~.~.~.~.{.{.{.{.r r r r b b b b ].].].].^.^.^.^.G G G G ",
"| | | | { { { { '.'.'.'.w w w w x x x x < < < < ).).).).i i i i !.!.!.!.~.~.~.~.{.{.{.{.r r r r b b b b ].].].].^.^.^.^.G G G G ",
"| | | | { { { { '.'.'.'.w w w w x x x x < < < < ).).).).i i i i !.!.!.!.~.~.~.~.{.{.{.{.r r r r b b b b ].].].].^.^.^.^.G G G G ",
"| | | | { { { { '.'.'.'.w w w w x x x x < < < < ).).).).i i i i !.!.!.!.~.~.~.~.{.{.{.{.r r r r b b b b ].].].].^.^.^.^.G G G G ",
"B B B B         { { { { W W W W _ _ _ _ /./././.p p p p b b b b g g g g (.(.(.(.> > > > d d d d _._._._.:.:.:.:.........<.<.<.<.",
"B B B B         { { { { W W W W _ _ _ _ /./././.p p p p b b b b g g g g (.(.(.(.> > > > d d d d _._._._.:.:.:.:.........<.<.<.<.",
"B B B B         { { { { W W W W _ _ _ _ /./././.p p p p b b b b g g g g (.(.(.(.> > > > d d d d _._._._.:.:.:.:.........<.<.<.<.",
"B B B B         { { { { W W W W _ _ _ _ /./././.p p p p b b b b g g g g (.(.(.(.> > > > d d d d _._._._.:.:.:.:.........<.<.<.<.",
"$ $ $ $ R R R R J J J J [.[.[.[.}.}.}.}.|.|.|.|.f f f f b b b b d d d d ^ ^ ^ ^ K K K K 1.1.1.1.!.!.!.!.&.&.&.&.q q q q (.(.(.(.",
"$ $ $ $ R R R R J J J J [.[.[.[.}.}.}.}.|.|.|.|.f f f f b b b b d d d d ^ ^ ^ ^ K K K K 1.1.1.1.!.!.!.!.&.&.&.&.q q q q (.(.(.(.",
"$ $ $ $ R R R R J J J J [.[.[.[.}.}.}.}.|.|.|.|.f f f f b b b b d d d d ^ ^ ^ ^ K K K K 1.1.1.1.!.!.!.!.&.&.&.&.q q q q (.(.(.(.",
"$ $ $ $ R R R R J J J J [.[.[.[.}.}.}.}.|.|.|.|.f f f f b b b b d d d d ^ ^ ^ ^ K K K K 1.1.1.1.!.!.!.!.&.&.&.&.q q q q (.(.(.(.",
"C C C C ' ' ' ' N N N N 3 3 3 3 2.2.2.2.| | | | 3.3.3.3.4.4.4.4.3 3 3 3 p p p p + + + + 5.5.5.5.|.|.|.|.^ ^ ^ ^ _ _ _ _ |.|.|.|.",
"C C C C ' ' ' ' N N N N 3 3 3 3 2.2.2.2.| | | | 3.3.3.3.4.4.4.4.3 3 3 3 p p p p + + + + 5.5.5.5.|.|.|.|.^ ^ ^ ^ _ _ _ _ |.|.|.|.",
"C C C C ' ' ' ' N N N N 3 3 3 3 2.2.2.2.| | | | 3.3.3.3.4.4.4.4.3 3 3 3 p p p p + + + + 5.5.5.5.|.|.|.|.^ ^ ^ ^ _ _ _ _ |.|.|.|.",
"C C C C ' ' ' ' N N N N 3 3 3 3 2.2.2.2.| | | | 3.3.3.3.4.4.4.4.3 3 3 3 p p p p + + + + 5.5.5.5.|.|.|.|.^ ^ ^ ^ _ _ _ _ |.|.|.|."};
