/* XPM */
static char * portal7_xpm[] = {
"64 64 118 2",
"  	c #4501B5",
". 	c #8022D7",
"+ 	c #5305C0",
"@ 	c #4301B4",
"# 	c #4701B7",
"$ 	c #5004BE",
"% 	c #6E13CF",
"& 	c #4300B3",
"* 	c #5204C0",
"= 	c #3F00AF",
"- 	c #3C00AB",
"; 	c #6D12CF",
"> 	c #8728DA",
", 	c #5104BF",
"' 	c #37009E",
") 	c #4000B0",
"! 	c #4802B8",
"~ 	c #4601B7",
"{ 	c #3800A4",
"] 	c #680FCC",
"^ 	c #5F0AC8",
"/ 	c #4C03BC",
"( 	c #3800A2",
"_ 	c #4601B6",
": 	c #4801B8",
"< 	c #3D00AD",
"[ 	c #5807C3",
"} 	c #5E09C7",
"| 	c #5907C4",
"1 	c #630CCA",
"2 	c #8527D9",
"3 	c #4B02BB",
"4 	c #5A07C4",
"5 	c #5C08C6",
"6 	c #5405C1",
"7 	c #4902B9",
"8 	c #3900A5",
"9 	c #5706C3",
"0 	c #600BC8",
"a 	c #7D1FD6",
"b 	c #670ECC",
"c 	c #640DCA",
"d 	c #4A02BA",
"e 	c #8123D8",
"f 	c #660ECB",
"g 	c #5806C3",
"h 	c #7619D3",
"i 	c #610BC9",
"j 	c #5204BF",
"k 	c #7B1DD5",
"l 	c #5E0AC7",
"m 	c #5506C2",
"n 	c #3E00AE",
"o 	c #4E03BC",
"p 	c #4D03BC",
"q 	c #5B08C5",
"r 	c #6D13CF",
"s 	c #5D09C6",
"t 	c #6C12CE",
"u 	c #5505C1",
"v 	c #7C1ED6",
"w 	c #4100B2",
"x 	c #7014D0",
"y 	c #7116D1",
"z 	c #4100B1",
"A 	c #37009C",
"B 	c #4401B5",
"C 	c #4200B3",
"D 	c #37009D",
"E 	c #791CD4",
"F 	c #973AE0",
"G 	c #4501B6",
"H 	c #3900A6",
"I 	c #3E00AD",
"J 	c #4000B1",
"K 	c #4F03BE",
"L 	c #7519D3",
"M 	c #8425D9",
"N 	c #5606C2",
"O 	c #7115D0",
"P 	c #7418D2",
"Q 	c #7C1FD6",
"R 	c #8426D9",
"S 	c #600AC8",
"T 	c #9B40E1",
"U 	c #5A08C5",
"V 	c #3D00AC",
"W 	c #892BDB",
"X 	c #5505C2",
"Y 	c #4F03BD",
"Z 	c #7216D1",
"` 	c #9F45E3",
" .	c #A54DE5",
"..	c #771AD3",
"+.	c #4E03BD",
"@.	c #6910CD",
"#.	c #3A00A7",
"$.	c #5C09C6",
"%.	c #781BD4",
"&.	c #7518D2",
"*.	c #610BC8",
"=.	c #4C02BB",
"-.	c #4B02BA",
";.	c #3B00AA",
">.	c #9538DF",
",.	c #37009F",
"'.	c #6F14D0",
").	c #630CC9",
"!.	c #8C2FDC",
"~.	c #7015D0",
"{.	c #8325D8",
"].	c #6B11CE",
"^.	c #A44CE4",
"/.	c #5F0AC7",
"(.	c #3B00A9",
"_.	c #8223D8",
":.	c #A34AE4",
"<.	c #3C00AA",
"        . . . . + + + + @ @ @ @ # # # # $ $ $ $ % % % % & & & & * * * * = = = = - - - - ; ; ; ; > > > > , , , , ' ' ' ' ) ) ) ) ",
"        . . . . + + + + @ @ @ @ # # # # $ $ $ $ % % % % & & & & * * * * = = = = - - - - ; ; ; ; > > > > , , , , ' ' ' ' ) ) ) ) ",
"        . . . . + + + + @ @ @ @ # # # # $ $ $ $ % % % % & & & & * * * * = = = = - - - - ; ; ; ; > > > > , , , , ' ' ' ' ) ) ) ) ",
"        . . . . + + + + @ @ @ @ # # # # $ $ $ $ % % % % & & & & * * * * = = = = - - - - ; ; ; ; > > > > , , , , ' ' ' ' ) ) ) ) ",
"! ! ! ! ~ ~ ~ ~ @ @ @ @ # # # # # # # # @ @ @ @ $ $ $ $ { { { { * * * * # # # # { { { { # # # # ] ] ] ] ^ ^ ^ ^ / / / / { { { { ",
"! ! ! ! ~ ~ ~ ~ @ @ @ @ # # # # # # # # @ @ @ @ $ $ $ $ { { { { * * * * # # # # { { { { # # # # ] ] ] ] ^ ^ ^ ^ / / / / { { { { ",
"! ! ! ! ~ ~ ~ ~ @ @ @ @ # # # # # # # # @ @ @ @ $ $ $ $ { { { { * * * * # # # # { { { { # # # # ] ] ] ] ^ ^ ^ ^ / / / / { { { { ",
"! ! ! ! ~ ~ ~ ~ @ @ @ @ # # # # # # # # @ @ @ @ $ $ $ $ { { { { * * * * # # # # { { { { # # # # ] ] ] ] ^ ^ ^ ^ / / / / { { { { ",
") ) ) ) ( ( ( ( _ _ _ _ : : : : < < < < [ [ [ [ } } } } | | | | 1 1 1 1 2 2 2 2 3 3 3 3 4 4 4 4 5 5 5 5 6 6 6 6 7 7 7 7 & & & & ",
") ) ) ) ( ( ( ( _ _ _ _ : : : : < < < < [ [ [ [ } } } } | | | | 1 1 1 1 2 2 2 2 3 3 3 3 4 4 4 4 5 5 5 5 6 6 6 6 7 7 7 7 & & & & ",
") ) ) ) ( ( ( ( _ _ _ _ : : : : < < < < [ [ [ [ } } } } | | | | 1 1 1 1 2 2 2 2 3 3 3 3 4 4 4 4 5 5 5 5 6 6 6 6 7 7 7 7 & & & & ",
") ) ) ) ( ( ( ( _ _ _ _ : : : : < < < < [ [ [ [ } } } } | | | | 1 1 1 1 2 2 2 2 3 3 3 3 4 4 4 4 5 5 5 5 6 6 6 6 7 7 7 7 & & & & ",
"8 8 8 8 & & & & 9 9 9 9 7 7 7 7 0 0 0 0 a a a a b b b b c c c c d d d d e e e e f f f f g g g g h h h h i i i i j j j j [ [ [ [ ",
"8 8 8 8 & & & & 9 9 9 9 7 7 7 7 0 0 0 0 a a a a b b b b c c c c d d d d e e e e f f f f g g g g h h h h i i i i j j j j [ [ [ [ ",
"8 8 8 8 & & & & 9 9 9 9 7 7 7 7 0 0 0 0 a a a a b b b b c c c c d d d d e e e e f f f f g g g g h h h h i i i i j j j j [ [ [ [ ",
"8 8 8 8 & & & & 9 9 9 9 7 7 7 7 0 0 0 0 a a a a b b b b c c c c d d d d e e e e f f f f g g g g h h h h i i i i j j j j [ [ [ [ ",
"9 9 9 9 k k k k ] ] ] ] 5 5 5 5 ; ; ; ; l l l l m m m m c c c c n n n n ) ) ) ) o o o o p p p p q q q q r r r r s s s s t t t t ",
"9 9 9 9 k k k k ] ] ] ] 5 5 5 5 ; ; ; ; l l l l m m m m c c c c n n n n ) ) ) ) o o o o p p p p q q q q r r r r s s s s t t t t ",
"9 9 9 9 k k k k ] ] ] ] 5 5 5 5 ; ; ; ; l l l l m m m m c c c c n n n n ) ) ) ) o o o o p p p p q q q q r r r r s s s s t t t t ",
"9 9 9 9 k k k k ] ] ] ] 5 5 5 5 ; ; ; ; l l l l m m m m c c c c n n n n ) ) ) ) o o o o p p p p q q q q r r r r s s s s t t t t ",
"u u u u v v v v : : : : w w w w $ $ $ $ x x x x y y y y z z z z ) ) ) ) A A A A         _ _ _ _ B B B B + + + + * * * * C C C C ",
"u u u u v v v v : : : : w w w w $ $ $ $ x x x x y y y y z z z z ) ) ) ) A A A A         _ _ _ _ B B B B + + + + * * * * C C C C ",
"u u u u v v v v : : : : w w w w $ $ $ $ x x x x y y y y z z z z ) ) ) ) A A A A         _ _ _ _ B B B B + + + + * * * * C C C C ",
"u u u u v v v v : : : : w w w w $ $ $ $ x x x x y y y y z z z z ) ) ) ) A A A A         _ _ _ _ B B B B + + + + * * * * C C C C ",
"8 8 8 8 7 7 7 7 D D D D = = = = E E E E F F F F p p p p 8 8 8 8 ) ) ) ) G G G G H H H H I I I I , , , , t t t t 7 7 7 7 8 8 8 8 ",
"8 8 8 8 7 7 7 7 D D D D = = = = E E E E F F F F p p p p 8 8 8 8 ) ) ) ) G G G G H H H H I I I I , , , , t t t t 7 7 7 7 8 8 8 8 ",
"8 8 8 8 7 7 7 7 D D D D = = = = E E E E F F F F p p p p 8 8 8 8 ) ) ) ) G G G G H H H H I I I I , , , , t t t t 7 7 7 7 8 8 8 8 ",
"8 8 8 8 7 7 7 7 D D D D = = = = E E E E F F F F p p p p 8 8 8 8 ) ) ) ) G G G G H H H H I I I I , , , , t t t t 7 7 7 7 8 8 8 8 ",
"J J J J K K K K { { { { ) ) ) ) L L L L M M M M N N N N 7 7 7 7 O O O O , , , , m m m m # # # # { { { {         K K K K { { { { ",
"J J J J K K K K { { { { ) ) ) ) L L L L M M M M N N N N 7 7 7 7 O O O O , , , , m m m m # # # # { { { {         K K K K { { { { ",
"J J J J K K K K { { { { ) ) ) ) L L L L M M M M N N N N 7 7 7 7 O O O O , , , , m m m m # # # # { { { {         K K K K { { { { ",
"J J J J K K K K { { { { ) ) ) ) L L L L M M M M N N N N 7 7 7 7 O O O O , , , , m m m m # # # # { { { {         K K K K { { { { ",
"q q q q P P P P + + + + n n n n + + + + Q Q Q Q R R R R S S S S ] ] ] ] T T T T U U U U 8 8 8 8 V V V V % % % % W W W W 6 6 6 6 ",
"q q q q P P P P + + + + n n n n + + + + Q Q Q Q R R R R S S S S ] ] ] ] T T T T U U U U 8 8 8 8 V V V V % % % % W W W W 6 6 6 6 ",
"q q q q P P P P + + + + n n n n + + + + Q Q Q Q R R R R S S S S ] ] ] ] T T T T U U U U 8 8 8 8 V V V V % % % % W W W W 6 6 6 6 ",
"q q q q P P P P + + + + n n n n + + + + Q Q Q Q R R R R S S S S ] ] ] ] T T T T U U U U 8 8 8 8 V V V V % % % % W W W W 6 6 6 6 ",
"- - - - X X X X g g g g Y Y Y Y 5 5 5 5 s s s s Z Z Z Z ` ` ` `  . . . .........B B B B # # # # +.+.+.+.@.@.@.@.j j j j #.#.#.#.",
"- - - - X X X X g g g g Y Y Y Y 5 5 5 5 s s s s Z Z Z Z ` ` ` `  . . . .........B B B B # # # # +.+.+.+.@.@.@.@.j j j j #.#.#.#.",
"- - - - X X X X g g g g Y Y Y Y 5 5 5 5 s s s s Z Z Z Z ` ` ` `  . . . .........B B B B # # # # +.+.+.+.@.@.@.@.j j j j #.#.#.#.",
"- - - - X X X X g g g g Y Y Y Y 5 5 5 5 s s s s Z Z Z Z ` ` ` `  . . . .........B B B B # # # # +.+.+.+.@.@.@.@.j j j j #.#.#.#.",
"H H H H & & & & +.+.+.+.n n n n , , , , $.$.$.$.+.+.+.+.%.%.%.%.&.&.&.&.: : : : p p p p d d d d J J J J j j j j _ _ _ _ ( ( ( ( ",
"H H H H & & & & +.+.+.+.n n n n , , , , $.$.$.$.+.+.+.+.%.%.%.%.&.&.&.&.: : : : p p p p d d d d J J J J j j j j _ _ _ _ ( ( ( ( ",
"H H H H & & & & +.+.+.+.n n n n , , , , $.$.$.$.+.+.+.+.%.%.%.%.&.&.&.&.: : : : p p p p d d d d J J J J j j j j _ _ _ _ ( ( ( ( ",
"H H H H & & & & +.+.+.+.n n n n , , , , $.$.$.$.+.+.+.+.%.%.%.%.&.&.&.&.: : : : p p p p d d d d J J J J j j j j _ _ _ _ ( ( ( ( ",
"*.*.*.*.=.=.=.=.[ [ [ [ G G G G - - - - +.+.+.+.-.-.-.-.;.;.;.;.- - - - & & & & / / / / J J J J $ $ $ $ ; ; ; ; $ $ $ $ 1 1 1 1 ",
"*.*.*.*.=.=.=.=.[ [ [ [ G G G G - - - - +.+.+.+.-.-.-.-.;.;.;.;.- - - - & & & & / / / / J J J J $ $ $ $ ; ; ; ; $ $ $ $ 1 1 1 1 ",
"*.*.*.*.=.=.=.=.[ [ [ [ G G G G - - - - +.+.+.+.-.-.-.-.;.;.;.;.- - - - & & & & / / / / J J J J $ $ $ $ ; ; ; ; $ $ $ $ 1 1 1 1 ",
"*.*.*.*.=.=.=.=.[ [ [ [ G G G G - - - - +.+.+.+.-.-.-.-.;.;.;.;.- - - - & & & & / / / / J J J J $ $ $ $ ; ; ; ; $ $ $ $ 1 1 1 1 ",
">.>.>.>.x x x x i i i i 6 6 6 6 7 7 7 7 $ $ $ $ [ [ [ [ ,.,.,.,.( ( ( ( 6 6 6 6 B B B B K K K K '.'.'.'.t t t t ).).).).>.>.>.>.",
">.>.>.>.x x x x i i i i 6 6 6 6 7 7 7 7 $ $ $ $ [ [ [ [ ,.,.,.,.( ( ( ( 6 6 6 6 B B B B K K K K '.'.'.'.t t t t ).).).).>.>.>.>.",
">.>.>.>.x x x x i i i i 6 6 6 6 7 7 7 7 $ $ $ $ [ [ [ [ ,.,.,.,.( ( ( ( 6 6 6 6 B B B B K K K K '.'.'.'.t t t t ).).).).>.>.>.>.",
">.>.>.>.x x x x i i i i 6 6 6 6 7 7 7 7 $ $ $ $ [ [ [ [ ,.,.,.,.( ( ( ( 6 6 6 6 B B B B K K K K '.'.'.'.t t t t ).).).).>.>.>.>.",
"1 1 1 1 !.!.!.!.~.~.~.~.$ $ $ $ K K K K s s s s {.{.{.{.| | | | 4 4 4 4 ].].].].+.+.+.+.U U U U l l l l 5 5 5 5 O O O O 1 1 1 1 ",
"1 1 1 1 !.!.!.!.~.~.~.~.$ $ $ $ K K K K s s s s {.{.{.{.| | | | 4 4 4 4 ].].].].+.+.+.+.U U U U l l l l 5 5 5 5 O O O O 1 1 1 1 ",
"1 1 1 1 !.!.!.!.~.~.~.~.$ $ $ $ K K K K s s s s {.{.{.{.| | | | 4 4 4 4 ].].].].+.+.+.+.U U U U l l l l 5 5 5 5 O O O O 1 1 1 1 ",
"1 1 1 1 !.!.!.!.~.~.~.~.$ $ $ $ K K K K s s s s {.{.{.{.| | | | 4 4 4 4 ].].].].+.+.+.+.U U U U l l l l 5 5 5 5 O O O O 1 1 1 1 ",
"=.=.=.=.E E E E ^.^.^.^.U U U U #.#.#.#.< < < < O O O O | | | | s s s s N N N N V V V V $ $ $ $ /./././.........K K K K (.(.(.(.",
"=.=.=.=.E E E E ^.^.^.^.U U U U #.#.#.#.< < < < O O O O | | | | s s s s N N N N V V V V $ $ $ $ /./././.........K K K K (.(.(.(.",
"=.=.=.=.E E E E ^.^.^.^.U U U U #.#.#.#.< < < < O O O O | | | | s s s s N N N N V V V V $ $ $ $ /./././.........K K K K (.(.(.(.",
"=.=.=.=.E E E E ^.^.^.^.U U U U #.#.#.#.< < < < O O O O | | | | s s s s N N N N V V V V $ $ $ $ /./././.........K K K K (.(.(.(.",
"a a a a _._._._.:.:.:.:.| | | | <.<.<.<.) ) ) ) y y y y t t t t r r r r 9 9 9 9 =.=.=.=.k k k k ] ] ] ] n n n n n n n n z z z z ",
"a a a a _._._._.:.:.:.:.| | | | <.<.<.<.) ) ) ) y y y y t t t t r r r r 9 9 9 9 =.=.=.=.k k k k ] ] ] ] n n n n n n n n z z z z ",
"a a a a _._._._.:.:.:.:.| | | | <.<.<.<.) ) ) ) y y y y t t t t r r r r 9 9 9 9 =.=.=.=.k k k k ] ] ] ] n n n n n n n n z z z z ",
"a a a a _._._._.:.:.:.:.| | | | <.<.<.<.) ) ) ) y y y y t t t t r r r r 9 9 9 9 =.=.=.=.k k k k ] ] ] ] n n n n n n n n z z z z "};
