/* XPM */
static char * portal3_xpm[] = {
"64 64 120 2",
"  	c #6A11CD",
". 	c #3D00AD",
"+ 	c #4F03BE",
"@ 	c #771AD3",
"# 	c #660ECB",
"$ 	c #4501B5",
"% 	c #3C00AB",
"& 	c #5104BF",
"* 	c #4701B7",
"= 	c #5C09C6",
"- 	c #6B11CE",
"; 	c #3E00AE",
"> 	c #3B00A9",
", 	c #5004BE",
"' 	c #9D42E2",
") 	c #791CD4",
"! 	c #610BC8",
"~ 	c #650DCB",
"{ 	c #650ECB",
"] 	c #600AC8",
"^ 	c #5606C2",
"/ 	c #5405C1",
"( 	c #7317D2",
"_ 	c #4801B8",
": 	c #5907C4",
"< 	c #7A1DD5",
"[ 	c #4701B8",
"} 	c #6D12CF",
"| 	c #8C2EDC",
"1 	c #7D1FD6",
"2 	c #9D43E2",
"3 	c #630CCA",
"4 	c #7015D0",
"5 	c #5004BF",
"6 	c #4A02BA",
"7 	c #4B02BA",
"8 	c #3A00A8",
"9 	c #3700A1",
"0 	c #5706C3",
"a 	c #4300B3",
"b 	c #8325D8",
"c 	c #640DCA",
"d 	c #4F03BD",
"e 	c #4902B9",
"f 	c #3F00AF",
"g 	c #4000B0",
"h 	c #4E03BD",
"i 	c #5305C0",
"j 	c #4D03BC",
"k 	c #4601B6",
"l 	c #4401B4",
"m 	c #4B02BB",
"n 	c #4301B4",
"o 	c #670FCC",
"p 	c #3B00AA",
"q 	c #4802B8",
"r 	c #3800A4",
"s 	c #6D13CF",
"t 	c #4501B6",
"u 	c #6C12CE",
"v 	c #7317D1",
"w 	c #AE5AE8",
"x 	c #7619D3",
"y 	c #5A07C5",
"z 	c #5A08C5",
"A 	c #9032DD",
"B 	c #3C00AA",
"C 	c #8A2CDB",
"D 	c #781BD4",
"E 	c #680FCC",
"F 	c #993DE1",
"G 	c #4100B2",
"H 	c #7B1DD5",
"I 	c #5F0AC7",
"J 	c #3900A7",
"K 	c #5204C0",
"L 	c #4401B5",
"M 	c #5E09C7",
"N 	c #7E20D6",
"O 	c #6E13CF",
"P 	c #3800A2",
"Q 	c #5505C1",
"R 	c #4200B2",
"S 	c #8426D9",
"T 	c #761AD3",
"U 	c #3700A0",
"V 	c #6F14D0",
"W 	c #4601B7",
"X 	c #4100B1",
"Y 	c #37009F",
"Z 	c #3900A6",
"` 	c #8123D7",
" .	c #5F0AC8",
"..	c #5B08C5",
"+.	c #6A10CD",
"@.	c #670ECC",
"#.	c #5C08C6",
"$.	c #781AD4",
"%.	c #5E0AC7",
"&.	c #5807C3",
"*.	c #8022D7",
"=.	c #7216D1",
"-.	c #882ADA",
";.	c #600BC8",
">.	c #4200B3",
",.	c #3900A5",
"'.	c #8628DA",
").	c #690FCD",
"!.	c #4C03BC",
"~.	c #37009D",
"{.	c #3800A3",
"].	c #4C02BB",
"^.	c #3D00AC",
"/.	c #5807C4",
"(.	c #9133DE",
"_.	c #7518D2",
":.	c #3A00A7",
"<.	c #892BDB",
"[.	c #630CC9",
"}.	c #4E03BC",
"        . . . . + + + + @ @ @ @ # # # # $ $ $ $ % % % % & & & & * * * * = = = = - - - - ; ; ; ; > > > > , , , , ' ' ' ' ) ) ) ) ",
"        . . . . + + + + @ @ @ @ # # # # $ $ $ $ % % % % & & & & * * * * = = = = - - - - ; ; ; ; > > > > , , , , ' ' ' ' ) ) ) ) ",
"        . . . . + + + + @ @ @ @ # # # # $ $ $ $ % % % % & & & & * * * * = = = = - - - - ; ; ; ; > > > > , , , , ' ' ' ' ) ) ) ) ",
"        . . . . + + + + @ @ @ @ # # # # $ $ $ $ % % % % & & & & * * * * = = = = - - - - ; ; ; ; > > > > , , , , ' ' ' ' ) ) ) ) ",
"! ! ! ! ~ ~ ~ ~ - - - - { { { { ] ] ] ] ^ ^ ^ ^ / / / / ( ( ( ( _ _ _ _ : : : : < < < < ^ ^ ^ ^ [ [ [ [ / / / / } } } } | | | | ",
"! ! ! ! ~ ~ ~ ~ - - - - { { { { ] ] ] ] ^ ^ ^ ^ / / / / ( ( ( ( _ _ _ _ : : : : < < < < ^ ^ ^ ^ [ [ [ [ / / / / } } } } | | | | ",
"! ! ! ! ~ ~ ~ ~ - - - - { { { { ] ] ] ] ^ ^ ^ ^ / / / / ( ( ( ( _ _ _ _ : : : : < < < < ^ ^ ^ ^ [ [ [ [ / / / / } } } } | | | | ",
"! ! ! ! ~ ~ ~ ~ - - - - { { { { ] ] ] ] ^ ^ ^ ^ / / / / ( ( ( ( _ _ _ _ : : : : < < < < ^ ^ ^ ^ [ [ [ [ / / / / } } } } | | | | ",
"1 1 1 1 2 2 2 2 = = = = 3 3 3 3 4 4 4 4 5 5 5 5 6 6 6 6 7 7 7 7 8 8 8 8 9 9 9 9 0 0 0 0 & & & & a a a a = = = = # # # # ] ] ] ] ",
"1 1 1 1 2 2 2 2 = = = = 3 3 3 3 4 4 4 4 5 5 5 5 6 6 6 6 7 7 7 7 8 8 8 8 9 9 9 9 0 0 0 0 & & & & a a a a = = = = # # # # ] ] ] ] ",
"1 1 1 1 2 2 2 2 = = = = 3 3 3 3 4 4 4 4 5 5 5 5 6 6 6 6 7 7 7 7 8 8 8 8 9 9 9 9 0 0 0 0 & & & & a a a a = = = = # # # # ] ] ] ] ",
"1 1 1 1 2 2 2 2 = = = = 3 3 3 3 4 4 4 4 5 5 5 5 6 6 6 6 7 7 7 7 8 8 8 8 9 9 9 9 0 0 0 0 & & & & a a a a = = = = # # # # ] ] ] ] ",
"b b b b c c c c d d d d         e e e e f f f f _ _ _ _ g g g g h h h h ; ; ; ; * * * * / / / / . . . . * * * * i i i i j j j j ",
"b b b b c c c c d d d d         e e e e f f f f _ _ _ _ g g g g h h h h ; ; ; ; * * * * / / / / . . . . * * * * i i i i j j j j ",
"b b b b c c c c d d d d         e e e e f f f f _ _ _ _ g g g g h h h h ; ; ; ; * * * * / / / / . . . . * * * * i i i i j j j j ",
"b b b b c c c c d d d d         e e e e f f f f _ _ _ _ g g g g h h h h ; ; ; ; * * * * / / / / . . . . * * * * i i i i j j j j ",
"* * * * 8 8 8 8 k k k k , , , , l l l l 7 7 7 7 m m m m n n n n 1 1 1 1 - - - - d d d d o o o o , , , , p p p p q q q q f f f f ",
"* * * * 8 8 8 8 k k k k , , , , l l l l 7 7 7 7 m m m m n n n n 1 1 1 1 - - - - d d d d o o o o , , , , p p p p q q q q f f f f ",
"* * * * 8 8 8 8 k k k k , , , , l l l l 7 7 7 7 m m m m n n n n 1 1 1 1 - - - - d d d d o o o o , , , , p p p p q q q q f f f f ",
"* * * * 8 8 8 8 k k k k , , , , l l l l 7 7 7 7 m m m m n n n n 1 1 1 1 - - - - d d d d o o o o , , , , p p p p q q q q f f f f ",
"j j j j r r r r : : : : s s s s i i i i n n n n t t t t u u u u v v v v w w w w x x x x # # # # y y y y , , , , z z z z z z z z ",
"j j j j r r r r : : : : s s s s i i i i n n n n t t t t u u u u v v v v w w w w x x x x # # # # y y y y , , , , z z z z z z z z ",
"j j j j r r r r : : : : s s s s i i i i n n n n t t t t u u u u v v v v w w w w x x x x # # # # y y y y , , , , z z z z z z z z ",
"j j j j r r r r : : : : s s s s i i i i n n n n t t t t u u u u v v v v w w w w x x x x # # # # y y y y , , , , z z z z z z z z ",
"- - - - e e e e A A A A # # # # > > > > B B B B 0 0 0 0 C C C C D D D D E E E E F F F F 4 4 4 4 j j j j G G G G h h h h ) ) ) ) ",
"- - - - e e e e A A A A # # # # > > > > B B B B 0 0 0 0 C C C C D D D D E E E E F F F F 4 4 4 4 j j j j G G G G h h h h ) ) ) ) ",
"- - - - e e e e A A A A # # # # > > > > B B B B 0 0 0 0 C C C C D D D D E E E E F F F F 4 4 4 4 j j j j G G G G h h h h ) ) ) ) ",
"- - - - e e e e A A A A # # # # > > > > B B B B 0 0 0 0 C C C C D D D D E E E E F F F F 4 4 4 4 j j j j G G G G h h h h ) ) ) ) ",
": : : : m m m m H H H H I I I I J J J J r r r r K K K K # # # # L L L L K K K K d d d d M M M M N N N N / / / / $ $ $ $ O O O O ",
": : : : m m m m H H H H I I I I J J J J r r r r K K K K # # # # L L L L K K K K d d d d M M M M N N N N / / / / $ $ $ $ O O O O ",
": : : : m m m m H H H H I I I I J J J J r r r r K K K K # # # # L L L L K K K K d d d d M M M M N N N N / / / / $ $ $ $ O O O O ",
": : : : m m m m H H H H I I I I J J J J r r r r K K K K # # # # L L L L K K K K d d d d M M M M N N N N / / / / $ $ $ $ O O O O ",
"f f f f P P P P Q Q Q Q = = = = 7 7 7 7 n n n n 9 9 9 9 R R R R n n n n 8 8 8 8 & & & & S S S S T T T T . . . . U U U U + + + + ",
"f f f f P P P P Q Q Q Q = = = = 7 7 7 7 n n n n 9 9 9 9 R R R R n n n n 8 8 8 8 & & & & S S S S T T T T . . . . U U U U + + + + ",
"f f f f P P P P Q Q Q Q = = = = 7 7 7 7 n n n n 9 9 9 9 R R R R n n n n 8 8 8 8 & & & & S S S S T T T T . . . . U U U U + + + + ",
"f f f f P P P P Q Q Q Q = = = = 7 7 7 7 n n n n 9 9 9 9 R R R R n n n n 8 8 8 8 & & & & S S S S T T T T . . . . U U U U + + + + ",
"V V V V W W W W j j j j K K K K [ [ [ [ q q q q X X X X Y Y Y Y Z Z Z Z * * * * c c c c E E E E 0 0 0 0 ; ; ; ; h h h h ` ` ` ` ",
"V V V V W W W W j j j j K K K K [ [ [ [ q q q q X X X X Y Y Y Y Z Z Z Z * * * * c c c c E E E E 0 0 0 0 ; ; ; ; h h h h ` ` ` ` ",
"V V V V W W W W j j j j K K K K [ [ [ [ q q q q X X X X Y Y Y Y Z Z Z Z * * * * c c c c E E E E 0 0 0 0 ; ; ; ; h h h h ` ` ` ` ",
"V V V V W W W W j j j j K K K K [ [ [ [ q q q q X X X X Y Y Y Y Z Z Z Z * * * * c c c c E E E E 0 0 0 0 ; ; ; ; h h h h ` ` ` ` ",
"x x x x  . . . .: : : : 1 1 1 1 ........e e e e d d d d X X X X ; ; ; ; +.+.+.+.M M M M @.@.@.@.v v v v #.#.#.#.+.+.+.+.$.$.$.$.",
"x x x x  . . . .: : : : 1 1 1 1 ........e e e e d d d d X X X X ; ; ; ; +.+.+.+.M M M M @.@.@.@.v v v v #.#.#.#.+.+.+.+.$.$.$.$.",
"x x x x  . . . .: : : : 1 1 1 1 ........e e e e d d d d X X X X ; ; ; ; +.+.+.+.M M M M @.@.@.@.v v v v #.#.#.#.+.+.+.+.$.$.$.$.",
"x x x x  . . . .: : : : 1 1 1 1 ........e e e e d d d d X X X X ; ; ; ; +.+.+.+.M M M M @.@.@.@.v v v v #.#.#.#.+.+.+.+.$.$.$.$.",
"t t t t %.%.%.%.i i i i         ( ( ( ( &.&.&.&.] ] ] ] *.*.*.*.=.=.=.=.# # # # = = = = -.-.-.-.;.;.;.;.>.>.>.>.z z z z _ _ _ _ ",
"t t t t %.%.%.%.i i i i         ( ( ( ( &.&.&.&.] ] ] ] *.*.*.*.=.=.=.=.# # # # = = = = -.-.-.-.;.;.;.;.>.>.>.>.z z z z _ _ _ _ ",
"t t t t %.%.%.%.i i i i         ( ( ( ( &.&.&.&.] ] ] ] *.*.*.*.=.=.=.=.# # # # = = = = -.-.-.-.;.;.;.;.>.>.>.>.z z z z _ _ _ _ ",
"t t t t %.%.%.%.i i i i         ( ( ( ( &.&.&.&.] ] ] ] *.*.*.*.=.=.=.=.# # # # = = = = -.-.-.-.;.;.;.;.>.>.>.>.z z z z _ _ _ _ ",
",.,.,.,.l l l l 6 6 6 6 & & & & c c c c : : : : d d d d *.*.*.*.'.'.'.'.^ ^ ^ ^ ).).).).%.%.%.%.a a a a l l l l !.!.!.!.~.~.~.~.",
",.,.,.,.l l l l 6 6 6 6 & & & & c c c c : : : : d d d d *.*.*.*.'.'.'.'.^ ^ ^ ^ ).).).).%.%.%.%.a a a a l l l l !.!.!.!.~.~.~.~.",
",.,.,.,.l l l l 6 6 6 6 & & & & c c c c : : : : d d d d *.*.*.*.'.'.'.'.^ ^ ^ ^ ).).).).%.%.%.%.a a a a l l l l !.!.!.!.~.~.~.~.",
",.,.,.,.l l l l 6 6 6 6 & & & & c c c c : : : : d d d d *.*.*.*.'.'.'.'.^ ^ ^ ^ ).).).).%.%.%.%.a a a a l l l l !.!.!.!.~.~.~.~.",
"g g g g {.{.{.{.].].].].I I I I c c c c t t t t {.{.{.{.l l l l ; ; ; ; 8 8 8 8 ^ ^ ^ ^ L L L L q q q q & & & & ^.^.^.^.G G G G ",
"g g g g {.{.{.{.].].].].I I I I c c c c t t t t {.{.{.{.l l l l ; ; ; ; 8 8 8 8 ^ ^ ^ ^ L L L L q q q q & & & & ^.^.^.^.G G G G ",
"g g g g {.{.{.{.].].].].I I I I c c c c t t t t {.{.{.{.l l l l ; ; ; ; 8 8 8 8 ^ ^ ^ ^ L L L L q q q q & & & & ^.^.^.^.G G G G ",
"g g g g {.{.{.{.].].].].I I I I c c c c t t t t {.{.{.{.l l l l ; ; ; ; 8 8 8 8 ^ ^ ^ ^ L L L L q q q q & & & & ^.^.^.^.G G G G ",
"/./././.. . . . {.{.{.{.0 0 0 0 (.(.(.(._._._._.^.^.^.^.R R R R ; ; ; ; * * * * ~ ~ ~ ~ / / / / l l l l t t t t K K K K H H H H ",
"/./././.. . . . {.{.{.{.0 0 0 0 (.(.(.(._._._._.^.^.^.^.R R R R ; ; ; ; * * * * ~ ~ ~ ~ / / / / l l l l t t t t K K K K H H H H ",
"/./././.. . . . {.{.{.{.0 0 0 0 (.(.(.(._._._._.^.^.^.^.R R R R ; ; ; ; * * * * ~ ~ ~ ~ / / / / l l l l t t t t K K K K H H H H ",
"/./././.. . . . {.{.{.{.0 0 0 0 (.(.(.(._._._._.^.^.^.^.R R R R ; ; ; ; * * * * ~ ~ ~ ~ / / / / l l l l t t t t K K K K H H H H ",
":.:.:.:.% % % % ~.~.~.~.j j j j <.<.<.<.[.[.[.[.p p p p :.:.:.:.9 9 9 9 n n n n }.}.}.}.{.{.{.{.n n n n O O O O O O O O V V V V ",
":.:.:.:.% % % % ~.~.~.~.j j j j <.<.<.<.[.[.[.[.p p p p :.:.:.:.9 9 9 9 n n n n }.}.}.}.{.{.{.{.n n n n O O O O O O O O V V V V ",
":.:.:.:.% % % % ~.~.~.~.j j j j <.<.<.<.[.[.[.[.p p p p :.:.:.:.9 9 9 9 n n n n }.}.}.}.{.{.{.{.n n n n O O O O O O O O V V V V ",
":.:.:.:.% % % % ~.~.~.~.j j j j <.<.<.<.[.[.[.[.p p p p :.:.:.:.9 9 9 9 n n n n }.}.}.}.{.{.{.{.n n n n O O O O O O O O V V V V "};
