/* XPM */
static char * portal4_xpm[] = {
"64 64 119 2",
"  	c #4000B0",
". 	c #3800A4",
"+ 	c #4501B5",
"@ 	c #4300B4",
"# 	c #5506C2",
"$ 	c #640DCA",
"% 	c #4A02BA",
"& 	c #5004BE",
"* 	c #4F03BD",
"= 	c #7418D2",
"- 	c #6F14CF",
"; 	c #3F00AF",
"> 	c #4B02BB",
", 	c #5D09C6",
"' 	c #9032DD",
") 	c #680FCC",
"! 	c #5A07C4",
"~ 	c #4D03BC",
"{ 	c #8224D8",
"] 	c #8729DA",
"^ 	c #4902B9",
"/ 	c #5104BF",
"( 	c #4802B8",
"_ 	c #5C08C6",
": 	c #7C1ED5",
"< 	c #6B11CE",
"[ 	c #7116D1",
"} 	c #6C11CE",
"| 	c #630CCA",
"1 	c #882ADB",
"2 	c #8D2FDC",
"3 	c #4B02BA",
"4 	c #3900A5",
"5 	c #4401B4",
"6 	c #3900A6",
"7 	c #4100B1",
"8 	c #4E03BD",
"9 	c #3C00AA",
"0 	c #4200B2",
"a 	c #7E20D6",
"b 	c #8C2EDC",
"c 	c #5F0AC8",
"d 	c #7015D0",
"e 	c #892BDB",
"f 	c #3800A3",
"g 	c #4300B3",
"h 	c #5F0AC7",
"i 	c #3D00AD",
"j 	c #6E13CF",
"k 	c #6F14D0",
"l 	c #5B08C5",
"m 	c #4200B3",
"n 	c #37009F",
"o 	c #3E00AD",
"p 	c #7619D3",
"q 	c #8E30DD",
"r 	c #9337DF",
"s 	c #5204BF",
"t 	c #37009D",
"u 	c #610BC9",
"v 	c #3A00A7",
"w 	c #6D13CF",
"x 	c #7317D2",
"y 	c #7216D1",
"z 	c #8123D8",
"A 	c #5706C3",
"B 	c #781BD4",
"C 	c #8527D9",
"D 	c #4701B8",
"E 	c #3E00AE",
"F 	c #882ADA",
"G 	c #4601B7",
"H 	c #660ECB",
"I 	c #983CE0",
"J 	c #6910CD",
"K 	c #600BC8",
"L 	c #620CC9",
"M 	c #4C02BB",
"N 	c #7317D1",
"O 	c #3C00AB",
"P 	c #4301B4",
"Q 	c #8F31DD",
"R 	c #3C00AC",
"S 	c #3900A7",
"T 	c #9235DE",
"U 	c #4000B1",
"V 	c #5A07C5",
"W 	c #5E09C7",
"X 	c #3800A2",
"Y 	c #4701B7",
"Z 	c #6A10CD",
"` 	c #5907C4",
" .	c #5405C1",
"..	c #8022D7",
"+.	c #610BC8",
"@.	c #9E44E2",
"#.	c #9437DF",
"$.	c #600AC8",
"%.	c #771AD3",
"&.	c #A54EE5",
"*.	c #3F00B0",
"=.	c #963AE0",
"-.	c #7B1DD5",
";.	c #5305C1",
">.	c #650DCB",
",.	c #5606C2",
"'.	c #5807C3",
").	c #3B00A9",
"!.	c #4501B6",
"~.	c #5305C0",
"{.	c #8A2BDB",
"].	c #3A00A8",
"^.	c #4100B2",
"/.	c #37009E",
"(.	c #37009B",
"_.	c #5505C2",
":.	c #5E0AC7",
"<.	c #9A3FE1",
"[.	c #8628DA",
"        . . . . + + + + @ @ @ @ # # # # $ $ $ $ % % % % & & & & * * * * = = = = - - - - ; ; ; ; > > > > , , , , ' ' ' ' ) ) ) ) ",
"        . . . . + + + + @ @ @ @ # # # # $ $ $ $ % % % % & & & & * * * * = = = = - - - - ; ; ; ; > > > > , , , , ' ' ' ' ) ) ) ) ",
"        . . . . + + + + @ @ @ @ # # # # $ $ $ $ % % % % & & & & * * * * = = = = - - - - ; ; ; ; > > > > , , , , ' ' ' ' ) ) ) ) ",
"        . . . . + + + + @ @ @ @ # # # # $ $ $ $ % % % % & & & & * * * * = = = = - - - - ; ; ; ; > > > > , , , , ' ' ' ' ) ) ) ) ",
"; ; ; ; ! ! ! ! % % % % ~ ~ ~ ~ { { { { ] ] ] ] & & & & ^ ^ ^ ^ ; ; ; ; / / / / ! ! ! ! ( ( ( ( _ _ _ _ : : : : < < < < [ [ [ [ ",
"; ; ; ; ! ! ! ! % % % % ~ ~ ~ ~ { { { { ] ] ] ] & & & & ^ ^ ^ ^ ; ; ; ; / / / / ! ! ! ! ( ( ( ( _ _ _ _ : : : : < < < < [ [ [ [ ",
"; ; ; ; ! ! ! ! % % % % ~ ~ ~ ~ { { { { ] ] ] ] & & & & ^ ^ ^ ^ ; ; ; ; / / / / ! ! ! ! ( ( ( ( _ _ _ _ : : : : < < < < [ [ [ [ ",
"; ; ; ; ! ! ! ! % % % % ~ ~ ~ ~ { { { { ] ] ] ] & & & & ^ ^ ^ ^ ; ; ; ; / / / / ! ! ! ! ( ( ( ( _ _ _ _ : : : : < < < < [ [ [ [ ",
"} } } } | | | | ! ! ! ! 1 1 1 1 2 2 2 2 3 3 3 3 4 4 4 4 5 5 5 5 6 6 6 6 7 7 7 7 8 8 8 8 9 9 9 9 0 0 0 0 a a a a b b b b ) ) ) ) ",
"} } } } | | | | ! ! ! ! 1 1 1 1 2 2 2 2 3 3 3 3 4 4 4 4 5 5 5 5 6 6 6 6 7 7 7 7 8 8 8 8 9 9 9 9 0 0 0 0 a a a a b b b b ) ) ) ) ",
"} } } } | | | | ! ! ! ! 1 1 1 1 2 2 2 2 3 3 3 3 4 4 4 4 5 5 5 5 6 6 6 6 7 7 7 7 8 8 8 8 9 9 9 9 0 0 0 0 a a a a b b b b ) ) ) ) ",
"} } } } | | | | ! ! ! ! 1 1 1 1 2 2 2 2 3 3 3 3 4 4 4 4 5 5 5 5 6 6 6 6 7 7 7 7 8 8 8 8 9 9 9 9 0 0 0 0 a a a a b b b b ) ) ) ) ",
"b b b b c c c c d d d d e e e e & & & & f f f f g g g g h h h h , , , , 8 8 8 8 = = = = ^ ^ ^ ^ f f f f i i i i j j j j k k k k ",
"b b b b c c c c d d d d e e e e & & & & f f f f g g g g h h h h , , , , 8 8 8 8 = = = = ^ ^ ^ ^ f f f f i i i i j j j j k k k k ",
"b b b b c c c c d d d d e e e e & & & & f f f f g g g g h h h h , , , , 8 8 8 8 = = = = ^ ^ ^ ^ f f f f i i i i j j j j k k k k ",
"b b b b c c c c d d d d e e e e & & & & f f f f g g g g h h h h , , , , 8 8 8 8 = = = = ^ ^ ^ ^ f f f f i i i i j j j j k k k k ",
"l l l l m m m m , , , , ~ ~ ~ ~ n n n n o o o o p p p p ) ) ) ) q q q q j j j j < < < < r r r r s s s s t t t t + + + + u u u u ",
"l l l l m m m m , , , , ~ ~ ~ ~ n n n n o o o o p p p p ) ) ) ) q q q q j j j j < < < < r r r r s s s s t t t t + + + + u u u u ",
"l l l l m m m m , , , , ~ ~ ~ ~ n n n n o o o o p p p p ) ) ) ) q q q q j j j j < < < < r r r r s s s s t t t t + + + + u u u u ",
"l l l l m m m m , , , , ~ ~ ~ ~ n n n n o o o o p p p p ) ) ) ) q q q q j j j j < < < < r r r r s s s s t t t t + + + + u u u u ",
"4 4 4 4 v v v v * * * * @ @ @ @ g g g g | | | | w w w w x x x x y y y y z z z z A A A A B B B B C C C C D D D D E E E E * * * * ",
"4 4 4 4 v v v v * * * * @ @ @ @ g g g g | | | | w w w w x x x x y y y y z z z z A A A A B B B B C C C C D D D D E E E E * * * * ",
"4 4 4 4 v v v v * * * * @ @ @ @ g g g g | | | | w w w w x x x x y y y y z z z z A A A A B B B B C C C C D D D D E E E E * * * * ",
"4 4 4 4 v v v v * * * * @ @ @ @ g g g g | | | | w w w w x x x x y y y y z z z z A A A A B B B B C C C C D D D D E E E E * * * * ",
"^ ^ ^ ^ ~ ~ ~ ~ F F F F _ _ _ _ ; ; ; ; G G G G H H H H I I I I , , , , _ _ _ _ J J J J K K K K < < < < L L L L M M M M N N N N ",
"^ ^ ^ ^ ~ ~ ~ ~ F F F F _ _ _ _ ; ; ; ; G G G G H H H H I I I I , , , , _ _ _ _ J J J J K K K K < < < < L L L L M M M M N N N N ",
"^ ^ ^ ^ ~ ~ ~ ~ F F F F _ _ _ _ ; ; ; ; G G G G H H H H I I I I , , , , _ _ _ _ J J J J K K K K < < < < L L L L M M M M N N N N ",
"^ ^ ^ ^ ~ ~ ~ ~ F F F F _ _ _ _ ; ; ; ; G G G G H H H H I I I I , , , , _ _ _ _ J J J J K K K K < < < < L L L L M M M M N N N N ",
"i i i i > > > > B B B B s s s s O O O O P P P P j j j j Q Q Q Q R R R R P P P P S S S S # # # # T T T T N N N N ; ; ; ; > > > > ",
"i i i i > > > > B B B B s s s s O O O O P P P P j j j j Q Q Q Q R R R R P P P P S S S S # # # # T T T T N N N N ; ; ; ; > > > > ",
"i i i i > > > > B B B B s s s s O O O O P P P P j j j j Q Q Q Q R R R R P P P P S S S S # # # # T T T T N N N N ; ; ; ; > > > > ",
"i i i i > > > > B B B B s s s s O O O O P P P P j j j j Q Q Q Q R R R R P P P P S S S S # # # # T T T T N N N N ; ; ; ; > > > > ",
"m m m m R R R R M M M M         U U U U ~ ~ ~ ~ ^ ^ ^ ^ V V V V M M M M . . . . + + + + ! ! ! ! W W W W ~ ~ ~ ~ X X X X Y Y Y Y ",
"m m m m R R R R M M M M         U U U U ~ ~ ~ ~ ^ ^ ^ ^ V V V V M M M M . . . . + + + + ! ! ! ! W W W W ~ ~ ~ ~ X X X X Y Y Y Y ",
"m m m m R R R R M M M M         U U U U ~ ~ ~ ~ ^ ^ ^ ^ V V V V M M M M . . . . + + + + ! ! ! ! W W W W ~ ~ ~ ~ X X X X Y Y Y Y ",
"m m m m R R R R M M M M         U U U U ~ ~ ~ ~ ^ ^ ^ ^ V V V V M M M M . . . . + + + + ! ! ! ! W W W W ~ ~ ~ ~ X X X X Y Y Y Y ",
"k k k k ~ ~ ~ ~ Z Z Z Z ` ` ` ` 6 6 6 6 i i i i  . . . .v v v v . . . . m m m m % % % % G G G G L L L L K K K K ( ( ( ( ........",
"k k k k ~ ~ ~ ~ Z Z Z Z ` ` ` ` 6 6 6 6 i i i i  . . . .v v v v . . . . m m m m % % % % G G G G L L L L K K K K ( ( ( ( ........",
"k k k k ~ ~ ~ ~ Z Z Z Z ` ` ` ` 6 6 6 6 i i i i  . . . .v v v v . . . . m m m m % % % % G G G G L L L L K K K K ( ( ( ( ........",
"k k k k ~ ~ ~ ~ Z Z Z Z ` ` ` ` 6 6 6 6 i i i i  . . . .v v v v . . . . m m m m % % % % G G G G L L L L K K K K ( ( ( ( ........",
"+.+.+.+.^ ^ ^ ^ y y y y @.@.@.@.` ` ` ` X X X X i i i i 0 0 0 0 O O O O g g g g         j j j j #.#.#.#.K K K K 5 5 5 5 $.$.$.$.",
"+.+.+.+.^ ^ ^ ^ y y y y @.@.@.@.` ` ` ` X X X X i i i i 0 0 0 0 O O O O g g g g         j j j j #.#.#.#.K K K K 5 5 5 5 $.$.$.$.",
"+.+.+.+.^ ^ ^ ^ y y y y @.@.@.@.` ` ` ` X X X X i i i i 0 0 0 0 O O O O g g g g         j j j j #.#.#.#.K K K K 5 5 5 5 $.$.$.$.",
"+.+.+.+.^ ^ ^ ^ y y y y @.@.@.@.` ` ` ` X X X X i i i i 0 0 0 0 O O O O g g g g         j j j j #.#.#.#.K K K K 5 5 5 5 $.$.$.$.",
"+ + + + O O O O         %.%.%.%.&.&.&.&. . . . .*.*.*.*. . . . .` ` ` ` M M M M J J J J =.=.=.=.u u u u O O O O E E E E > > > > ",
"+ + + + O O O O         %.%.%.%.&.&.&.&. . . . .*.*.*.*. . . . .` ` ` ` M M M M J J J J =.=.=.=.u u u u O O O O E E E E > > > > ",
"+ + + + O O O O         %.%.%.%.&.&.&.&. . . . .*.*.*.*. . . . .` ` ` ` M M M M J J J J =.=.=.=.u u u u O O O O E E E E > > > > ",
"+ + + + O O O O         %.%.%.%.&.&.&.&. . . . .*.*.*.*. . . . .` ` ` ` M M M M J J J J =.=.=.=.u u u u O O O O E E E E > > > > ",
"U U U U M M M M 9 9 9 9 i i i i B B B B -.-.-.-.;.;.;.;.J J J J >.>.>.>.,.,.,.,.' ' ' ' '.'.'.'.f f f f ).).).).V V V V ; ; ; ; ",
"U U U U M M M M 9 9 9 9 i i i i B B B B -.-.-.-.;.;.;.;.J J J J >.>.>.>.,.,.,.,.' ' ' ' '.'.'.'.f f f f ).).).).V V V V ; ; ; ; ",
"U U U U M M M M 9 9 9 9 i i i i B B B B -.-.-.-.;.;.;.;.J J J J >.>.>.>.,.,.,.,.' ' ' ' '.'.'.'.f f f f ).).).).V V V V ; ; ; ; ",
"U U U U M M M M 9 9 9 9 i i i i B B B B -.-.-.-.;.;.;.;.J J J J >.>.>.>.,.,.,.,.' ' ' ' '.'.'.'.f f f f ).).).).V V V V ; ; ; ; ",
"3 3 3 3 !.!.!.!.~ ~ ~ ~ ; ; ; ; ( ( ( ( L L L L % % % % + + + + > > > > * * * * ~.~.~.~.).).).).E E E E ) ) ) ) >.>.>.>.& & & & ",
"3 3 3 3 !.!.!.!.~ ~ ~ ~ ; ; ; ; ( ( ( ( L L L L % % % % + + + + > > > > * * * * ~.~.~.~.).).).).E E E E ) ) ) ) >.>.>.>.& & & & ",
"3 3 3 3 !.!.!.!.~ ~ ~ ~ ; ; ; ; ( ( ( ( L L L L % % % % + + + + > > > > * * * * ~.~.~.~.).).).).E E E E ) ) ) ) >.>.>.>.& & & & ",
"3 3 3 3 !.!.!.!.~ ~ ~ ~ ; ; ; ; ( ( ( ( L L L L % % % % + + + + > > > > * * * * ~.~.~.~.).).).).E E E E ) ) ) ) >.>.>.>.& & & & ",
"{.{.{.{.; ; ; ; ].].].].8 8 8 8 >.>.>.>.| | | | ^.^.^.^././././.(.(.(.(.^ ^ ^ ^ 3 3 3 3 ; ; ; ; _._._._.:.:.:.:.h h h h 2 2 2 2 ",
"{.{.{.{.; ; ; ; ].].].].8 8 8 8 >.>.>.>.| | | | ^.^.^.^././././.(.(.(.(.^ ^ ^ ^ 3 3 3 3 ; ; ; ; _._._._.:.:.:.:.h h h h 2 2 2 2 ",
"{.{.{.{.; ; ; ; ].].].].8 8 8 8 >.>.>.>.| | | | ^.^.^.^././././.(.(.(.(.^ ^ ^ ^ 3 3 3 3 ; ; ; ; _._._._.:.:.:.:.h h h h 2 2 2 2 ",
"{.{.{.{.; ; ; ; ].].].].8 8 8 8 >.>.>.>.| | | | ^.^.^.^././././.(.(.(.(.^ ^ ^ ^ 3 3 3 3 ; ; ; ; _._._._.:.:.:.:.h h h h 2 2 2 2 ",
"> > > > O O O O 4 4 4 4         s s s s H H H H         X X X X 6 6 6 6 / / / / P P P P n n n n M M M M <.<.<.<.[.[.[.[.< < < < ",
"> > > > O O O O 4 4 4 4         s s s s H H H H         X X X X 6 6 6 6 / / / / P P P P n n n n M M M M <.<.<.<.[.[.[.[.< < < < ",
"> > > > O O O O 4 4 4 4         s s s s H H H H         X X X X 6 6 6 6 / / / / P P P P n n n n M M M M <.<.<.<.[.[.[.[.< < < < ",
"> > > > O O O O 4 4 4 4         s s s s H H H H         X X X X 6 6 6 6 / / / / P P P P n n n n M M M M <.<.<.<.[.[.[.[.< < < < "};
