/* XPM */
static char * portal5_xpm[] = {
"64 64 124 2",
"  	c #37009E",
". 	c #4100B1",
"+ 	c #4401B5",
"@ 	c #3700A1",
"# 	c #4401B4",
"$ 	c #781BD4",
"% 	c #6910CD",
"& 	c #4B02BB",
"* 	c #4A02BA",
"= 	c #7216D1",
"- 	c #4E03BD",
"; 	c #4D03BC",
"> 	c #660ECB",
", 	c #610BC9",
"' 	c #5907C4",
") 	c #5606C2",
"! 	c #3A00A8",
"~ 	c #4300B3",
"{ 	c #3800A4",
"] 	c #4301B4",
"^ 	c #8628DA",
"/ 	c #9336DE",
"( 	c #3A00A7",
"_ 	c #3900A6",
": 	c #5104BF",
"< 	c #3F00AF",
"[ 	c #3F00B0",
"} 	c #7015D0",
"| 	c #A44CE4",
"1 	c #5C08C6",
"2 	c #4000B0",
"3 	c #4902B9",
"4 	c #882ADA",
"5 	c #7F21D7",
"6 	c #37009D",
"7 	c #3B00A9",
"8 	c #5505C1",
"9 	c #3800A3",
"0 	c #7619D3",
"a 	c #8F31DD",
"b 	c #781AD4",
"c 	c #4F03BE",
"d 	c #9337DF",
"e 	c #4F03BD",
"f 	c #8426D9",
"g 	c #6B11CE",
"h 	c #983DE0",
"i 	c #3C00AB",
"j 	c #4501B5",
"k 	c #8527D9",
"l 	c #5F0AC7",
"m 	c #5E09C7",
"n 	c #7E20D6",
"o 	c #4801B8",
"p 	c #4802B8",
"q 	c #8325D8",
"r 	c #8022D7",
"s 	c #8123D8",
"t 	c #5B08C5",
"u 	c #9235DE",
"v 	c #983CE0",
"w 	c #4701B8",
"x 	c #7C1ED5",
"y 	c #9336DF",
"z 	c #5D09C7",
"A 	c #650DCB",
"B 	c #5305C0",
"C 	c #3E00AE",
"D 	c #5D09C6",
"E 	c #5C09C6",
"F 	c #7317D2",
"G 	c #3D00AD",
"H 	c #4200B3",
"I 	c #771AD3",
"J 	c #8729DA",
"K 	c #37009F",
"L 	c #680FCC",
"M 	c #9437DF",
"N 	c #7014D0",
"O 	c #6C12CE",
"P 	c #4100B2",
"Q 	c #7417D2",
"R 	c #4701B7",
"S 	c #630CCA",
"T 	c #640DCA",
"U 	c #973AE0",
"V 	c #3E00AD",
"W 	c #5F0AC8",
"X 	c #5807C3",
"Y 	c #670FCC",
"Z 	c #9133DE",
"` 	c #5506C2",
" .	c #3900A5",
"..	c #A249E4",
"+.	c #640CCA",
"@.	c #3800A2",
"#.	c #6D12CF",
"$.	c #7B1DD5",
"%.	c #600BC8",
"&.	c #3D00AC",
"*.	c #3A00A9",
"=.	c #4B02BA",
"-.	c #5706C3",
";.	c #8F32DD",
">.	c #5A07C4",
",.	c #8627D9",
"'.	c #6A10CD",
").	c #4C02BB",
"!.	c #3C00AA",
"~.	c #5004BE",
"{.	c #6F14D0",
"].	c #5204C0",
"^.	c #7418D2",
"/.	c #9134DE",
"(.	c #9C41E2",
"_.	c #4601B7",
":.	c #4200B2",
"<.	c #5305C1",
"[.	c #963AE0",
"}.	c #8728DA",
"|.	c #3C00AC",
"1.	c #4501B6",
"2.	c #7317D1",
"3.	c #7115D1",
"        . . . . + + + + @ @ @ @ # # # # $ $ $ $ % % % % & & & & * * * * = = = = - - - - ; ; ; ; > > > > , , , , ' ' ' ' ) ) ) ) ",
"        . . . . + + + + @ @ @ @ # # # # $ $ $ $ % % % % & & & & * * * * = = = = - - - - ; ; ; ; > > > > , , , , ' ' ' ' ) ) ) ) ",
"        . . . . + + + + @ @ @ @ # # # # $ $ $ $ % % % % & & & & * * * * = = = = - - - - ; ; ; ; > > > > , , , , ' ' ' ' ) ) ) ) ",
"        . . . . + + + + @ @ @ @ # # # # $ $ $ $ % % % % & & & & * * * * = = = = - - - - ; ; ; ; > > > > , , , , ' ' ' ' ) ) ) ) ",
"! ! ! ! ~ ~ ~ ~ { { { { ] ] ] ] ^ ^ ^ ^ / / / / ; ; ; ; ( ( ( ( _ _ _ _ : : : : < < < < [ [ [ [ } } } } | | | | 1 1 1 1 2 2 2 2 ",
"! ! ! ! ~ ~ ~ ~ { { { { ] ] ] ] ^ ^ ^ ^ / / / / ; ; ; ; ( ( ( ( _ _ _ _ : : : : < < < < [ [ [ [ } } } } | | | | 1 1 1 1 2 2 2 2 ",
"! ! ! ! ~ ~ ~ ~ { { { { ] ] ] ] ^ ^ ^ ^ / / / / ; ; ; ; ( ( ( ( _ _ _ _ : : : : < < < < [ [ [ [ } } } } | | | | 1 1 1 1 2 2 2 2 ",
"! ! ! ! ~ ~ ~ ~ { { { { ] ] ] ] ^ ^ ^ ^ / / / / ; ; ; ; ( ( ( ( _ _ _ _ : : : : < < < < [ [ [ [ } } } } | | | | 1 1 1 1 2 2 2 2 ",
") ) ) ) 3 3 3 3 ; ; ; ; 4 4 4 4 5 5 5 5 * * * * 6 6 6 6 < < < < 7 7 7 7 8 8 8 8 - - - - 9 9 9 9 ] ] ] ] 0 0 0 0 a a a a - - - - ",
") ) ) ) 3 3 3 3 ; ; ; ; 4 4 4 4 5 5 5 5 * * * * 6 6 6 6 < < < < 7 7 7 7 8 8 8 8 - - - - 9 9 9 9 ] ] ] ] 0 0 0 0 a a a a - - - - ",
") ) ) ) 3 3 3 3 ; ; ; ; 4 4 4 4 5 5 5 5 * * * * 6 6 6 6 < < < < 7 7 7 7 8 8 8 8 - - - - 9 9 9 9 ] ] ] ] 0 0 0 0 a a a a - - - - ",
") ) ) ) 3 3 3 3 ; ; ; ; 4 4 4 4 5 5 5 5 * * * * 6 6 6 6 < < < < 7 7 7 7 8 8 8 8 - - - - 9 9 9 9 ] ] ] ] 0 0 0 0 a a a a - - - - ",
"b b b b c c c c a a a a d d d d e e e e 9 9 9 9 * * * * f f f f % % % % g g g g h h h h e e e e i i i i j j j j $ $ $ $ k k k k ",
"b b b b c c c c a a a a d d d d e e e e 9 9 9 9 * * * * f f f f % % % % g g g g h h h h e e e e i i i i j j j j $ $ $ $ k k k k ",
"b b b b c c c c a a a a d d d d e e e e 9 9 9 9 * * * * f f f f % % % % g g g g h h h h e e e e i i i i j j j j $ $ $ $ k k k k ",
"b b b b c c c c a a a a d d d d e e e e 9 9 9 9 * * * * f f f f % % % % g g g g h h h h e e e e i i i i j j j j $ $ $ $ k k k k ",
"l l l l m m m m n n n n o o o o @ @ @ @ p p p p q q q q r r r r s s s s t t t t u u u u v v v v : : : : i i i i ] ] ] ] 5 5 5 5 ",
"l l l l m m m m n n n n o o o o @ @ @ @ p p p p q q q q r r r r s s s s t t t t u u u u v v v v : : : : i i i i ] ] ] ] 5 5 5 5 ",
"l l l l m m m m n n n n o o o o @ @ @ @ p p p p q q q q r r r r s s s s t t t t u u u u v v v v : : : : i i i i ] ] ] ] 5 5 5 5 ",
"l l l l m m m m n n n n o o o o @ @ @ @ p p p p q q q q r r r r s s s s t t t t u u u u v v v v : : : : i i i i ] ] ] ] 5 5 5 5 ",
"7 7 7 7 w w w w * * * * _ _ _ _ 2 2 2 2 x x x x y y y y z z z z A A A A : : : : * * * * k k k k ^ ^ ^ ^ B B B B 9 9 9 9 . . . . ",
"7 7 7 7 w w w w * * * * _ _ _ _ 2 2 2 2 x x x x y y y y z z z z A A A A : : : : * * * * k k k k ^ ^ ^ ^ B B B B 9 9 9 9 . . . . ",
"7 7 7 7 w w w w * * * * _ _ _ _ 2 2 2 2 x x x x y y y y z z z z A A A A : : : : * * * * k k k k ^ ^ ^ ^ B B B B 9 9 9 9 . . . . ",
"7 7 7 7 w w w w * * * * _ _ _ _ 2 2 2 2 x x x x y y y y z z z z A A A A : : : : * * * * k k k k ^ ^ ^ ^ B B B B 9 9 9 9 . . . . ",
"C C C C ' ' ' ' D D D D p p p p E E E E 0 0 0 0 F F F F n n n n G G G G o o o o H H H H ] ] ] ] I I I I J J J J c c c c e e e e ",
"C C C C ' ' ' ' D D D D p p p p E E E E 0 0 0 0 F F F F n n n n G G G G o o o o H H H H ] ] ] ] I I I I J J J J c c c c e e e e ",
"C C C C ' ' ' ' D D D D p p p p E E E E 0 0 0 0 F F F F n n n n G G G G o o o o H H H H ] ] ] ] I I I I J J J J c c c c e e e e ",
"C C C C ' ' ' ' D D D D p p p p E E E E 0 0 0 0 F F F F n n n n G G G G o o o o H H H H ] ] ] ] I I I I J J J J c c c c e e e e ",
"K K K K : : : : : : : : [ [ [ [ c c c c L L L L A A A A M M M M ] ] ] ] i i i i _ _ _ _ c c c c N N N N O O O O 7 7 7 7 ! ! ! ! ",
"K K K K : : : : : : : : [ [ [ [ c c c c L L L L A A A A M M M M ] ] ] ] i i i i _ _ _ _ c c c c N N N N O O O O 7 7 7 7 ! ! ! ! ",
"K K K K : : : : : : : : [ [ [ [ c c c c L L L L A A A A M M M M ] ] ] ] i i i i _ _ _ _ c c c c N N N N O O O O 7 7 7 7 ! ! ! ! ",
"K K K K : : : : : : : : [ [ [ [ c c c c L L L L A A A A M M M M ] ] ] ] i i i i _ _ _ _ c c c c N N N N O O O O 7 7 7 7 ! ! ! ! ",
"P P P P ; ; ; ; ; ; ; ; ! ! ! ! C C C C Q Q Q Q 0 0 0 0 } } } } : : : : i i i i R R R R ] ] ] ] 3 3 3 3 S S S S + + + + * * * * ",
"P P P P ; ; ; ; ; ; ; ; ! ! ! ! C C C C Q Q Q Q 0 0 0 0 } } } } : : : : i i i i R R R R ] ] ] ] 3 3 3 3 S S S S + + + + * * * * ",
"P P P P ; ; ; ; ; ; ; ; ! ! ! ! C C C C Q Q Q Q 0 0 0 0 } } } } : : : : i i i i R R R R ] ] ] ] 3 3 3 3 S S S S + + + + * * * * ",
"P P P P ; ; ; ; ; ; ; ; ! ! ! ! C C C C Q Q Q Q 0 0 0 0 } } } } : : : : i i i i R R R R ] ] ] ] 3 3 3 3 S S S S + + + + * * * * ",
"m m m m T T T T U U U U t t t t 9 9 9 9 V V V V W W W W X X X X o o o o B B B B 9 9 9 9 G G G G Y Y Y Y Z Z Z Z D D D D ` ` ` ` ",
"m m m m T T T T U U U U t t t t 9 9 9 9 V V V V W W W W X X X X o o o o B B B B 9 9 9 9 G G G G Y Y Y Y Z Z Z Z D D D D ` ` ` ` ",
"m m m m T T T T U U U U t t t t 9 9 9 9 V V V V W W W W X X X X o o o o B B B B 9 9 9 9 G G G G Y Y Y Y Z Z Z Z D D D D ` ` ` ` ",
"m m m m T T T T U U U U t t t t 9 9 9 9 V V V V W W W W X X X X o o o o B B B B 9 9 9 9 G G G G Y Y Y Y Z Z Z Z D D D D ` ` ` ` ",
"H H H H i i i i = = = = x x x x : : : : { { { {  . . . .* * * * & & & & ! ! ! ! ! ! ! ! = = = = ........+.+.+.+.! ! ! ! + + + + ",
"H H H H i i i i = = = = x x x x : : : : { { { {  . . . .* * * * & & & & ! ! ! ! ! ! ! ! = = = = ........+.+.+.+.! ! ! ! + + + + ",
"H H H H i i i i = = = = x x x x : : : : { { { {  . . . .* * * * & & & & ! ! ! ! ! ! ! ! = = = = ........+.+.+.+.! ! ! ! + + + + ",
"H H H H i i i i = = = = x x x x : : : : { { { {  . . . .* * * * & & & & ! ! ! ! ! ! ! ! = = = = ........+.+.+.+.! ! ! ! + + + + ",
": : : : @.@.@.@.i i i i #.#.#.#.$.$.$.$.%.%.%.%._ _ _ _ ] ] ] ] &.&.&.&.{ { { { #.#.#.#.k k k k D D D D *.*.*.*.@ @ @ @ =.=.=.=.",
": : : : @.@.@.@.i i i i #.#.#.#.$.$.$.$.%.%.%.%._ _ _ _ ] ] ] ] &.&.&.&.{ { { { #.#.#.#.k k k k D D D D *.*.*.*.@ @ @ @ =.=.=.=.",
": : : : @.@.@.@.i i i i #.#.#.#.$.$.$.$.%.%.%.%._ _ _ _ ] ] ] ] &.&.&.&.{ { { { #.#.#.#.k k k k D D D D *.*.*.*.@ @ @ @ =.=.=.=.",
": : : : @.@.@.@.i i i i #.#.#.#.$.$.$.$.%.%.%.%._ _ _ _ ] ] ] ] &.&.&.&.{ { { { #.#.#.#.k k k k D D D D *.*.*.*.@ @ @ @ =.=.=.=.",
"-.-.-.-.D D D D { { { { i i i i A A A A ;.;.;.;.>.>.>.>.3 3 3 3 o o o o A A A A ,.,.,.,.m m m m C C C C [ [ [ [ , , , , L L L L ",
"-.-.-.-.D D D D { { { { i i i i A A A A ;.;.;.;.>.>.>.>.3 3 3 3 o o o o A A A A ,.,.,.,.m m m m C C C C [ [ [ [ , , , , L L L L ",
"-.-.-.-.D D D D { { { { i i i i A A A A ;.;.;.;.>.>.>.>.3 3 3 3 o o o o A A A A ,.,.,.,.m m m m C C C C [ [ [ [ , , , , L L L L ",
"-.-.-.-.D D D D { { { { i i i i A A A A ;.;.;.;.>.>.>.>.3 3 3 3 o o o o A A A A ,.,.,.,.m m m m C C C C [ [ [ [ , , , , L L L L ",
"1 1 1 1 '.'.'.'.).).).).6 6 6 6 !.!.!.!.g g g g #.#.#.#.~.~.~.~.).).).).{.{.{.{.].].].].{ { { { < < < < ^.^.^.^././././.L L L L ",
"1 1 1 1 '.'.'.'.).).).).6 6 6 6 !.!.!.!.g g g g #.#.#.#.~.~.~.~.).).).).{.{.{.{.].].].].{ { { { < < < < ^.^.^.^././././.L L L L ",
"1 1 1 1 '.'.'.'.).).).).6 6 6 6 !.!.!.!.g g g g #.#.#.#.~.~.~.~.).).).).{.{.{.{.].].].].{ { { { < < < < ^.^.^.^././././.L L L L ",
"1 1 1 1 '.'.'.'.).).).).6 6 6 6 !.!.!.!.g g g g #.#.#.#.~.~.~.~.).).).).{.{.{.{.].].].].{ { { { < < < < ^.^.^.^././././.L L L L ",
"(.(.(.(.m m m m ).).).)._._._._.:.:.:.:.& & & & R R R R { { { { ! ! ! ! <.<.<.<.C C C C &.&.&.&.{.{.{.{.[.[.[.[.T T T T }.}.}.}.",
"(.(.(.(.m m m m ).).).)._._._._.:.:.:.:.& & & & R R R R { { { { ! ! ! ! <.<.<.<.C C C C &.&.&.&.{.{.{.{.[.[.[.[.T T T T }.}.}.}.",
"(.(.(.(.m m m m ).).).)._._._._.:.:.:.:.& & & & R R R R { { { { ! ! ! ! <.<.<.<.C C C C &.&.&.&.{.{.{.{.[.[.[.[.T T T T }.}.}.}.",
"(.(.(.(.m m m m ).).).)._._._._.:.:.:.:.& & & & R R R R { { { { ! ! ! ! <.<.<.<.C C C C &.&.&.&.{.{.{.{.[.[.[.[.T T T T }.}.}.}.",
"O O O O ).).).).* * * * :.:.:.:.|.|.|.|.o o o o ).).).).! ! ! ! 1.1.1.1.D D D D ( ( ( ( 7 7 7 7 : : : : 2.2.2.2.3.3.3.3.].].].].",
"O O O O ).).).).* * * * :.:.:.:.|.|.|.|.o o o o ).).).).! ! ! ! 1.1.1.1.D D D D ( ( ( ( 7 7 7 7 : : : : 2.2.2.2.3.3.3.3.].].].].",
"O O O O ).).).).* * * * :.:.:.:.|.|.|.|.o o o o ).).).).! ! ! ! 1.1.1.1.D D D D ( ( ( ( 7 7 7 7 : : : : 2.2.2.2.3.3.3.3.].].].].",
"O O O O ).).).).* * * * :.:.:.:.|.|.|.|.o o o o ).).).).! ! ! ! 1.1.1.1.D D D D ( ( ( ( 7 7 7 7 : : : : 2.2.2.2.3.3.3.3.].].].]."};
