/* XPM */
static char * portal8_xpm[] = {
"64 64 118 2",
"  	c #6F14D0",
". 	c #9E44E2",
"+ 	c #6E13CF",
"@ 	c #660ECB",
"# 	c #5405C1",
"$ 	c #4200B3",
"% 	c #4F03BE",
"& 	c #4701B7",
"* 	c #4C03BC",
"= 	c #3800A3",
"- 	c #3D00AD",
"; 	c #6A10CD",
"> 	c #4802B8",
", 	c #3900A5",
"' 	c #4801B8",
") 	c #680FCC",
"! 	c #3E00AE",
"~ 	c #3B00AA",
"{ 	c #5505C2",
"] 	c #4F03BD",
"^ 	c #4701B8",
"/ 	c #4D03BC",
"( 	c #640DCA",
"_ 	c #4401B5",
": 	c #3F00AF",
"< 	c #4501B6",
"[ 	c #4601B6",
"} 	c #4100B1",
"| 	c #5204C0",
"1 	c #3A00A7",
"2 	c #963AE0",
"3 	c #8123D7",
"4 	c #6C12CE",
"5 	c #5104BF",
"6 	c #8426D9",
"7 	c #6B11CE",
"8 	c #3C00AA",
"9 	c #3800A2",
"0 	c #3C00AC",
"a 	c #5B08C5",
"b 	c #9134DE",
"c 	c #6910CD",
"d 	c #4401B4",
"e 	c #4200B2",
"f 	c #5E0AC7",
"g 	c #4501B5",
"h 	c #5A07C4",
"i 	c #A147E3",
"j 	c #791CD4",
"k 	c #4902B9",
"l 	c #620BC9",
"m 	c #9032DD",
"n 	c #7015D0",
"o 	c #3800A4",
"p 	c #4100B2",
"q 	c #3C00AB",
"r 	c #3700A1",
"s 	c #5807C4",
"t 	c #A44CE4",
"u 	c #7518D2",
"v 	c #791BD4",
"w 	c #5305C0",
"x 	c #4E03BD",
"y 	c #4B02BA",
"z 	c #3700A2",
"A 	c #4C02BB",
"B 	c #5706C3",
"C 	c #5004BE",
"D 	c #3A00A8",
"E 	c #620CC9",
"F 	c #4A02BA",
"G 	c #7115D0",
"H 	c #7F21D7",
"I 	c #3D00AC",
"J 	c #670FCC",
"K 	c #5506C2",
"L 	c #630CCA",
"M 	c #5807C3",
"N 	c #610BC8",
"O 	c #9E44E3",
"P 	c #650DCA",
"Q 	c #4000B0",
"R 	c #882ADA",
"S 	c #5505C1",
"T 	c #8D2FDC",
"U 	c #8224D8",
"V 	c #8C2EDC",
"W 	c #983DE0",
"X 	c #781BD4",
"Y 	c #6A11CD",
"Z 	c #640CCA",
"` 	c #5204BF",
" .	c #8123D8",
"..	c #610BC9",
"+.	c #7619D3",
"@.	c #7417D2",
"#.	c #37009F",
"$.	c #4300B3",
"%.	c #37009D",
"&.	c #8527D9",
"*.	c #7116D1",
"=.	c #8022D7",
"-.	c #8B2DDB",
";.	c #8325D8",
">.	c #5606C2",
",.	c #771AD3",
"'.	c #8A2CDB",
").	c #5806C3",
"!.	c #4601B7",
"~.	c #5F0AC7",
"{.	c #7B1DD5",
"].	c #7418D2",
"^.	c #5F0AC8",
"/.	c #7216D1",
"(.	c #5C08C6",
"_.	c #5C09C6",
":.	c #7014D0",
"<.	c #3700A0",
"        . . . . + + + + @ @ @ @ # # # # $ $ $ $ % % % % & & & & * * * * = = = = - - - - ; ; ; ; @ @ @ @ > > > > , , , , ' ' ' ' ",
"        . . . . + + + + @ @ @ @ # # # # $ $ $ $ % % % % & & & & * * * * = = = = - - - - ; ; ; ; @ @ @ @ > > > > , , , , ' ' ' ' ",
"        . . . . + + + + @ @ @ @ # # # # $ $ $ $ % % % % & & & & * * * * = = = = - - - - ; ; ; ; @ @ @ @ > > > > , , , , ' ' ' ' ",
"        . . . . + + + + @ @ @ @ # # # # $ $ $ $ % % % % & & & & * * * * = = = = - - - - ; ; ; ; @ @ @ @ > > > > , , , , ' ' ' ' ",
"+ + + + # # # # ) ) ) ) @ @ @ @ ! ! ! ! ~ ~ ~ ~ { { { { ] ] ] ]         ^ ^ ^ ^ / / / / ( ( ( ( _ _ _ _ : : : : < < < < [ [ [ [ ",
"+ + + + # # # # ) ) ) ) @ @ @ @ ! ! ! ! ~ ~ ~ ~ { { { { ] ] ] ]         ^ ^ ^ ^ / / / / ( ( ( ( _ _ _ _ : : : : < < < < [ [ [ [ ",
"+ + + + # # # # ) ) ) ) @ @ @ @ ! ! ! ! ~ ~ ~ ~ { { { { ] ] ] ]         ^ ^ ^ ^ / / / / ( ( ( ( _ _ _ _ : : : : < < < < [ [ [ [ ",
"+ + + + # # # # ) ) ) ) @ @ @ @ ! ! ! ! ~ ~ ~ ~ { { { { ] ] ] ]         ^ ^ ^ ^ / / / / ( ( ( ( _ _ _ _ : : : : < < < < [ [ [ [ ",
": : : : } } } } | | | | 1 1 1 1 = = = = ( ( ( ( 2 2 2 2 @ @ @ @ 3 3 3 3 4 4 4 4 5 5 5 5 6 6 6 6 7 7 7 7 8 8 8 8 ~ ~ ~ ~ & & & & ",
": : : : } } } } | | | | 1 1 1 1 = = = = ( ( ( ( 2 2 2 2 @ @ @ @ 3 3 3 3 4 4 4 4 5 5 5 5 6 6 6 6 7 7 7 7 8 8 8 8 ~ ~ ~ ~ & & & & ",
": : : : } } } } | | | | 1 1 1 1 = = = = ( ( ( ( 2 2 2 2 @ @ @ @ 3 3 3 3 4 4 4 4 5 5 5 5 6 6 6 6 7 7 7 7 8 8 8 8 ~ ~ ~ ~ & & & & ",
": : : : } } } } | | | | 1 1 1 1 = = = = ( ( ( ( 2 2 2 2 @ @ @ @ 3 3 3 3 4 4 4 4 5 5 5 5 6 6 6 6 7 7 7 7 8 8 8 8 ~ ~ ~ ~ & & & & ",
"9 9 9 9 $ $ $ $ 0 0 0 0 1 1 1 1 a a a a b b b b c c c c d d d d e e e e f f f f g g g g h h h h i i i i j j j j ! ! ! ! 0 0 0 0 ",
"9 9 9 9 $ $ $ $ 0 0 0 0 1 1 1 1 a a a a b b b b c c c c d d d d e e e e f f f f g g g g h h h h i i i i j j j j ! ! ! ! 0 0 0 0 ",
"9 9 9 9 $ $ $ $ 0 0 0 0 1 1 1 1 a a a a b b b b c c c c d d d d e e e e f f f f g g g g h h h h i i i i j j j j ! ! ! ! 0 0 0 0 ",
"9 9 9 9 $ $ $ $ 0 0 0 0 1 1 1 1 a a a a b b b b c c c c d d d d e e e e f f f f g g g g h h h h i i i i j j j j ! ! ! ! 0 0 0 0 ",
"k k k k l l l l k k k k ( ( ( ( m m m m n n n n - - - - & & & & o o o o p p p p q q q q r r r r s s s s t t t t n n n n < < < < ",
"k k k k l l l l k k k k ( ( ( ( m m m m n n n n - - - - & & & & o o o o p p p p q q q q r r r r s s s s t t t t n n n n < < < < ",
"k k k k l l l l k k k k ( ( ( ( m m m m n n n n - - - - & & & & o o o o p p p p q q q q r r r r s s s s t t t t n n n n < < < < ",
"k k k k l l l l k k k k ( ( ( ( m m m m n n n n - - - - & & & & o o o o p p p p q q q q r r r r s s s s t t t t n n n n < < < < ",
"u u u u v v v v k k k k ) ) ) ) ( ( ( ( & & & & g g g g _ _ _ _ 8 8 8 8 - - - - k k k k ! ! ! ! 1 1 1 1 w w w w v v v v x x x x ",
"u u u u v v v v k k k k ) ) ) ) ( ( ( ( & & & & g g g g _ _ _ _ 8 8 8 8 - - - - k k k k ! ! ! ! 1 1 1 1 w w w w v v v v x x x x ",
"u u u u v v v v k k k k ) ) ) ) ( ( ( ( & & & & g g g g _ _ _ _ 8 8 8 8 - - - - k k k k ! ! ! ! 1 1 1 1 w w w w v v v v x x x x ",
"u u u u v v v v k k k k ) ) ) ) ( ( ( ( & & & & g g g g _ _ _ _ 8 8 8 8 - - - - k k k k ! ! ! ! 1 1 1 1 w w w w v v v v x x x x ",
"y y y y > > > > o o o o k k k k n n n n ( ( ( ( < < < < z z z z A A A A 5 5 5 5 ' ' ' ' B B B B ! ! ! ! d d d d 5 5 5 5 1 1 1 1 ",
"y y y y > > > > o o o o k k k k n n n n ( ( ( ( < < < < z z z z A A A A 5 5 5 5 ' ' ' ' B B B B ! ! ! ! d d d d 5 5 5 5 1 1 1 1 ",
"y y y y > > > > o o o o k k k k n n n n ( ( ( ( < < < < z z z z A A A A 5 5 5 5 ' ' ' ' B B B B ! ! ! ! d d d d 5 5 5 5 1 1 1 1 ",
"y y y y > > > > o o o o k k k k n n n n ( ( ( ( < < < < z z z z A A A A 5 5 5 5 ' ' ' ' B B B B ! ! ! ! d d d d 5 5 5 5 1 1 1 1 ",
"C C C C A A A A D D D D g g g g ; ; ; ; E E E E F F F F r r r r j j j j G G G G H H H H 5 5 5 5 o o o o I I I I J J J J C C C C ",
"C C C C A A A A D D D D g g g g ; ; ; ; E E E E F F F F r r r r j j j j G G G G H H H H 5 5 5 5 o o o o I I I I J J J J C C C C ",
"C C C C A A A A D D D D g g g g ; ; ; ; E E E E F F F F r r r r j j j j G G G G H H H H 5 5 5 5 o o o o I I I I J J J J C C C C ",
"C C C C A A A A D D D D g g g g ; ; ; ; E E E E F F F F r r r r j j j j G G G G H H H H 5 5 5 5 o o o o I I I I J J J J C C C C ",
"K K K K ) ) ) ) | | | | L L L L 4 4 4 4 M M M M c c c c 5 5 5 5 N N N N O O O O P P P P > > > > Q Q Q Q M M M M R R R R S S S S ",
"K K K K ) ) ) ) | | | | L L L L 4 4 4 4 M M M M c c c c 5 5 5 5 N N N N O O O O P P P P > > > > Q Q Q Q M M M M R R R R S S S S ",
"K K K K ) ) ) ) | | | | L L L L 4 4 4 4 M M M M c c c c 5 5 5 5 N N N N O O O O P P P P > > > > Q Q Q Q M M M M R R R R S S S S ",
"K K K K ) ) ) ) | | | | L L L L 4 4 4 4 M M M M c c c c 5 5 5 5 N N N N O O O O P P P P > > > > Q Q Q Q M M M M R R R R S S S S ",
"1 1 1 1 & & & & - - - - ' ' ' ' T T T T U U U U { { { { V V V V W W W W X X X X Y Y Y Y Z Z Z Z : : : : d d d d ` ` ` ` , , , , ",
"1 1 1 1 & & & & - - - - ' ' ' ' T T T T U U U U { { { { V V V V W W W W X X X X Y Y Y Y Z Z Z Z : : : : d d d d ` ` ` ` , , , , ",
"1 1 1 1 & & & & - - - - ' ' ' ' T T T T U U U U { { { { V V V V W W W W X X X X Y Y Y Y Z Z Z Z : : : : d d d d ` ` ` ` , , , , ",
"1 1 1 1 & & & & - - - - ' ' ' ' T T T T U U U U { { { { V V V V W W W W X X X X Y Y Y Y Z Z Z Z : : : : d d d d ` ` ` ` , , , , ",
"} } } } w w w w : : : : r r r r K K K K  . . . .X X X X         u u u u ........+.+.+.+.& & & & o o o o ' ' ' ' E E E E & & & & ",
"} } } } w w w w : : : : r r r r K K K K  . . . .X X X X         u u u u ........+.+.+.+.& & & & o o o o ' ' ' ' E E E E & & & & ",
"} } } } w w w w : : : : r r r r K K K K  . . . .X X X X         u u u u ........+.+.+.+.& & & & o o o o ' ' ' ' E E E E & & & & ",
"} } } } w w w w : : : : r r r r K K K K  . . . .X X X X         u u u u ........+.+.+.+.& & & & o o o o ' ' ' ' E E E E & & & & ",
"+ + + + G G G G @.@.@.@.0 0 0 0 #.#.#.#.F F F F c c c c # # # # ' ' ' ' ........$.$.$.$.%.%.%.%.* * * * &.&.&.&.*.*.*.*.a a a a ",
"+ + + + G G G G @.@.@.@.0 0 0 0 #.#.#.#.F F F F c c c c # # # # ' ' ' ' ........$.$.$.$.%.%.%.%.* * * * &.&.&.&.*.*.*.*.a a a a ",
"+ + + + G G G G @.@.@.@.0 0 0 0 #.#.#.#.F F F F c c c c # # # # ' ' ' ' ........$.$.$.$.%.%.%.%.* * * * &.&.&.&.*.*.*.*.a a a a ",
"+ + + + G G G G @.@.@.@.0 0 0 0 #.#.#.#.F F F F c c c c # # # # ' ' ' ' ........$.$.$.$.%.%.%.%.* * * * &.&.&.&.*.*.*.*.a a a a ",
"+ + + + J J J J =.=.=.=.        : : : : q q q q C C C C Q Q Q Q 8 8 8 8 & & & & 9 9 9 9 y y y y -.-.-.-.U U U U w w w w @.@.@.@.",
"+ + + + J J J J =.=.=.=.        : : : : q q q q C C C C Q Q Q Q 8 8 8 8 & & & & 9 9 9 9 y y y y -.-.-.-.U U U U w w w w @.@.@.@.",
"+ + + + J J J J =.=.=.=.        : : : : q q q q C C C C Q Q Q Q 8 8 8 8 & & & & 9 9 9 9 y y y y -.-.-.-.U U U U w w w w @.@.@.@.",
"+ + + + J J J J =.=.=.=.        : : : : q q q q C C C C Q Q Q Q 8 8 8 8 & & & & 9 9 9 9 y y y y -.-.-.-.U U U U w w w w @.@.@.@.",
"C C C C E E E E E E E E ;.;.;.;.h h h h F F F F ........M M M M >.>.>.>.| | | | & & & & ,.,.,.,.'.'.'.'.' ' ' ' d d d d ).).).).",
"C C C C E E E E E E E E ;.;.;.;.h h h h F F F F ........M M M M >.>.>.>.| | | | & & & & ,.,.,.,.'.'.'.'.' ' ' ' d d d d ).).).).",
"C C C C E E E E E E E E ;.;.;.;.h h h h F F F F ........M M M M >.>.>.>.| | | | & & & & ,.,.,.,.'.'.'.'.' ' ' ' d d d d ).).).).",
"C C C C E E E E E E E E ;.;.;.;.h h h h F F F F ........M M M M >.>.>.>.| | | | & & & & ,.,.,.,.'.'.'.'.' ' ' ' d d d d ).).).).",
"! ! ! ! v v v v U U U U ; ; ; ; A A A A !.!.!.!.~.~.~.~.{.{.{.{.].].].].% % % % w w w w ^.^.^.^.5 5 5 5 ' ' ' ' $ $ $ $ = = = = ",
"! ! ! ! v v v v U U U U ; ; ; ; A A A A !.!.!.!.~.~.~.~.{.{.{.{.].].].].% % % % w w w w ^.^.^.^.5 5 5 5 ' ' ' ' $ $ $ $ = = = = ",
"! ! ! ! v v v v U U U U ; ; ; ; A A A A !.!.!.!.~.~.~.~.{.{.{.{.].].].].% % % % w w w w ^.^.^.^.5 5 5 5 ' ' ' ' $ $ $ $ = = = = ",
"! ! ! ! v v v v U U U U ; ; ; ; A A A A !.!.!.!.~.~.~.~.{.{.{.{.].].].].% % % % w w w w ^.^.^.^.5 5 5 5 ' ' ' ' $ $ $ $ = = = = ",
"L L L L /./././.V V V V (.(.(.(.^ ^ ^ ^ e e e e _._._._.:.:.:.:.7 7 7 7 F F F F J J J J &.&.&.&.w w w w <.<.<.<.~ ~ ~ ~ & & & & ",
"L L L L /./././.V V V V (.(.(.(.^ ^ ^ ^ e e e e _._._._.:.:.:.:.7 7 7 7 F F F F J J J J &.&.&.&.w w w w <.<.<.<.~ ~ ~ ~ & & & & ",
"L L L L /./././.V V V V (.(.(.(.^ ^ ^ ^ e e e e _._._._.:.:.:.:.7 7 7 7 F F F F J J J J &.&.&.&.w w w w <.<.<.<.~ ~ ~ ~ & & & & ",
"L L L L /./././.V V V V (.(.(.(.^ ^ ^ ^ e e e e _._._._.:.:.:.:.7 7 7 7 F F F F J J J J &.&.&.&.w w w w <.<.<.<.~ ~ ~ ~ & & & & "};
