/* XPM */
static char * portal2_xpm[] = {
"64 64 121 2",
"  	c #892BDB",
". 	c #5907C4",
"+ 	c #620CC9",
"@ 	c #9C41E2",
"# 	c #6910CD",
"$ 	c #3B00A9",
"% 	c #3A00A8",
"& 	c #4C02BB",
"* 	c #4200B2",
"= 	c #4200B3",
"- 	c #5506C2",
"; 	c #3D00AD",
"> 	c #37009D",
", 	c #4601B6",
"' 	c #7B1DD5",
") 	c #7B1ED5",
"! 	c #7F21D7",
"~ 	c #791CD4",
"{ 	c #A44CE4",
"] 	c #771AD3",
"^ 	c #4701B7",
"/ 	c #4300B3",
"( 	c #5E0AC7",
"_ 	c #8A2CDB",
": 	c #6F14D0",
"< 	c #5C08C6",
"[ 	c #983DE0",
"} 	c #680FCC",
"| 	c #3E00AE",
"1 	c #3C00AB",
"2 	c #5B08C5",
"3 	c #9032DD",
"4 	c #5D09C6",
"5 	c #6A10CD",
"6 	c #4D03BC",
"7 	c #4F03BE",
"8 	c #5305C0",
"9 	c #7518D2",
"0 	c #5204BF",
"a 	c #4601B7",
"b 	c #3D00AC",
"c 	c #5C09C6",
"d 	c #4C03BB",
"e 	c #4501B5",
"f 	c #600BC8",
"g 	c #5606C2",
"h 	c #3800A2",
"i 	c #5405C1",
"j 	c #3B00AA",
"k 	c #4A02BA",
"l 	c #3C00AA",
"m 	c #670ECB",
"n 	c #650DCB",
"o 	c #4301B4",
"p 	c #4401B4",
"q 	c #5A08C5",
"r 	c #5807C3",
"s 	c #610BC8",
"t 	c #5F0AC8",
"u 	c #8D2FDC",
"v 	c #640DCA",
"w 	c #3900A5",
"x 	c #3700A1",
"y 	c #5E09C7",
"z 	c #973BE0",
"A 	c #7418D2",
"B 	c #4100B1",
"C 	c #4C03BC",
"D 	c #8022D7",
"E 	c #7417D2",
"F 	c #4E03BC",
"G 	c #5F0AC7",
"H 	c #630CCA",
"I 	c #3900A6",
"J 	c #4701B8",
"K 	c #8B2DDB",
"L 	c #7619D3",
"M 	c #9538DF",
"N 	c #7D1FD6",
"O 	c #3800A4",
"P 	c #4A02B9",
"Q 	c #6C12CE",
"R 	c #3F00AF",
"S 	c #4401B5",
"T 	c #5706C3",
"U 	c #7E20D6",
"V 	c #8527D9",
"W 	c #7317D1",
"X 	c #4000B0",
"Y 	c #4902B9",
"Z 	c #3900A7",
"` 	c #4E03BD",
" .	c #781BD4",
"..	c #6D12CF",
"+.	c #9337DF",
"@.	c #660ECB",
"#.	c #8426D9",
"$.	c #7A1CD5",
"%.	c #5104BF",
"&.	c #5004BE",
"*.	c #7C1ED5",
"=.	c #6D12CE",
"-.	c #4F03BD",
";.	c #8B2DDC",
">.	c #8123D7",
",.	c #4B02BA",
"'.	c #7115D1",
").	c #4501B6",
"!.	c #3A00A7",
"~.	c #4B02BB",
"{.	c #5204C0",
"].	c #610BC9",
"^.	c #3700A2",
"/.	c #3700A0",
"(.	c #37009C",
"_.	c #6F14CF",
":.	c #9B40E1",
"<.	c #7216D1",
"[.	c #4100B2",
"}.	c #600AC8",
"|.	c #9437DF",
"        . . . . + + + + @ @ @ @ # # # # $ $ $ $ % % % % & & & & * * * * = = = = - - - - ; ; ; ; > > > > , , , , ' ' ' ' ) ) ) ) ",
"        . . . . + + + + @ @ @ @ # # # # $ $ $ $ % % % % & & & & * * * * = = = = - - - - ; ; ; ; > > > > , , , , ' ' ' ' ) ) ) ) ",
"        . . . . + + + + @ @ @ @ # # # # $ $ $ $ % % % % & & & & * * * * = = = = - - - - ; ; ; ; > > > > , , , , ' ' ' ' ) ) ) ) ",
"        . . . . + + + + @ @ @ @ # # # # $ $ $ $ % % % % & & & & * * * * = = = = - - - - ; ; ; ; > > > > , , , , ' ' ' ' ) ) ) ) ",
"! ! ! ! ~ ~ ~ ~ { { { { ] ] ] ] ^ ^ ^ ^ / / / / ( ( ( ( _ _ _ _ : : : : < < < < [ [ [ [ } } } } | | | | 1 1 1 1 2 2 2 2 3 3 3 3 ",
"! ! ! ! ~ ~ ~ ~ { { { { ] ] ] ] ^ ^ ^ ^ / / / / ( ( ( ( _ _ _ _ : : : : < < < < [ [ [ [ } } } } | | | | 1 1 1 1 2 2 2 2 3 3 3 3 ",
"! ! ! ! ~ ~ ~ ~ { { { { ] ] ] ] ^ ^ ^ ^ / / / / ( ( ( ( _ _ _ _ : : : : < < < < [ [ [ [ } } } } | | | | 1 1 1 1 2 2 2 2 3 3 3 3 ",
"! ! ! ! ~ ~ ~ ~ { { { { ] ] ] ] ^ ^ ^ ^ / / / / ( ( ( ( _ _ _ _ : : : : < < < < [ [ [ [ } } } } | | | | 1 1 1 1 2 2 2 2 3 3 3 3 ",
"4 4 4 4         5 5 5 5 6 6 6 6 7 7 7 7 8 8 8 8 9 9 9 9 . . . . 6 6 6 6 1 1 1 1 0 0 0 0 ' ' ' ' + + + + a a a a b b b b c c c c ",
"4 4 4 4         5 5 5 5 6 6 6 6 7 7 7 7 8 8 8 8 9 9 9 9 . . . . 6 6 6 6 1 1 1 1 0 0 0 0 ' ' ' ' + + + + a a a a b b b b c c c c ",
"4 4 4 4         5 5 5 5 6 6 6 6 7 7 7 7 8 8 8 8 9 9 9 9 . . . . 6 6 6 6 1 1 1 1 0 0 0 0 ' ' ' ' + + + + a a a a b b b b c c c c ",
"4 4 4 4         5 5 5 5 6 6 6 6 7 7 7 7 8 8 8 8 9 9 9 9 . . . . 6 6 6 6 1 1 1 1 0 0 0 0 ' ' ' ' + + + + a a a a b b b b c c c c ",
"d d d d 2 2 2 2 1 1 1 1 e e e e 8 8 8 8 f f f f g g g g % % % % ^ ^ ^ ^ h h h h b b b b i i i i i i i i 6 6 6 6 , , , , j j j j ",
"d d d d 2 2 2 2 1 1 1 1 e e e e 8 8 8 8 f f f f g g g g % % % % ^ ^ ^ ^ h h h h b b b b i i i i i i i i 6 6 6 6 , , , , j j j j ",
"d d d d 2 2 2 2 1 1 1 1 e e e e 8 8 8 8 f f f f g g g g % % % % ^ ^ ^ ^ h h h h b b b b i i i i i i i i 6 6 6 6 , , , , j j j j ",
"d d d d 2 2 2 2 1 1 1 1 e e e e 8 8 8 8 f f f f g g g g % % % % ^ ^ ^ ^ h h h h b b b b i i i i i i i i 6 6 6 6 , , , , j j j j ",
"k k k k l l l l j j j j 8 8 8 8 m m m m c c c c j j j j ; ; ; ; ^ ^ ^ ^ n n n n o o o o p p p p 0 0 0 0 q q q q r r r r b b b b ",
"k k k k l l l l j j j j 8 8 8 8 m m m m c c c c j j j j ; ; ; ; ^ ^ ^ ^ n n n n o o o o p p p p 0 0 0 0 q q q q r r r r b b b b ",
"k k k k l l l l j j j j 8 8 8 8 m m m m c c c c j j j j ; ; ; ; ^ ^ ^ ^ n n n n o o o o p p p p 0 0 0 0 q q q q r r r r b b b b ",
"k k k k l l l l j j j j 8 8 8 8 m m m m c c c c j j j j ; ; ; ; ^ ^ ^ ^ n n n n o o o o p p p p 0 0 0 0 q q q q r r r r b b b b ",
"s s s s o o o o t t t t u u u u v v v v w w w w x x x x y y y y 8 8 8 8 z z z z A A A A a a a a B B B B C C C C D D D D s s s s ",
"s s s s o o o o t t t t u u u u v v v v w w w w x x x x y y y y 8 8 8 8 z z z z A A A A a a a a B B B B C C C C D D D D s s s s ",
"s s s s o o o o t t t t u u u u v v v v w w w w x x x x y y y y 8 8 8 8 z z z z A A A A a a a a B B B B C C C C D D D D s s s s ",
"s s s s o o o o t t t t u u u u v v v v w w w w x x x x y y y y 8 8 8 8 z z z z A A A A a a a a B B B B C C C C D D D D s s s s ",
"E E E E F F F F G G G G H H H H * * * * I I I I J J J J 4 4 4 4 K K K K L L L L M M M M N N N N ^ ^ ^ ^ O O O O 8 8 8 8 ~ ~ ~ ~ ",
"E E E E F F F F G G G G H H H H * * * * I I I I J J J J 4 4 4 4 K K K K L L L L M M M M N N N N ^ ^ ^ ^ O O O O 8 8 8 8 ~ ~ ~ ~ ",
"E E E E F F F F G G G G H H H H * * * * I I I I J J J J 4 4 4 4 K K K K L L L L M M M M N N N N ^ ^ ^ ^ O O O O 8 8 8 8 ~ ~ ~ ~ ",
"E E E E F F F F G G G G H H H H * * * * I I I I J J J J 4 4 4 4 K K K K L L L L M M M M N N N N ^ ^ ^ ^ O O O O 8 8 8 8 ~ ~ ~ ~ ",
"} } } } P P P P n n n n Q Q Q Q R R R R % % % % e e e e S S S S T T T T U U U U V V V V 4 4 4 4 2 2 2 2 p p p p r r r r U U U U ",
"} } } } P P P P n n n n Q Q Q Q R R R R % % % % e e e e S S S S T T T T U U U U V V V V 4 4 4 4 2 2 2 2 p p p p r r r r U U U U ",
"} } } } P P P P n n n n Q Q Q Q R R R R % % % % e e e e S S S S T T T T U U U U V V V V 4 4 4 4 2 2 2 2 p p p p r r r r U U U U ",
"} } } } P P P P n n n n Q Q Q Q R R R R % % % % e e e e S S S S T T T T U U U U V V V V 4 4 4 4 2 2 2 2 p p p p r r r r U U U U ",
"& & & & l l l l 8 8 8 8 u u u u W W W W $ $ $ $ > > > > p p p p X X X X Y Y Y Y v v v v u u u u ] ] ] ] * * * * 1 1 1 1 Y Y Y Y ",
"& & & & l l l l 8 8 8 8 u u u u W W W W $ $ $ $ > > > > p p p p X X X X Y Y Y Y v v v v u u u u ] ] ] ] * * * * 1 1 1 1 Y Y Y Y ",
"& & & & l l l l 8 8 8 8 u u u u W W W W $ $ $ $ > > > > p p p p X X X X Y Y Y Y v v v v u u u u ] ] ] ] * * * * 1 1 1 1 Y Y Y Y ",
"& & & & l l l l 8 8 8 8 u u u u W W W W $ $ $ $ > > > > p p p p X X X X Y Y Y Y v v v v u u u u ] ] ] ] * * * * 1 1 1 1 Y Y Y Y ",
"g g g g * * * * Z Z Z Z ` ` ` `  . . . .........| | | | O O O O o o o o 8 8 8 8 +.+.+.+.! ! ! ! e e e e I I I I ` ` ` ` @.@.@.@.",
"g g g g * * * * Z Z Z Z ` ` ` `  . . . .........| | | | O O O O o o o o 8 8 8 8 +.+.+.+.! ! ! ! e e e e I I I I ` ` ` ` @.@.@.@.",
"g g g g * * * * Z Z Z Z ` ` ` `  . . . .........| | | | O O O O o o o o 8 8 8 8 +.+.+.+.! ! ! ! e e e e I I I I ` ` ` ` @.@.@.@.",
"g g g g * * * * Z Z Z Z ` ` ` `  . . . .........| | | | O O O O o o o o 8 8 8 8 +.+.+.+.! ! ! ! e e e e I I I I ` ` ` ` @.@.@.@.",
"#.#.#.#.$.$.$.$.a a a a %.%.%.%.4 4 4 4 9 9 9 9  . . . .&.&.&.&.6 6 6 6 _ _ _ _  . . . .q q q q o o o o ^ ^ ^ ^ V V V V *.*.*.*.",
"#.#.#.#.$.$.$.$.a a a a %.%.%.%.4 4 4 4 9 9 9 9  . . . .&.&.&.&.6 6 6 6 _ _ _ _  . . . .q q q q o o o o ^ ^ ^ ^ V V V V *.*.*.*.",
"#.#.#.#.$.$.$.$.a a a a %.%.%.%.4 4 4 4 9 9 9 9  . . . .&.&.&.&.6 6 6 6 _ _ _ _  . . . .q q q q o o o o ^ ^ ^ ^ V V V V *.*.*.*.",
"#.#.#.#.$.$.$.$.a a a a %.%.%.%.4 4 4 4 9 9 9 9  . . . .&.&.&.&.6 6 6 6 _ _ _ _  . . . .q q q q o o o o ^ ^ ^ ^ V V V V *.*.*.*.",
"Y Y Y Y U U U U =.=.=.=.-.-.-.-.-.-.-.-.i i i i #.#.#.#.;.;.;.;.>.>.>.>. . . . .g g g g ,.,.,.,.r r r r t t t t '.'.'.'.).).).).",
"Y Y Y Y U U U U =.=.=.=.-.-.-.-.-.-.-.-.i i i i #.#.#.#.;.;.;.;.>.>.>.>. . . . .g g g g ,.,.,.,.r r r r t t t t '.'.'.'.).).).).",
"Y Y Y Y U U U U =.=.=.=.-.-.-.-.-.-.-.-.i i i i #.#.#.#.;.;.;.;.>.>.>.>. . . . .g g g g ,.,.,.,.r r r r t t t t '.'.'.'.).).).).",
"Y Y Y Y U U U U =.=.=.=.-.-.-.-.-.-.-.-.i i i i #.#.#.#.;.;.;.;.>.>.>.>. . . . .g g g g ,.,.,.,.r r r r t t t t '.'.'.'.).).).).",
"!.!.!.!.Y Y Y Y N N N N f f f f 6 6 6 6 | | | | 8 8 8 8 ] ] ] ] L L L L ~.~.~.~./ / / / {.{.{.{.].].].].f f f f * * * * !.!.!.!.",
"!.!.!.!.Y Y Y Y N N N N f f f f 6 6 6 6 | | | | 8 8 8 8 ] ] ] ] L L L L ~.~.~.~./ / / / {.{.{.{.].].].].f f f f * * * * !.!.!.!.",
"!.!.!.!.Y Y Y Y N N N N f f f f 6 6 6 6 | | | | 8 8 8 8 ] ] ] ] L L L L ~.~.~.~./ / / / {.{.{.{.].].].].f f f f * * * * !.!.!.!.",
"!.!.!.!.Y Y Y Y N N N N f f f f 6 6 6 6 | | | | 8 8 8 8 ] ] ] ] L L L L ~.~.~.~./ / / / {.{.{.{.].].].].f f f f * * * * !.!.!.!.",
"e e e e ^.^.^.^.& & & & V V V V ] ] ] ] | | | | /./././.k k k k R R R R (.(.(.(.-.-.-.-._._._._.g g g g | | | | h h h h p p p p ",
"e e e e ^.^.^.^.& & & & V V V V ] ] ] ] | | | | /./././.k k k k R R R R (.(.(.(.-.-.-.-._._._._.g g g g | | | | h h h h p p p p ",
"e e e e ^.^.^.^.& & & & V V V V ] ] ] ] | | | | /./././.k k k k R R R R (.(.(.(.-.-.-.-._._._._.g g g g | | | | h h h h p p p p ",
"e e e e ^.^.^.^.& & & & V V V V ] ] ] ] | | | | /./././.k k k k R R R R (.(.(.(.-.-.-.-._._._._.g g g g | | | | h h h h p p p p ",
"b b b b S S S S 1 1 1 1 g g g g :.:.:.:.H H H H X X X X + + + + & & & & & & & &         <.<.<.<.1 1 1 1 h h h h d d d d %.%.%.%.",
"b b b b S S S S 1 1 1 1 g g g g :.:.:.:.H H H H X X X X + + + + & & & & & & & &         <.<.<.<.1 1 1 1 h h h h d d d d %.%.%.%.",
"b b b b S S S S 1 1 1 1 g g g g :.:.:.:.H H H H X X X X + + + + & & & & & & & &         <.<.<.<.1 1 1 1 h h h h d d d d %.%.%.%.",
"b b b b S S S S 1 1 1 1 g g g g :.:.:.:.H H H H X X X X + + + + & & & & & & & &         <.<.<.<.1 1 1 1 h h h h d d d d %.%.%.%.",
"I I I I Y Y Y Y [.[.[.[.}.}.}.}.|.|.|.|.Q Q Q Q 1 1 1 1 &.&.&.&.b b b b ; ; ; ; r r r r {.{.{.{.* * * * ~.~.~.~.g g g g '.'.'.'.",
"I I I I Y Y Y Y [.[.[.[.}.}.}.}.|.|.|.|.Q Q Q Q 1 1 1 1 &.&.&.&.b b b b ; ; ; ; r r r r {.{.{.{.* * * * ~.~.~.~.g g g g '.'.'.'.",
"I I I I Y Y Y Y [.[.[.[.}.}.}.}.|.|.|.|.Q Q Q Q 1 1 1 1 &.&.&.&.b b b b ; ; ; ; r r r r {.{.{.{.* * * * ~.~.~.~.g g g g '.'.'.'.",
"I I I I Y Y Y Y [.[.[.[.}.}.}.}.|.|.|.|.Q Q Q Q 1 1 1 1 &.&.&.&.b b b b ; ; ; ; r r r r {.{.{.{.* * * * ~.~.~.~.g g g g '.'.'.'."};
