/* XPM */
static char * portal6_xpm[] = {
"64 64 128 2",
"  	c #3800A4",
". 	c #5807C3",
"+ 	c #5004BE",
"@ 	c #37009D",
"# 	c #4200B3",
"$ 	c #6B11CE",
"% 	c #7D1FD6",
"& 	c #4B02BB",
"* 	c #5706C3",
"= 	c #640DCA",
"- 	c #4000B1",
"; 	c #680FCC",
"> 	c #9337DF",
", 	c #5A07C4",
"' 	c #4100B2",
") 	c #3E00AD",
"! 	c #4100B1",
"~ 	c #4300B3",
"{ 	c #37009C",
"] 	c #4501B5",
"^ 	c #620CC9",
"/ 	c #4902B9",
"( 	c #3700A0",
"_ 	c #3D00AD",
": 	c #4C02BB",
"< 	c #781BD4",
"[ 	c #7E20D6",
"} 	c #5104BF",
"| 	c #3A00A7",
"1 	c #4801B8",
"2 	c #660ECB",
"3 	c #640CCA",
"4 	c #4B02BA",
"5 	c #4A02BA",
"6 	c #771AD3",
"7 	c #5305C0",
"8 	c #690FCD",
"9 	c #6A11CD",
"0 	c #4A02B9",
"a 	c #4C03BC",
"b 	c #4F03BE",
"c 	c #7216D1",
"d 	c #600AC8",
"e 	c #4F03BD",
"f 	c #7B1DD5",
"g 	c #5D09C7",
"h 	c #882ADA",
"i 	c #8022D7",
"j 	c #5D09C6",
"k 	c #5405C1",
"l 	c #5B08C5",
"m 	c #630CCA",
"n 	c #7C1FD6",
"o 	c #8325D8",
"p 	c #791BD4",
"q 	c #4501B6",
"r 	c #8324D8",
"s 	c #892BDB",
"t 	c #4701B7",
"u 	c #7115D1",
"v 	c #5A07C5",
"w 	c #4D03BC",
"x 	c #4601B6",
"y 	c #8426D9",
"z 	c #3F00AF",
"A 	c #650DCA",
"B 	c #4802B8",
"C 	c #3800A2",
"D 	c #8C2EDC",
"E 	c #9133DE",
"F 	c #3D00AC",
"G 	c #5C09C6",
"H 	c #6F14D0",
"I 	c #3900A5",
"J 	c #3C00AB",
"K 	c #5305C1",
"L 	c #4301B4",
"M 	c #9437DF",
"N 	c #600BC8",
"O 	c #4701B8",
"P 	c #4401B5",
"Q 	c #3C00AA",
"R 	c #6C12CE",
"S 	c #8224D8",
"T 	c #3900A6",
"U 	c #3A00A8",
"V 	c #7317D1",
"W 	c #5505C2",
"X 	c #3E00AE",
"Y 	c #4000B0",
"Z 	c #5E0AC7",
"` 	c #37009F",
" .	c #7014D0",
"..	c #7C1ED5",
"+.	c #973BE0",
"@.	c #7116D1",
"#.	c #5A08C5",
"$.	c #3700A1",
"%.	c #7317D2",
"&.	c #963AE0",
"*.	c #7115D0",
"=.	c #650DCB",
"-.	c #670ECC",
";.	c #9032DD",
">.	c #3B00AA",
",.	c #5E09C7",
"'.	c #5204BF",
").	c #6910CD",
"!.	c #4E03BD",
"~.	c #3900A7",
"{.	c #5C08C6",
"].	c #4401B4",
"^.	c #6D12CF",
"/.	c #5F0AC8",
"(.	c #6D13CF",
"_.	c #3A00A9",
":.	c #5606C2",
"<.	c #993DE1",
"[.	c #7015D0",
"}.	c #8D2FDC",
"|.	c #620BC9",
"1.	c #7F21D7",
"2.	c #9234DE",
"3.	c #7619D3",
"4.	c #8729DA",
"5.	c #9033DE",
"6.	c #5204C0",
"7.	c #5907C4",
"        . . . . + + + + @ @ @ @ # # # # $ $ $ $ % % % % & & & & * * * * = = = = - - - - ; ; ; ; > > > > , , , , ' ' ' ' ) ) ) ) ",
"        . . . . + + + + @ @ @ @ # # # # $ $ $ $ % % % % & & & & * * * * = = = = - - - - ; ; ; ; > > > > , , , , ' ' ' ' ) ) ) ) ",
"        . . . . + + + + @ @ @ @ # # # # $ $ $ $ % % % % & & & & * * * * = = = = - - - - ; ; ; ; > > > > , , , , ' ' ' ' ) ) ) ) ",
"        . . . . + + + + @ @ @ @ # # # # $ $ $ $ % % % % & & & & * * * * = = = = - - - - ; ; ; ; > > > > , , , , ' ' ' ' ) ) ) ) ",
"! ! ! ! ~ ~ ~ ~ { { { { ] ] ] ] ^ ^ ^ ^ ^ ^ ^ ^ / / / / ( ( ( ( _ _ _ _ : : : :         ~ ~ ~ ~ < < < < [ [ [ [ } } } } | | | | ",
"! ! ! ! ~ ~ ~ ~ { { { { ] ] ] ] ^ ^ ^ ^ ^ ^ ^ ^ / / / / ( ( ( ( _ _ _ _ : : : :         ~ ~ ~ ~ < < < < [ [ [ [ } } } } | | | | ",
"! ! ! ! ~ ~ ~ ~ { { { { ] ] ] ] ^ ^ ^ ^ ^ ^ ^ ^ / / / / ( ( ( ( _ _ _ _ : : : :         ~ ~ ~ ~ < < < < [ [ [ [ } } } } | | | | ",
"! ! ! ! ~ ~ ~ ~ { { { { ] ] ] ] ^ ^ ^ ^ ^ ^ ^ ^ / / / / ( ( ( ( _ _ _ _ : : : :         ~ ~ ~ ~ < < < < [ [ [ [ } } } } | | | | ",
"& & & &         1 1 1 1 2 2 2 2 3 3 3 3 4 4 4 4 ) ) ) ) # # # # 5 5 5 5 6 6 6 6 7 7 7 7 _ _ _ _ } } } } 8 8 8 8 9 9 9 9 0 0 0 0 ",
"& & & &         1 1 1 1 2 2 2 2 3 3 3 3 4 4 4 4 ) ) ) ) # # # # 5 5 5 5 6 6 6 6 7 7 7 7 _ _ _ _ } } } } 8 8 8 8 9 9 9 9 0 0 0 0 ",
"& & & &         1 1 1 1 2 2 2 2 3 3 3 3 4 4 4 4 ) ) ) ) # # # # 5 5 5 5 6 6 6 6 7 7 7 7 _ _ _ _ } } } } 8 8 8 8 9 9 9 9 0 0 0 0 ",
"& & & &         1 1 1 1 2 2 2 2 3 3 3 3 4 4 4 4 ) ) ) ) # # # # 5 5 5 5 6 6 6 6 7 7 7 7 _ _ _ _ } } } } 8 8 8 8 9 9 9 9 0 0 0 0 ",
"a a a a b b b b c c c c d d d d 7 7 7 7 7 7 7 7 e e e e f f f f g g g g h h h h i i i i j j j j k k k k l l l l m m m m n n n n ",
"a a a a b b b b c c c c d d d d 7 7 7 7 7 7 7 7 e e e e f f f f g g g g h h h h i i i i j j j j k k k k l l l l m m m m n n n n ",
"a a a a b b b b c c c c d d d d 7 7 7 7 7 7 7 7 e e e e f f f f g g g g h h h h i i i i j j j j k k k k l l l l m m m m n n n n ",
"a a a a b b b b c c c c d d d d 7 7 7 7 7 7 7 7 e e e e f f f f g g g g h h h h i i i i j j j j k k k k l l l l m m m m n n n n ",
"* * * * o o o o p p p p / / / / q q q q 7 7 7 7 r r r r s s s s * * * * t t t t c c c c u u u u v v v v w w w w x x x x y y y y ",
"* * * * o o o o p p p p / / / / q q q q 7 7 7 7 r r r r s s s s * * * * t t t t c c c c u u u u v v v v w w w w x x x x y y y y ",
"* * * * o o o o p p p p / / / / q q q q 7 7 7 7 r r r r s s s s * * * * t t t t c c c c u u u u v v v v w w w w x x x x y y y y ",
"* * * * o o o o p p p p / / / / q q q q 7 7 7 7 r r r r s s s s * * * * t t t t c c c c u u u u v v v v w w w w x x x x y y y y ",
"z z z z A A A A B B B B C C C C 1 1 1 1 D D D D E E E E + + + + b b b b F F F F # # # # G G G G H H H H k k k k I I I I J J J J ",
"z z z z A A A A B B B B C C C C 1 1 1 1 D D D D E E E E + + + + b b b b F F F F # # # # G G G G H H H H k k k k I I I I J J J J ",
"z z z z A A A A B B B B C C C C 1 1 1 1 D D D D E E E E + + + + b b b b F F F F # # # # G G G G H H H H k k k k I I I I J J J J ",
"z z z z A A A A B B B B C C C C 1 1 1 1 D D D D E E E E + + + + b b b b F F F F # # # # G G G G H H H H k k k k I I I I J J J J ",
"C C C C K K K K L L L L # # # # $ $ $ $ M M M M N N N N O O O O         P P P P @ @ @ @ Q Q Q Q R R R R S S S S + + + + T T T T ",
"C C C C K K K K L L L L # # # # $ $ $ $ M M M M N N N N O O O O         P P P P @ @ @ @ Q Q Q Q R R R R S S S S + + + + T T T T ",
"C C C C K K K K L L L L # # # # $ $ $ $ M M M M N N N N O O O O         P P P P @ @ @ @ Q Q Q Q R R R R S S S S + + + + T T T T ",
"C C C C K K K K L L L L # # # # $ $ $ $ M M M M N N N N O O O O         P P P P @ @ @ @ Q Q Q Q R R R R S S S S + + + + T T T T ",
"@ @ @ @ / / / / _ _ _ _ U U U U = = = = S S S S m m m m V V V V W W W W X X X X J J J J Y Y Y Y 7 7 7 7 Z Z Z Z B B B B ` ` ` ` ",
"@ @ @ @ / / / / _ _ _ _ U U U U = = = = S S S S m m m m V V V V W W W W X X X X J J J J Y Y Y Y 7 7 7 7 Z Z Z Z B B B B ` ` ` ` ",
"@ @ @ @ / / / / _ _ _ _ U U U U = = = = S S S S m m m m V V V V W W W W X X X X J J J J Y Y Y Y 7 7 7 7 Z Z Z Z B B B B ` ` ` ` ",
"@ @ @ @ / / / / _ _ _ _ U U U U = = = = S S S S m m m m V V V V W W W W X X X X J J J J Y Y Y Y 7 7 7 7 Z Z Z Z B B B B ` ` ` ` ",
"w w w w  . . . .5 5 5 5 I I I I L L L L ........+.+.+.+.@.@.@.@.m m m m #.#.#.#.5 5 5 5 $.$.$.$.! ! ! ! 2 2 2 2 ; ; ; ; w w w w ",
"w w w w  . . . .5 5 5 5 I I I I L L L L ........+.+.+.+.@.@.@.@.m m m m #.#.#.#.5 5 5 5 $.$.$.$.! ! ! ! 2 2 2 2 ; ; ; ; w w w w ",
"w w w w  . . . .5 5 5 5 I I I I L L L L ........+.+.+.+.@.@.@.@.m m m m #.#.#.#.5 5 5 5 $.$.$.$.! ! ! ! 2 2 2 2 ; ; ; ; w w w w ",
"w w w w  . . . .5 5 5 5 I I I I L L L L ........+.+.+.+.@.@.@.@.m m m m #.#.#.#.5 5 5 5 $.$.$.$.! ! ! ! 2 2 2 2 ; ; ; ; w w w w ",
"X X X X j j j j  . . . .} } } } P P P P ] ] ] ] %.%.%.%.&.&.&.&.*.*.*.*.=.=.=.=.$.$.$.$.| | | | -.-.-.-.;.;.;.;.* * * * x x x x ",
"X X X X j j j j  . . . .} } } } P P P P ] ] ] ] %.%.%.%.&.&.&.&.*.*.*.*.=.=.=.=.$.$.$.$.| | | | -.-.-.-.;.;.;.;.* * * * x x x x ",
"X X X X j j j j  . . . .} } } } P P P P ] ] ] ] %.%.%.%.&.&.&.&.*.*.*.*.=.=.=.=.$.$.$.$.| | | | -.-.-.-.;.;.;.;.* * * * x x x x ",
"X X X X j j j j  . . . .} } } } P P P P ] ] ] ] %.%.%.%.&.&.&.&.*.*.*.*.=.=.=.=.$.$.$.$.| | | | -.-.-.-.;.;.;.;.* * * * x x x x ",
"        >.>.>.>.,.,.,.,.k k k k '.'.'.'.Y Y Y Y _ _ _ _ d d d d * * * * ) ) ) ) X X X X #.#.#.#.).).).).,.,.,.,.C C C C F F F F ",
"        >.>.>.>.,.,.,.,.k k k k '.'.'.'.Y Y Y Y _ _ _ _ d d d d * * * * ) ) ) ) X X X X #.#.#.#.).).).).,.,.,.,.C C C C F F F F ",
"        >.>.>.>.,.,.,.,.k k k k '.'.'.'.Y Y Y Y _ _ _ _ d d d d * * * * ) ) ) ) X X X X #.#.#.#.).).).).,.,.,.,.C C C C F F F F ",
"        >.>.>.>.,.,.,.,.k k k k '.'.'.'.Y Y Y Y _ _ _ _ d d d d * * * * ) ) ) ) X X X X #.#.#.#.).).).).,.,.,.,.C C C C F F F F ",
"* * * * Q Q Q Q Y Y Y Y !.!.!.!.+ + + + * * * * C C C C T T T T U U U U ~.~.~.~.k k k k j j j j {.{.{.{.].].].].- - - - ,.,.,.,.",
"* * * * Q Q Q Q Y Y Y Y !.!.!.!.+ + + + * * * * C C C C T T T T U U U U ~.~.~.~.k k k k j j j j {.{.{.{.].].].].- - - - ,.,.,.,.",
"* * * * Q Q Q Q Y Y Y Y !.!.!.!.+ + + + * * * * C C C C T T T T U U U U ~.~.~.~.k k k k j j j j {.{.{.{.].].].].- - - - ,.,.,.,.",
"* * * * Q Q Q Q Y Y Y Y !.!.!.!.+ + + + * * * * C C C C T T T T U U U U ~.~.~.~.k k k k j j j j {.{.{.{.].].].].- - - - ,.,.,.,.",
"y y y y ^.^.^.^.- - - - 5 5 5 5 /./././.(.(.(.(.d d d d _._._._.U U U U N N N N 2 2 2 2 :.:.:.:.5 5 5 5 x x x x H H H H <.<.<.<.",
"y y y y ^.^.^.^.- - - - 5 5 5 5 /./././.(.(.(.(.d d d d _._._._.U U U U N N N N 2 2 2 2 :.:.:.:.5 5 5 5 x x x x H H H H <.<.<.<.",
"y y y y ^.^.^.^.- - - - 5 5 5 5 /./././.(.(.(.(.d d d d _._._._.U U U U N N N N 2 2 2 2 :.:.:.:.5 5 5 5 x x x x H H H H <.<.<.<.",
"y y y y ^.^.^.^.- - - - 5 5 5 5 /./././.(.(.(.(.d d d d _._._._.U U U U N N N N 2 2 2 2 :.:.:.:.5 5 5 5 x x x x H H H H <.<.<.<.",
"[.[.[.[.}.}.}.}.|.|.|.|.I I I I _ _ _ _ =.=.=.=.1.1.1.1.#.#.#.#.G G G G S S S S * * * * ) ) ) ) / / / / [.[.[.[.2.2.2.2.V V V V ",
"[.[.[.[.}.}.}.}.|.|.|.|.I I I I _ _ _ _ =.=.=.=.1.1.1.1.#.#.#.#.G G G G S S S S * * * * ) ) ) ) / / / / [.[.[.[.2.2.2.2.V V V V ",
"[.[.[.[.}.}.}.}.|.|.|.|.I I I I _ _ _ _ =.=.=.=.1.1.1.1.#.#.#.#.G G G G S S S S * * * * ) ) ) ) / / / / [.[.[.[.2.2.2.2.V V V V ",
"[.[.[.[.}.}.}.}.|.|.|.|.I I I I _ _ _ _ =.=.=.=.1.1.1.1.#.#.#.#.G G G G S S S S * * * * ) ) ) ) / / / / [.[.[.[.2.2.2.2.V V V V ",
"%.%.%.%.3.3.3.3.4.4.4.4.} } } } C C C C X X X X :.:.:.:._ _ _ _ 1 1 1 1 w w w w $.$.$.$.>.>.>.>.% % % % 5.5.5.5.l l l l * * * * ",
"%.%.%.%.3.3.3.3.4.4.4.4.} } } } C C C C X X X X :.:.:.:._ _ _ _ 1 1 1 1 w w w w $.$.$.$.>.>.>.>.% % % % 5.5.5.5.l l l l * * * * ",
"%.%.%.%.3.3.3.3.4.4.4.4.} } } } C C C C X X X X :.:.:.:._ _ _ _ 1 1 1 1 w w w w $.$.$.$.>.>.>.>.% % % % 5.5.5.5.l l l l * * * * ",
"%.%.%.%.3.3.3.3.4.4.4.4.} } } } C C C C X X X X :.:.:.:._ _ _ _ 1 1 1 1 w w w w $.$.$.$.>.>.>.>.% % % % 5.5.5.5.l l l l * * * * ",
"s s s s R R R R 8 8 8 8 : : : :         z z z z ^ ^ ^ ^ 6.6.6.6.j j j j . . . . z z z z w w w w ).).).).6.6.6.6.7.7.7.7.].].].].",
"s s s s R R R R 8 8 8 8 : : : :         z z z z ^ ^ ^ ^ 6.6.6.6.j j j j . . . . z z z z w w w w ).).).).6.6.6.6.7.7.7.7.].].].].",
"s s s s R R R R 8 8 8 8 : : : :         z z z z ^ ^ ^ ^ 6.6.6.6.j j j j . . . . z z z z w w w w ).).).).6.6.6.6.7.7.7.7.].].].].",
"s s s s R R R R 8 8 8 8 : : : :         z z z z ^ ^ ^ ^ 6.6.6.6.j j j j . . . . z z z z w w w w ).).).).6.6.6.6.7.7.7.7.].].].]."};
