/* XPM */
static char * steve_xpm[] = {
"18 34 52 1",
" 	c None",
".	c #2F200D",
"+	c #2B1E0D",
"@	c #2F1F0F",
"#	c #281C0B",
"$	c #241808",
"%	c #261A0A",
"&	c #2A1D0D",
"*	c #332411",
"=	c #422A12",
"-	c #3F2A15",
";	c #2C1E0E",
">	c #B6896C",
",	c #BD8E72",
"'	c #C69680",
")	c #BD8B72",
"!	c #BD8E74",
"~	c #AC765A",
"{	c #342512",
"]	c #AA7D66",
"^	c #B4846D",
"/	c #AD806D",
"(	c #9C725C",
"_	c #BB8972",
":	c #9C694C",
"<	c #FFFFFF",
"[	c #523D89",
"}	c #B57B67",
"|	c #9C6346",
"1	c #B37B62",
"2	c #B78272",
"3	c #6A4030",
"4	c #BE886C",
"5	c #A26A47",
"6	c #805334",
"7	c #905E43",
"8	c #965F40",
"9	c #774235",
"0	c #8F5E3E",
"a	c #815339",
"b	c #6F452C",
"c	c #6D432A",
"d	c #7A4E33",
"e	c #83553B",
"f	c #009E9E",
"g	c #00A8A8",
"h	c #00AFAF",
"i	c #009999",
"j	c #966F5B",
"k	c #463AA5",
"l	c #3A3189",
"m	c #6B6B6B",
"                  ",
"     .+@#$%+&     ",
"     +++*=-;#     ",
"     +>,')!~{     ",
"     ]^]/(_::     ",
"     ^<[}_[<]     ",
"     |1233456     ",
"     7899990a     ",
"     bcaadeed     ",
" fghgifa5aaffghgf ",
" hghfggfaafhhfhgh ",
" ghhhhhgfighhhhhg ",
" fhhfhhhfihhhfhhf ",
" ]]]]iihhihii]]]] ",
" ]j]]iihgihgi]]j] ",
" ]j]jihhighgij]j] ",
" ]]]jihhighgij]]] ",
" ]]]jhhhighhij]]] ",
" ]]]]iiighghi]]]] ",
" ]]j]kkkkklhi]j]] ",
" j]jjkkkkkklijj]j ",
"     kkkkkkkl     ",
"     kkkkkkkk     ",
"     kkkkkkkk     ",
"     kkkkkkkk     ",
"     kkkkllll     ",
"     kllkllll     ",
"     kkkkkkkk     ",
"     kkkkkkkk     ",
"     kkkkkkkk     ",
"     kkkkmmmm     ",
"     mmmmmmmm     ",
"     mmmmmmmm     ",
"                  "};