/* XPM */
static char *dae9d7fd3304475e9455c523937b40d0b3xcwUWWrQpWhj08[] = {
/* columns rows colors chars-per-pixel */
"64 64 105 2 ",
".  c #241808",
"X  c #261A0A",
"o  c #271B0A",
"O  c #281B0B",
"+  c #281C0B",
"@  c #291B0C",
"#  c #291C0C",
"$  c #2A1C0C",
"%  c #2A1D0D",
"&  c #2B1D0D",
"*  c #2B1E0D",
"=  c #2C1E0E",
"-  c #2F1F0F",
";  c #2F200D",
":  c #2E200F",
">  c #2E2110",
",  c #332112",
"<  c #332411",
"1  c #342512",
"2  c #3F2A15",
"3  c #3D2817",
"4  c #3F3F3F",
"5  c #422A12",
"6  c #432A17",
"7  c #472E1E",
"8  c #6D432A",
"9  c #6F452C",
"0  c #70492F",
"q  c #6A4030",
"w  c #774235",
"e  c #7A4E33",
"r  c #7D533B",
"t  c #3E3E45",
"y  c #3D3D47",
"u  c #2B2568",
"i  c #2C2568",
"p  c #2C2569",
"a  c #322B6D",
"s  c #312A6F",
"d  c #2F2770",
"f  c #302871",
"g  c #302872",
"h  c #006E6E",
"j  c #077473",
"k  c #007777",
"l  c #067676",
"z  c #007B7B",
"x  c #007E7E",
"c  c #387270",
"v  c #3B7370",
"b  c gray42",
"n  c #815134",
"m  c #805334",
"M  c #815339",
"N  c #855338",
"B  c #83553B",
"V  c #865438",
"C  c #875638",
"Z  c #8D593D",
"A  c #8D593E",
"S  c #8D5A3E",
"D  c #8F5A3E",
"F  c #8F5C3F",
"G  c #8F5E3E",
"H  c #925C3F",
"J  c #845E49",
"K  c #925C40",
"L  c #925D40",
"P  c #935D40",
"I  c #905E43",
"U  c #945E40",
"Y  c #945E41",
"T  c #955E41",
"R  c #955F41",
"E  c #965F40",
"W  c #965F41",
"Q  c #8B634C",
"!  c #9C6346",
"~  c #9C694C",
"^  c #966F5B",
"/  c #9C725C",
"(  c #A26A47",
")  c #AC765A",
"_  c #AA7D66",
"`  c #B37B62",
"'  c #B57B67",
"]  c #AD806D",
"[  c #B4846D",
"{  c #B6896C",
"}  c #BE886C",
"|  c #B78272",
" . c #BB8972",
".. c #BD8B72",
"X. c #BD8E72",
"o. c #BD8E74",
"O. c #3A3189",
"+. c #523D89",
"@. c #463AA5",
"#. c #009999",
"$. c #009E9E",
"%. c #00A8A8",
"&. c #00AFAF",
"*. c #C69680",
"=. c white",
"   c None",
/* pixels */
"                                        o o & & > > > : : & & - - + + o o o o & & & &                                           ",
"                                        o o & & > > > : : & & - - + + o o o o & & & &                                           ",
"                                        o o & & : : : & & & & & & < < 5 5 3 3 - - + +                                           ",
"                                        o o & & : : : & & & & & & < < 5 5 3 3 - - + +                                           ",
"                                        @ @ & & & & & & & { { X.X.*.*.....o.o.) ) 1 1                                           ",
"                                        @ @ & & & & & & & { { X.X.*.*.....o.o.) ) 1 1                                           ",
"                                        @ @ & & 3 3 3 _ _ [ [ _ _ ] ] / /  . .~ ~ ~ ~                                           ",
"                                        @ @ & & 3 3 3 _ _ [ [ _ _ ] ] / /  . .~ ~ ~ ~                                           ",
"                                        O O , , 0 0 0 [ [ =.=.+.+.' '  . .+.+.=.=._ _                                           ",
"                                        O O , , 0 0 0 [ [ =.=.+.+.' '  . .+.+.=.=._ _                                           ",
"                                        & & 7 7 C C C ! ! ` ` | | q q q q } } ( ( n n                                           ",
"                                        & & 7 7 C C C ! ! ` ` | | q q q q } } ( ( n n                                           ",
"                                        6 6 r r C C C I I E E w w w w w w w w F F M M                                           ",
"                                        6 6 r r C C C I I E E w w w w w w w w F F M M                                           ",
"                                        n n F F N N N 9 9 8 8 M M M M e e B B B B e e                                           ",
"                                        n n F F N N N 9 9 8 8 M M M M e e B B B B e e                                           ",
"                            z z x x $.$.%.%.&.&.%.%.%.#.#.$.$.M M ( ( M M M M $.$.$.$.%.%.&.&.%.%.$.$.                          ",
"                            z z x x $.$.%.%.&.&.%.%.%.#.#.$.$.M M ( ( M M M M $.$.$.$.%.%.&.&.%.%.$.$.                          ",
"                            h h k k &.&.%.%.&.&.$.$.$.%.%.%.%.$.$.M M M M $.$.&.&.&.&.$.$.&.&.%.%.&.&.                          ",
"                            h h k k &.&.%.%.&.&.$.$.$.%.%.%.%.$.$.M M M M $.$.&.&.&.&.$.$.&.&.%.%.&.&.                          ",
"                            j j l l %.%.&.&.&.&.&.&.&.&.&.&.&.%.%.$.$.#.#.%.%.&.&.&.&.&.&.&.&.&.&.%.%.                          ",
"                            j j l l %.%.&.&.&.&.&.&.&.&.&.&.&.%.%.$.$.#.#.%.%.&.&.&.&.&.&.&.&.&.&.%.%.                          ",
"                            c c c c $.$.&.&.&.&.$.$.$.&.&.&.&.&.&.$.$.#.#.&.&.&.&.&.&.$.$.&.&.&.&.$.$.                          ",
"                            c c c c $.$.&.&.&.&.$.$.$.&.&.&.&.&.&.$.$.#.#.&.&.&.&.&.&.$.$.&.&.&.&.$.$.                          ",
"                            Q Q J J _ _ _ _ _ _ _ _ _ #.#.#.#.&.&.&.&.#.#.&.&.#.#.#.#._ _ _ _ _ _ _ _                           ",
"                            Q Q J J _ _ _ _ _ _ _ _ _ #.#.#.#.&.&.&.&.#.#.&.&.#.#.#.#._ _ _ _ _ _ _ _                           ",
"                            E E S S _ _ ^ ^ _ _ _ _ _ #.#.#.#.&.&.%.%.#.#.&.&.%.%.#.#._ _ _ _ ^ ^ _ _                           ",
"                            E E S S _ _ ^ ^ _ _ _ _ _ #.#.#.#.&.&.%.%.#.#.&.&.%.%.#.#._ _ _ _ ^ ^ _ _                           ",
"                            S S S S _ _ ^ ^ _ _ ^ ^ ^ #.#.&.&.&.&.#.#.%.%.&.&.%.%.#.#.^ ^ _ _ ^ ^ _ _                           ",
"                            S S S S _ _ ^ ^ _ _ ^ ^ ^ #.#.&.&.&.&.#.#.%.%.&.&.%.%.#.#.^ ^ _ _ ^ ^ _ _                           ",
"                            S S E E _ _ _ _ _ _ ^ ^ ^ #.#.&.&.&.&.#.#.%.%.&.&.%.%.#.#.^ ^ _ _ _ _ _ _                           ",
"                            S S E E _ _ _ _ _ _ ^ ^ ^ #.#.&.&.&.&.#.#.%.%.&.&.%.%.#.#.^ ^ _ _ _ _ _ _                           ",
"                            S S I I _ _ _ _ _ _ ^ ^ ^ &.&.&.&.&.&.#.#.%.%.&.&.&.&.#.#.^ ^ _ _ _ _ _ _                           ",
"                            S S I H _ _ _ _ _ _ ^ ^ ^ &.&.&.&.&.&.#.#.%.%.&.&.&.&.#.#.^ ^ _ _ _ _ _ _                           ",
"                            I I H H _ _ _ _ _ _ _ _ _ #.#.#.#.#.#.%.%.&.&.%.%.&.&.#.#._ _ _ _ _ _ _ _                           ",
"                            I I H H _ _ _ _ _ _ _ _ _ #.#.#.#.#.#.%.%.&.&.%.%.&.&.#.#._ _ _ _ _ _ _ _                           ",
"                            E E I I _ _ _ _ ^ ^ _ _ _ @.@.@.@.@.@.@.@.@.@.O.O.&.&.#.#._ _ ^ ^ _ _ _ _                           ",
"                            E E I I _ _ _ _ ^ ^ _ _ _ @.@.@.@.@.@.@.@.@.@.O.O.&.&.#.#._ _ ^ ^ _ _ _ _                           ",
"                            E E E E ^ ^ _ _ ^ ^ ^ ^ ^ @.@.@.@.@.@.@.@.@.@.@.@.O.O.#.#.^ ^ ^ ^ _ _ ^ ^                           ",
"                            E E E E ^ ^ _ _ ^ ^ ^ ^ ^ @.@.@.@.@.@.@.@.@.@.@.@.O.O.#.#.^ ^ ^ ^ _ _ ^ ^                           ",
"                                            d d u u u @.@.@.@.@.@.@.@.@.@.@.@.@.@.O.O.                                          ",
"                                            d d u u u @.@.@.@.@.@.@.@.@.@.@.@.@.@.O.O.                                          ",
"                                            i i i i i @.@.@.@.@.@.@.@.@.@.@.@.@.@.@.@.                                          ",
"                                            i i i i i @.@.@.@.@.@.@.@.@.@.@.@.@.@.@.@.                                          ",
"                                            u u d d d @.@.@.@.@.@.@.@.@.@.@.@.@.@.@.@.                                          ",
"                                            u u d d d @.@.@.@.@.@.@.@.@.@.@.@.@.@.@.@.                                          ",
"                                            i i f f f @.@.@.@.@.@.@.@.@.@.@.@.@.@.@.@.                                          ",
"                                            i i f f f @.@.@.@.@.@.@.@.@.@.@.@.@.@.@.@.                                          ",
"                                            i i f f f @.@.@.@.@.@.@.@.O.O.O.O.O.O.O.O.                                          ",
"                                            i i f f f @.@.@.@.@.@.@.@.O.O.O.O.O.O.O.O.                                          ",
"                                            i i f f f @.@.O.O.O.O.@.@.O.O.O.O.O.O.O.O.                                          ",
"                                            i i f f f @.@.O.O.O.O.@.@.O.O.O.O.O.O.O.O.                                          ",
"                                            i i f f f @.@.@.@.@.@.@.@.@.@.@.@.@.@.@.@.                                          ",
"                                            i i f f f @.@.@.@.@.@.@.@.@.@.@.@.@.@.@.@.                                          ",
"                                            f f f f f @.@.@.@.@.@.@.@.@.@.@.@.@.@.@.@.                                          ",
"                                            f f f f f @.@.@.@.@.@.@.@.@.@.@.@.@.@.@.@.                                          ",
"                                            s s f f f @.@.@.@.@.@.@.@.@.@.@.@.@.@.@.@.                                          ",
"                                            s s f f f @.@.@.@.@.@.@.@.@.@.@.@.@.@.@.@.                                          ",
"                                            y y s s s @.@.@.@.@.@.@.@.b b b b b b b b                                           ",
"                                            y y s s s @.@.@.@.@.@.@.@.b b b b b b b b                                           ",
"                                            4 4 y y y b b b b b b b b b b b b b b b b                                           ",
"                                            4 4 y y y b b b b b b b b b b b b b b b b                                           ",
"                                            4 4 4 4 4 b b b b b b b b b b b b b b b b                                           ",
"                                            4 4 4 4 4 b b b b b b b b b b b b b b b b                                           "
};
