/* XPM */
static char * steve_prof1_xpm[] = {
"64 64 105 2",
"  	c none",
". 	c #271B0A",
"+ 	c #291C0C",
"@ 	c #2E2110",
"# 	c #2F200D",
"$ 	c #2B1E0D",
"% 	c #2F1F0F",
"& 	c #281C0B",
"* 	c #241808",
"= 	c #261A0A",
"- 	c #2A1D0D",
"; 	c #2E200F",
"> 	c #332411",
", 	c #422A12",
"' 	c #3F2A15",
") 	c #2C1E0E",
"! 	c #291B0C",
"~ 	c #B6896C",
"{ 	c #BD8E72",
"] 	c #C69680",
"^ 	c #BD8B72",
"/ 	c #BD8E74",
"( 	c #AC765A",
"_ 	c #342512",
": 	c #2B1D0D",
"< 	c #3D2817",
"[ 	c #AA7D66",
"} 	c #B4846D",
"| 	c #AD806D",
"1 	c #9C725C",
"2 	c #BB8972",
"3 	c #9C694C",
"4 	c #281B0B",
"5 	c #332112",
"6 	c #70492F",
"7 	c #FFFFFF",
"8 	c #523D89",
"9 	c #B57B67",
"0 	c #2A1C0C",
"a 	c #472E1E",
"b 	c #875638",
"c 	c #9C6346",
"d 	c #B37B62",
"e 	c #B78272",
"f 	c #6A4030",
"g 	c #BE886C",
"h 	c #A26A47",
"i 	c #805334",
"j 	c #432A17",
"k 	c #7D533B",
"l 	c #865438",
"m 	c #905E43",
"n 	c #965F40",
"o 	c #774235",
"p 	c #8F5E3E",
"q 	c #815339",
"r 	c #815134",
"s 	c #8F5C3F",
"t 	c #855338",
"u 	c #6F452C",
"v 	c #6D432A",
"w 	c #7A4E33",
"x 	c #83553B",
"y 	c #007B7B",
"z 	c #007E7E",
"A 	c #009E9E",
"B 	c #00A8A8",
"C 	c #00AFAF",
"D 	c #009999",
"E 	c #006E6E",
"F 	c #007777",
"G 	c #077473",
"H 	c #067676",
"I 	c #3B7370",
"J 	c #387270",
"K 	c #8B634C",
"L 	c #845E49",
"M 	c #945E41",
"N 	c #8D5A3E",
"O 	c #966F5B",
"P 	c #8F5A3E",
"Q 	c #8D593D",
"R 	c #955E41",
"S 	c #8D593E",
"T 	c #925D40",
"U 	c #935D40",
"V 	c #925C3F",
"W 	c #945E40",
"X 	c #925C40",
"Y 	c #463AA5",
"Z 	c #3A3189",
"` 	c #965F41",
" .	c #955F41",
"..	c #2F2770",
"+.	c #2B2568",
"@.	c #2C2568",
"#.	c #302871",
"$.	c #2C2569",
"%.	c #302872",
"&.	c #312A6F",
"*.	c #3D3D47",
"=.	c #322B6D",
"-.	c #6B6B6B",
";.	c #3F3F3F",
">.	c #3E3E45",
"                                        . . + + @ @ @ # # $ $ % % & & * * = = $ $ - -                                           ",
"                                        . . + + @ @ @ # # $ $ % % & & * * = = $ $ - -                                           ",
"                                        . . + + ; ; ; $ $ $ $ $ $ > > , , ' ' ) ) & &                                           ",
"                                        . . + + ; ; ; $ $ $ $ $ $ > > , , ' ' ) ) & &                                           ",
"                                        ! ! - - - - - $ $ ~ ~ { { ] ] ^ ^ / / ( ( _ _                                           ",
"                                        ! ! - - - - - $ $ ~ ~ { { ] ] ^ ^ / / ( ( _ _                                           ",
"                                        ! ! : : < < < [ [ } } [ [ | | 1 1 2 2 3 3 3 3                                           ",
"                                        ! ! : : < < < [ [ } } [ [ | | 1 1 2 2 3 3 3 3                                           ",
"                                        4 4 5 5 6 6 6 } } 7 7 8 8 9 9 2 2 8 8 7 7 [ [                                           ",
"                                        4 4 5 5 6 6 6 } } 7 7 8 8 9 9 2 2 8 8 7 7 [ [                                           ",
"                                        0 0 a a b b b c c d d e e f f f f g g h h i i                                           ",
"                                        0 0 a a b b b c c d d e e f f f f g g h h i i                                           ",
"                                        j j k k l l l m m n n o o o o o o o o p p q q                                           ",
"                                        j j k k l l l m m n n o o o o o o o o p p q q                                           ",
"                                        r r s s t t t u u v v q q q q w w x x x x w w                                           ",
"                                        r r s s t t t u u v v q q q q w w x x x x w w                                           ",
"                            y y z z A A B B C C B B B D D A A q q h h q q q q A A A A B B C C B B A A                           ",
"                            y y z z A A B B C C B B B D D A A q q h h q q q q A A A A B B C C B B A A                           ",
"                            E E F F C C B B C C A A A B B B B A A q q q q A A C C C C A A C C B B C C                           ",
"                            E E F F C C B B C C A A A B B B B A A q q q q A A C C C C A A C C B B C C                           ",
"                            G G H H B B C C C C C C C C C C C B B A A D D B B C C C C C C C C C C B B                           ",
"                            G G H H B B C C C C C C C C C C C B B A A D D B B C C C C C C C C C C B B                           ",
"                            I I J J A A C C C C A A A C C C C C C A A D D C C C C C C A A C C C C A A                           ",
"                            I I J J A A C C C C A A A C C C C C C A A D D C C C C C C A A C C C C A A                           ",
"                            K K L L [ [ [ [ [ [ [ [ [ D D D D C C C C D D C C D D D D [ [ [ [ [ [ [ [                           ",
"                            K K L L [ [ [ [ [ [ [ [ [ D D D D C C C C D D C C D D D D [ [ [ [ [ [ [ [                           ",
"                            M M N N [ [ O O [ [ [ [ [ D D D D C C B B D D C C B B D D [ [ [ [ O O [ [                           ",
"                            M M N N [ [ O O [ [ [ [ [ D D D D C C B B D D C C B B D D [ [ [ [ O O [ [                           ",
"                            P P P P [ [ O O [ [ O O O D D C C C C D D B B C C B B D D O O [ [ O O [ [                           ",
"                            P P P P [ [ O O [ [ O O O D D C C C C D D B B C C B B D D O O [ [ O O [ [                           ",
"                            Q Q R R [ [ [ [ [ [ O O O D D C C C C D D B B C C B B D D O O [ [ [ [ [ [                           ",
"                            Q Q R R [ [ [ [ [ [ O O O D D C C C C D D B B C C B B D D O O [ [ [ [ [ [                           ",
"                            S S T T [ [ [ [ [ [ O O O C C C C C C D D B B C C C C D D O O [ [ [ [ [ [                           ",
"                            S S T T [ [ [ [ [ [ O O O C C C C C C D D B B C C C C D D O O [ [ [ [ [ [                           ",
"                            U U V V [ [ [ [ [ [ [ [ [ D D D D D D B B C C B B C C D D [ [ [ [ [ [ [ [                           ",
"                            U U V V [ [ [ [ [ [ [ [ [ D D D D D D B B C C B B C C D D [ [ [ [ [ [ [ [                           ",
"                            W W X X [ [ [ [ O O [ [ [ Y Y Y Y Y Y Y Y Y Y Z Z C C D D [ [ O O [ [ [ [                           ",
"                            W W X X [ [ [ [ O O [ [ [ Y Y Y Y Y Y Y Y Y Y Z Z C C D D [ [ O O [ [ [ [                           ",
"                            ` `  . .O O [ [ O O O O O Y Y Y Y Y Y Y Y Y Y Y Y Z Z D D O O O O [ [ O O                           ",
"                            ` `  . .O O [ [ O O O O O Y Y Y Y Y Y Y Y Y Y Y Y Z Z D D O O O O [ [ O O                           ",
"                                            ....+.+.+.Y Y Y Y Y Y Y Y Y Y Y Y Y Y Z Z                                           ",
"                                            ....+.+.+.Y Y Y Y Y Y Y Y Y Y Y Y Y Y Z Z                                           ",
"                                            @.@.@.@.@.Y Y Y Y Y Y Y Y Y Y Y Y Y Y Y Y                                           ",
"                                            @.@.@.@.@.Y Y Y Y Y Y Y Y Y Y Y Y Y Y Y Y                                           ",
"                                            +.+.......Y Y Y Y Y Y Y Y Y Y Y Y Y Y Y Y                                           ",
"                                            +.+.......Y Y Y Y Y Y Y Y Y Y Y Y Y Y Y Y                                           ",
"                                            @.@.#.#.#.Y Y Y Y Y Y Y Y Y Y Y Y Y Y Y Y                                           ",
"                                            @.@.#.#.#.Y Y Y Y Y Y Y Y Y Y Y Y Y Y Y Y                                           ",
"                                            @.@.#.#.#.Y Y Y Y Y Y Y Y Z Z Z Z Z Z Z Z                                           ",
"                                            @.@.#.#.#.Y Y Y Y Y Y Y Y Z Z Z Z Z Z Z Z                                           ",
"                                            @.@.#.#.#.Y Y Z Z Z Z Y Y Z Z Z Z Z Z Z Z                                           ",
"                                            @.@.#.#.#.Y Y Z Z Z Z Y Y Z Z Z Z Z Z Z Z                                           ",
"                                            $.$.#.#.#.Y Y Y Y Y Y Y Y Y Y Y Y Y Y Y Y                                           ",
"                                            $.$.#.#.#.Y Y Y Y Y Y Y Y Y Y Y Y Y Y Y Y                                           ",
"                                            #.#.%.%.%.Y Y Y Y Y Y Y Y Y Y Y Y Y Y Y Y                                           ",
"                                            #.#.%.%.%.Y Y Y Y Y Y Y Y Y Y Y Y Y Y Y Y                                           ",
"                                            &.&.%.%.%.Y Y Y Y Y Y Y Y Y Y Y Y Y Y Y Y                                           ",
"                                            &.&.%.%.%.Y Y Y Y Y Y Y Y Y Y Y Y Y Y Y Y                                           ",
"                                            *.*.=.=.=.Y Y Y Y Y Y Y Y -.-.-.-.-.-.-.-.                                          ",
"                                            *.*.=.=.=.Y Y Y Y Y Y Y Y -.-.-.-.-.-.-.-.                                          ",
"                                            ;.;.>.>.>.-.-.-.-.-.-.-.-.-.-.-.-.-.-.-.-.                                          ",
"                                            ;.;.>.>.>.-.-.-.-.-.-.-.-.-.-.-.-.-.-.-.-.                                          ",
"                                            ;.;.;.;.;.-.-.-.-.-.-.-.-.-.-.-.-.-.-.-.-.                                          ",
"                                            ;.;.;.;.;.-.-.-.-.-.-.-.-.-.-.-.-.-.-.-.-.                                          "};
