/* XPM */
static char *_4c9848c19384f9ebb1521f4d0e96a9btgYpXdvMYrRd9WEQ[] = {
/* columns rows colors chars-per-pixel */
"64 64 49 1 ",
"  c None",
". c #4A7435",
"X c #3B622F",
"o c #3E692D",
"O c #497135",
"+ c #4A7335",
"@ c #698756",
"# c #466F33",
"$ c #4E7B36",
"% c #679056",
"& c #6D955B",
"* c #799C65",
"= c #71955B",
"- c #6F955C",
"; c #3D672E",
": c #5A7B48",
"> c gray10",
", c #4D7836",
"< c #487532",
"1 c #4A692D",
"2 c #3D632B",
"3 c #385226",
"4 c #008C8C",
"5 c #00AFAF",
"6 c #00CCCC",
"7 c #009E9E",
"8 c #00A8A8",
"9 c #007F7F",
"0 c #006261",
"q c #006161",
"w c #009999",
"e c #446E32",
"r c #446D31",
"t c #426932",
"y c #577547",
"u c #456F33",
"i c #426A32",
"p c #4B7635",
"a c #3A3189",
"s c #4C7636",
"d c #467232",
"f c #463AA5",
"g c #302872",
"h c gray42",
"j c #3F3F3F",
"k c gray56",
"l c #7A7777",
"z c #4C4C4C",
"x c gray38",
/* pixels */
"                      ..XXooooXXXXXXXXXXOO                      ",
"                      ..XXooooXXXXXXXXXXOO                      ",
"                      ++XXooXXOO@@@@OOXXoo                      ",
"                      ++XXooXXOO@@@@OOXXoo                      ",
"                      XX##$$%%&&**==--%%OO                      ",
"                      XX##$$%%&&**==--%%OO                      ",
"                      ##;;@@::======@@::@@                      ",
"                      ##;;@@::======@@::@@                      ",
"                      ;;++::>>>>==@@>>>>::                      ",
"                      ;;++::>>>>==@@>>>>::                      ",
"                      ,,OO$$@@@@XXXX@@@@$$                      ",
"                      ,,OO$$@@@@XXXX@@@@$$                      ",
"                      ooOOoo<<XX1111XX<<oo                      ",
"                      ooOOoo<<XX1111XX<<oo                      ",
"                      22ooXXXX3333XX33oooo                      ",
"                      22ooXXXX3333XX33oooo                      ",
"              4444556666557788XXOOooXX887755666655              ",
"              4444556666557788XXOOooXX887755666655              ",
"              999955555555885577XXXX77555555555555              ",
"              999955555555885577XXXX77555555555555              ",
"              999955555555885555777788555555555555              ",
"              999955555555885555777788555555555555              ",
"              00qqww8888ww5588555577555588ww8888ww              ",
"              00qqww8888ww5588555577555588ww8888ww              ",
"              oooo@@@@@@@@5588558877555588::::::::              ",
"              oooo@@@@@@@@5588558877555588::::::::              ",
"              OOee==@@==%%8888558877558877%%%%%%@@              ",
"              OOee==@@==%%8888558877558877%%%%%%@@              ",
"              rrtt%%::==::8855557788558888%%yy@@%%              ",
"              rrtt%%::==::8855557788558888%%yy@@%%              ",
"              uuoo%%%%==::8855557755558877@@@@%%%%              ",
"              uuoo%%%%==::8855557755558877@@@@%%%%              ",
"              uuii%%====@@7755557755555577@@%%%%@@              ",
"              uuii%%====@@7755557755555577@@%%%%@@              ",
"              rruu====%%==7788887788885588%%@@%%%%              ",
"              rruu====%%==7788887788885588%%@@%%%%              ",
"              ppuu%%==::%%aaaaaaaaaaaa8855%%yy%%@@              ",
"              ppuu%%==::%%aaaaaaaaaaaa8855%%yy%%@@              ",
"              ssdd::==@@::ffffffffffffaa77@@yy@@yy              ",
"              ssdd::==@@::ffffffffffffaa77@@yy@@yy              ",
"                      ggggaaffffffffffffff                      ",
"                      ggggaaffffffffffffff                      ",
"                      ggggaaffffffffffffff                      ",
"                      ggggaaffffffffffffff                      ",
"                      ggggffffffffffffffff                      ",
"                      ggggffffffffffffffff                      ",
"                      aaaaffffffffffaaaaff                      ",
"                      aaaaffffffffffaaaaff                      ",
"                      aaaaffffffffaaggggaa                      ",
"                      aaaaffffffffaaggggaa                      ",
"                      aaaaffaaaaffaaffaaaa                      ",
"                      aaaaffaaaaffaaffaaaa                      ",
"                      ffffffffffffffffffff                      ",
"                      ffffffffffffffffffff                      ",
"                      ffffffffffffffffffff                      ",
"                      ffffffffffffffffffff                      ",
"                      aaaaffffffffaaaaaaaa                      ",
"                      aaaaffffffffaaaaaaaa                      ",
"                      ggggaaaaaaaahhhhhhhh                      ",
"                      ggggaaaaaaaahhhhhhhh                      ",
"                      jjjjhhkkllhhhhhhhhhh                      ",
"                      jjjjhhkkllhhhhhhhhhh                      ",
"                      zzzzhhllhhhhxxxxxxxx                      ",
"                      zzzzhhllhhhhxxxxxxxx                      "
};
